<svg width="19" height="19" viewBox="0 0 19 19" fill="none" xmlns="http://www.w3.org/2000/svg">
<path fill-rule="evenodd" clip-rule="evenodd" d="M3.00877 0.840242C3.11736 0.848554 3.26869 0.869708 3.4308 0.943791C3.64393 1.04119 3.82455 1.19784 3.95111 1.39506C4.04738 1.54506 4.08972 1.69188 4.11331 1.7982C4.13334 1.8885 4.14796 1.99112 4.15993 2.07516C4.16073 2.08081 4.16153 2.08638 4.16231 2.09186L4.44788 4.09083L17.1695 4.09083C17.2852 4.09079 17.4187 4.09074 17.5345 4.10084C17.6648 4.11219 17.8604 4.14168 18.0583 4.25701C18.3084 4.40279 18.4987 4.63266 18.5951 4.90564C18.6713 5.12161 18.6637 5.31935 18.6505 5.44944C18.6387 5.56508 18.6137 5.6962 18.592 5.80986L17.5048 11.5176C17.4374 11.8713 17.3787 12.1796 17.3106 12.4331C17.238 12.7029 17.1412 12.9659 16.971 13.2131C16.7139 13.5865 16.3581 13.8809 15.9432 14.0636C15.6685 14.1845 15.3921 14.2304 15.1134 14.2512C14.8517 14.2708 14.5378 14.2708 14.1778 14.2708H7.15167C6.77308 14.2708 6.444 14.2708 6.17047 14.2498C5.87987 14.2275 5.59141 14.1782 5.30718 14.0477C4.87929 13.8511 4.51733 13.535 4.26486 13.1375C4.09715 12.8735 4.0095 12.5943 3.9482 12.3094C3.89051 12.0412 3.84616 11.7151 3.79514 11.34L2.93496 5.0177L2.56987 2.46205H1.6474C1.19762 2.46205 0.833008 2.09743 0.833008 1.64765C0.833008 1.19788 1.19762 0.833261 1.6474 0.833261H2.71113C2.71667 0.833261 2.72229 0.833259 2.728 0.833257C2.81289 0.833223 2.91655 0.833183 3.00877 0.840242ZM4.67426 5.71962L5.40517 11.0918C5.46121 11.5037 5.49761 11.7672 5.54057 11.9669C5.58139 12.1566 5.61642 12.2275 5.63973 12.2642C5.72389 12.3967 5.84454 12.5021 5.98717 12.5676C6.02667 12.5857 6.10168 12.6109 6.2952 12.6258C6.49887 12.6414 6.76482 12.642 7.18048 12.642H14.15C14.5458 12.642 14.7983 12.6414 14.9921 12.627C15.1756 12.6133 15.2479 12.5901 15.2868 12.5729C15.4251 12.512 15.5437 12.4139 15.6294 12.2894C15.6536 12.2543 15.6899 12.1877 15.7377 12.01C15.7882 11.8223 15.8359 11.5744 15.91 11.1855L16.9511 5.71962H4.67426ZM5.71937 17.1211C5.71937 16.2216 6.4486 15.4923 7.34816 15.4923C8.24771 15.4923 8.97694 16.2216 8.97694 17.1211C8.97694 18.0207 8.24771 18.7499 7.34816 18.7499C6.4486 18.7499 5.71937 18.0207 5.71937 17.1211ZM12.2345 17.1211C12.2345 16.2216 12.9638 15.4923 13.8633 15.4923C14.7629 15.4923 15.4921 16.2216 15.4921 17.1211C15.4921 18.0207 14.7629 18.7499 13.8633 18.7499C12.9638 18.7499 12.2345 18.0207 12.2345 17.1211Z" fill="white"/>
</svg>
