<svg width="247" height="156" viewBox="0 0 247 156" fill="none" xmlns="http://www.w3.org/2000/svg">
<path opacity="0.2" d="M64.6936 10.353C60.8315 11.4739 55.0566 16.5693 49.9914 24.6961C43.7618 34.6934 40.0605 35.5689 31.247 30.6439C22.4334 25.719 12.0805 29.0273 4.58857 42.1419C-2.90461 55.2564 10.2208 65.4521 22.3874 81.4287C34.5528 97.4054 10.2632 93.2725 2.39394 111.933C-5.47529 130.594 5.6224 151.528 42.1355 151.278C78.6981 151.029 133.97 151.507 133.97 151.507C133.97 151.507 185.228 155.918 203.894 144.52C222.559 133.123 199.6 127.579 216.961 120.291C234.321 113.004 252.441 112.511 244.85 93.6739C237.259 74.8364 226.516 78.7372 219.584 73.701C212.65 68.6636 208.48 63.197 218.394 54.2323C228.308 45.2676 235.896 39.2278 230.884 27.3514C223.695 10.3119 206.245 8.11363 187.077 15.336C167.906 22.5583 164.651 31.806 133.014 26.453C115.367 23.4676 97.5804 0.807874 64.6936 10.353Z" fill="#0D9545"/>
<path opacity="0.3" d="M209.001 107.723C208.128 105.905 207.504 104 207.358 101.928C206.99 96.7042 210.028 91.8953 212.257 87.3972C214.307 83.2643 215.832 77.1061 208.914 77.6538C203.403 78.0903 196.924 83.5823 196.185 89.3101C195.311 96.0887 198.611 104.636 194.698 110.793C189.225 119.406 185.277 117.433 185.277 131.968C185.277 138.178 188.717 141.605 192.658 143.491C198.878 146.47 206.294 145.267 211.249 140.471C215.626 136.234 218.229 130.144 217.349 124.03C216.459 117.852 211.615 113.169 209.001 107.723Z" fill="#0D9545"/>
<path d="M204.377 154.57C204.239 154.57 204.115 154.476 204.08 154.337C200.649 140.645 198.782 128.23 198.53 117.441C198.328 108.797 199.156 101.167 200.992 94.7632C202.63 89.0487 204.785 85.3849 206.305 83.3173C207.965 81.0586 209.23 80.1686 209.282 80.1323C209.421 80.0356 209.612 80.0707 209.708 80.2097C209.805 80.3488 209.77 80.5398 209.631 80.6366C209.619 80.645 208.372 81.5289 206.762 83.7308C205.274 85.7658 203.163 89.3764 201.557 95.0135C199.75 101.359 198.938 108.924 199.144 117.499C199.402 128.226 201.262 140.57 204.675 154.189C204.716 154.353 204.615 154.52 204.451 154.561C204.427 154.566 204.401 154.57 204.377 154.57Z" fill="url(#paint0_linear_1537_3932)"/>
<path opacity="0.5" d="M228.544 132.057C229.249 127.412 227.561 122.078 226.718 117.165C226.273 114.568 226.066 111.99 226.483 109.373C226.898 106.771 228.12 103.958 226.993 101.365C224.723 96.1428 219.323 98.52 216.23 102.451C212.641 107.013 211.659 114.468 210.296 120.209C209.474 123.669 208.237 127.219 207.803 130.745C207.085 136.587 208.405 140.644 211.201 143.382C213.881 146.01 217.963 146.554 221.243 144.728C224.205 143.079 227.407 139.552 228.544 132.057Z" fill="#0D9545"/>
<path d="M216.192 153.74C216.045 153.74 215.915 153.634 215.89 153.484C215.878 153.414 214.702 146.32 214.671 136.533C214.643 127.495 215.612 114.243 220.39 102.426C220.454 102.269 220.632 102.194 220.791 102.257C220.948 102.321 221.024 102.498 220.96 102.657C218.343 109.128 215.233 120.257 215.285 136.532C215.315 146.269 216.484 153.313 216.494 153.384C216.522 153.55 216.41 153.709 216.243 153.738C216.226 153.739 216.209 153.74 216.192 153.74Z" fill="url(#paint1_linear_1537_3932)"/>
<path opacity="0.3" d="M25.8749 66.915C24.4807 67.5897 23.1361 68.5981 22.725 69.632C20.8714 74.2969 25.7504 79.7188 27.737 83.4914C31.1493 89.9737 33.1142 97.2843 32.5628 104.638C31.9667 112.607 32.0332 120.36 34.1697 128.141C35.2701 132.149 37.0863 136.311 40.2107 139.191C46.1151 144.633 58.2647 139.428 59.6661 132.169C60.7834 126.379 59.1341 120.489 56.8996 115.184C53.1415 106.257 47.9723 98.0122 44.1586 89.114C41.2421 82.3088 39.9266 68.1108 31.1323 66.2052C29.5266 65.8569 27.3549 66.1991 25.8749 66.915Z" fill="#0D9545"/>
<path d="M50.8371 152.362C50.8335 152.362 50.8298 152.362 50.8274 152.36C50.669 152.348 50.5493 152.209 50.5614 152.051C51.3957 141.124 50.6896 129.995 48.4623 118.972C46.68 110.152 43.9255 101.382 40.2751 92.9023C34.0612 78.4685 27.3201 69.7855 27.2536 69.6997C27.1557 69.5739 27.1774 69.3926 27.3032 69.2946C27.4289 69.1967 27.6103 69.2184 27.7083 69.3442C27.776 69.4313 34.563 78.1735 40.8059 92.675C44.4721 101.19 47.2386 110 49.0282 118.858C51.2663 129.933 51.9761 141.115 51.137 152.096C51.1249 152.25 50.9919 152.368 50.8371 152.362Z" fill="url(#paint2_linear_1537_3932)"/>
<path opacity="0.5" d="M41.7895 124.638C40.093 119.471 35.5647 114.844 32.1295 110.209C30.3133 107.758 28.7547 105.203 27.82 102.283C26.8902 99.3785 26.6846 95.8345 24.1672 93.745C19.0947 89.5359 14.7587 94.8091 13.616 100.485C12.2908 107.071 15.1686 115.284 16.7562 121.925C17.7139 125.928 18.2882 130.241 19.6812 134.11C21.9895 140.52 25.4706 144.02 29.7873 145.391C33.9275 146.705 38.428 145.137 40.8621 141.54C43.0603 138.288 44.527 132.974 41.7895 124.638Z" fill="#0D9545"/>
<path d="M40.1902 153.551C40.0717 153.551 39.9557 153.497 39.8795 153.394C39.8299 153.327 34.911 146.611 29.7697 136.515C25.0213 127.193 19.1037 112.993 17.8715 98.2888C17.8534 98.0772 18.0118 97.8898 18.2234 97.8729C18.4362 97.8523 18.6224 98.0131 18.6394 98.2247C20.9779 126.133 40.3051 152.672 40.501 152.937C40.6268 153.109 40.5905 153.349 40.4188 153.476C40.3486 153.527 40.2688 153.551 40.1902 153.551Z" fill="url(#paint3_linear_1537_3932)"/>
<path d="M172.967 102.899C173 118.387 168.688 130.408 159.937 138.927C151.183 147.445 138.598 151.733 122.085 151.769C105.947 151.804 93.5375 147.705 84.8593 139.467C76.18 131.23 71.8185 119.329 71.7859 103.841L71.6807 54.3931H103.853L103.953 101.263C103.971 109.629 105.532 115.717 108.671 119.487C111.809 123.258 116.411 125.147 122.511 125.134C129.042 125.121 133.764 123.239 136.697 119.481C139.63 115.725 141.073 109.547 141.053 101.018L140.954 54.3931H172.866L172.967 102.899Z" fill="#FF7A00"/>
<path d="M172.972 102.463C173.005 117.278 168.689 128.781 159.937 136.928C151.185 145.077 138.598 149.181 122.084 149.217C105.947 149.252 93.5385 145.333 84.8603 137.454C76.1834 129.574 71.8207 118.187 71.7893 103.373L71.6841 54.5396H103.857L103.957 100.906C103.974 108.908 105.535 114.734 108.672 118.339C111.809 121.947 116.412 123.753 122.51 123.74C129.041 123.727 133.764 121.927 136.698 118.333C139.631 114.741 141.074 108.825 141.057 100.669L140.958 54.5396H172.87L172.972 102.463Z" fill="#FF7A00"/>
<path d="M102.878 31.8481L72.5752 31.9134C72.0541 31.9147 71.6321 32.2834 71.6333 32.8046L71.6817 55.526L103.854 55.457L103.805 32.7357C103.803 32.2133 103.399 31.8469 102.878 31.8481Z" fill="white"/>
<path d="M171.937 31.7007L141.814 31.7648C141.293 31.766 140.905 32.1336 140.906 32.6559L140.955 55.3773L172.867 55.3096L172.818 32.5882C172.816 32.0659 172.458 31.6995 171.937 31.7007Z" fill="white"/>
<path d="M76.1987 105.854C75.9508 105.854 75.68 105.653 75.6788 105.405L75.582 59.9056C75.582 59.6577 75.8517 59.4558 76.0995 59.4546C76.3474 59.4546 76.6183 59.6553 76.6195 59.9032L76.7162 105.403C76.7174 105.652 76.4466 105.854 76.1987 105.854Z" fill="white"/>
<path d="M152.07 139.693C151.894 139.693 151.727 139.589 151.654 139.416C151.559 139.188 151.667 138.924 151.896 138.829C162.201 134.523 166.444 122.956 168.187 114.011C170.088 104.259 169.517 95.4319 169.511 95.3437C169.494 95.0958 169.682 94.8818 169.93 94.8648C170.179 94.8479 170.392 95.0353 170.409 95.2832C170.415 95.3727 170.994 104.317 169.07 114.184C167.937 119.994 166.17 124.987 163.82 129.027C160.862 134.108 156.968 137.686 152.243 139.659C152.186 139.681 152.127 139.693 152.07 139.693Z" fill="white"/>
<path opacity="0.5" d="M89.3605 0L82.9326 12.5813H87.8188L86.1466 22.0466L96.133 9.49676L89.5322 8.95142L89.3605 0Z" fill="#0D9545"/>
<path opacity="0.5" d="M108.305 7.32764L99.5866 14.7906L103.263 16.3008L99.0728 22.9198L110.462 16.5729L105.666 14.1195L108.305 7.32764Z" fill="#0D9545"/>
<path opacity="0.5" d="M66.0078 8.54883L68.2242 19.8098L71.3463 17.3503L75.0523 24.251L75.1201 11.2138L70.6268 14.1847L66.0078 8.54883Z" fill="#0D9545"/>
<path opacity="0.5" d="M158.478 0L152.051 12.5813H156.937L155.264 22.0466L165.252 9.49676L158.651 8.95142L158.478 0Z" fill="#0D9545"/>
<path opacity="0.5" d="M176.455 7.44824L167.737 14.9112L171.413 16.4214L167.222 23.0404L178.611 16.6935L173.816 14.2401L176.455 7.44824Z" fill="#0D9545"/>
<path opacity="0.5" d="M135.126 8.54883L137.343 19.8098L140.465 17.3503L144.17 24.251L144.239 11.2138L139.745 14.1847L135.126 8.54883Z" fill="#0D9545"/>
<path d="M59.9283 75.835C59.9283 75.835 55.9865 79.5737 54.6842 86.2168C53.3819 92.8612 50.2877 76.8241 50.2877 76.8241H47.1608C47.1608 76.8241 45.9819 93.3485 54.8087 94.6628C56.4919 94.9131 58.1799 94.2469 59.2331 92.9107C60.8449 90.8636 63.3599 87.2228 63.9669 83.7513C63.4458 78.2799 59.9283 75.835 59.9283 75.835Z" fill="#0D9545"/>
<path d="M79.9545 152.352C79.9557 152.303 79.9521 152.254 79.94 152.203C79.2012 149.272 76.1771 147.769 76.1771 147.769L74.7225 147.883C73.8869 150.467 73.3477 151.728 73.4819 152.434C73.4855 152.453 73.4915 152.473 73.4964 152.492C74.6959 152.6 77.165 152.67 79.9545 152.352Z" fill="url(#paint4_linear_1537_3932)"/>
<path d="M73.4961 152.492C73.5614 152.728 73.7343 152.912 73.958 152.958C75.6641 153.317 78.3763 153.028 79.5153 152.879C79.7668 152.847 79.9506 152.614 79.9542 152.352C77.1647 152.67 74.6956 152.6 73.4961 152.492Z" fill="#FF7A00"/>
<path d="M77.3738 145.507L76.7366 148.572C76.6894 148.797 76.5177 148.965 76.3086 148.984C76.0522 149.009 75.6883 149.023 75.3219 148.969C74.993 148.92 74.7645 148.587 74.8225 148.229L75.2651 145.507H77.3738Z" fill="url(#paint5_linear_1537_3932)"/>
<path d="M61.139 152.467C62.6928 152.423 63.4957 152.241 63.9104 152.07C63.9116 152.225 63.9104 152.382 63.9056 152.544C63.9008 152.718 63.7714 152.857 63.613 152.856L55.0848 152.801C54.8127 152.799 54.6531 152.484 54.7716 152.234C55.8901 152.328 58.7388 152.535 61.139 152.467Z" fill="#FF7A00"/>
<path d="M54.772 152.235C54.7829 152.213 54.7913 152.191 54.8058 152.171C55.5591 151.119 57.4769 149.023 61.2676 148.114L63.0862 148.057C63.0862 148.057 63.8963 149.465 63.9108 152.072C63.4949 152.241 62.692 152.425 61.1394 152.468C58.738 152.535 55.8892 152.328 54.772 152.235Z" fill="url(#paint6_linear_1537_3932)"/>
<path d="M63.4226 145.301C63.402 145.437 63.1529 147.497 63.0562 148.295C63.0332 148.485 62.8954 148.631 62.7225 148.653C62.4129 148.691 61.9123 148.723 61.4734 148.634C61.2364 148.586 61.0659 148.358 61.0659 148.095V144.861L63.4226 145.301Z" fill="url(#paint7_linear_1537_3932)"/>
<path d="M75.7833 106.449C75.7556 106.182 75.732 105.958 75.7132 105.782L65.5478 106.379C65.1048 107.984 64.6197 111.081 64.1382 114.92C63.6239 119.019 63.1193 123.914 62.675 128.62C62.2308 133.325 61.847 137.839 61.5744 141.177C61.438 142.846 61.3295 144.22 61.255 145.178C61.2178 145.656 61.1891 146.031 61.1697 146.285L61.1677 146.311C61.6094 146.449 62.0895 146.445 62.5102 146.385C62.7597 146.349 62.9749 146.296 63.1286 146.251C63.9117 142.834 68.3981 120.238 69.5705 114.323C69.7339 113.497 70.9256 113.538 71.0366 114.37M75.7833 106.449L71.0367 114.37C71.0366 114.37 71.0366 114.37 71.0366 114.37M75.7833 106.449C75.8595 107.186 75.9667 108.258 76.0902 109.595C76.3374 112.268 76.6501 116.001 76.9124 120.238C77.4276 128.56 77.7463 138.798 76.9995 146.775C76.8281 146.769 76.6199 146.76 76.3948 146.745C75.9182 146.713 75.4019 146.658 74.9998 146.568M75.7833 106.449L74.9998 146.568M71.0366 114.37C71.5263 117.992 72.5272 126.127 73.4053 133.352C73.8445 136.966 74.2531 140.353 74.552 142.837C74.7014 144.079 74.8233 145.095 74.9079 145.801L74.9998 146.568M71.0366 114.37L74.9998 146.568" fill="#FF7A00" stroke="url(#paint8_linear_1537_3932)"/>
<path d="M81.9777 75.1879C81.9777 75.1879 69.6926 73.2484 59.9927 75.8348L60.6396 85.8575C60.6396 85.8575 63.226 99.7593 65.1655 105.902C65.1655 105.902 72.6018 107.196 76.158 105.255C76.158 105.255 79.0672 87.797 80.6839 85.2106C80.6851 85.2106 82.3017 78.4212 81.9777 75.1879Z" fill="#0D9545"/>
<path d="M73.3574 64.6367L74.6681 74.6304C74.6681 74.6304 71.2486 76.2011 68.8545 74.5627L69.3696 68.7213L73.3574 64.6367Z" fill="url(#paint9_linear_1537_3932)"/>
<path d="M81.9774 75.188C81.9774 75.188 101.052 95.8792 78.582 103.8V102.184C78.582 102.184 86.9881 95.0714 80.5215 85.3715C80.5227 85.3715 81.3317 76.1577 81.9774 75.188Z" fill="#0D9545"/>
<path d="M78.4212 102.346C78.4212 102.346 75.5119 100.406 74.2181 101.052C72.9243 101.699 72.9243 102.669 72.9243 102.669C72.9243 102.669 73.5712 103.962 74.541 103.638C75.5107 103.316 77.7743 103.961 78.744 103.638C78.7452 103.638 79.0681 102.346 78.4212 102.346Z" fill="url(#paint10_linear_1537_3932)"/>
<path d="M46.9677 66.3734L51.0728 67.7567C51.5698 67.9054 51.912 68.4085 51.9519 69.0457L51.739 75.8956C51.8055 76.9669 50.9216 77.9125 50.0861 77.661L46.796 76.5401C46.4756 76.4433 46.2627 76.1072 46.2591 75.6925L46.1866 67.1642C46.1817 66.6697 46.588 66.2586 46.9677 66.3734Z" fill="#0D9545"/>
<path d="M46.185 75.1883C46.185 75.1883 44.9008 71.0723 45.5538 70.3794C46.2067 69.6866 47.5078 67.7737 47.5948 69.3371C47.6819 70.9006 48.4666 77.6525 46.185 75.1883Z" fill="url(#paint11_linear_1537_3932)"/>
<path d="M65.0393 61.9477C65.0187 62.0734 66.5701 70.3828 66.5701 70.3828L71.2955 69.3961L70.9956 61.302C70.9956 61.3032 65.3802 59.8353 65.0393 61.9477Z" fill="url(#paint12_linear_1537_3932)"/>
<path d="M69.582 62.62C69.7658 62.7312 69.8867 62.921 69.9121 63.1351L70.397 67.3224C70.4042 67.3865 70.403 67.4494 70.3933 67.5122C70.3353 67.8605 70.0608 68.9523 68.9399 68.615C67.9847 68.3272 67.102 68.0757 66.4527 68.1906C66.073 68.2583 65.8263 68.6271 65.8989 69.0055C66.0476 69.7842 66.3789 71.3501 66.8686 72.7007C66.992 73.0393 67.3559 73.2231 67.7029 73.1264C68.6183 72.8724 70.3909 72.3235 71.744 71.5508C71.9664 71.4239 72.1007 71.1857 72.0934 70.9305C72.0656 69.8048 71.9991 66.6477 72.1176 65.7529C72.2276 64.9222 73.2324 64.4313 73.7101 64.2427C73.8914 64.1713 74.0341 64.0286 74.1054 63.8473C74.3183 63.3031 74.554 62.1738 73.1442 61.6538C72.7935 61.5245 72.617 61.1291 72.7391 60.776C72.958 60.1436 73.0184 59.2258 71.8782 58.6926C70.7246 58.1521 69.8335 58.7083 69.322 59.2113C69.0959 59.4338 68.7416 59.4979 68.4671 59.3395C68.345 59.2694 68.1926 59.2452 68.0113 59.3347C67.6691 59.5015 67.2676 59.3806 67.0971 59.0396C66.8057 58.4556 66.2241 57.8534 65.0706 58.0312C62.9546 58.3577 62.6765 60.6913 63.2109 62.0698C63.7441 63.4494 66.0186 62.9646 67.1661 62.2935C68.0101 61.7977 69.0765 62.3128 69.582 62.62Z" fill="#0D9545"/>
<path d="M72.0547 67.1581C72.0547 67.1581 71.4562 64.8571 72.357 64.2767C73.2579 63.6963 74.5722 64.0276 74.253 65.7821C73.854 67.9658 72.0547 67.1581 72.0547 67.1581Z" fill="url(#paint13_linear_1537_3932)"/>
<path d="M63.7421 61.7337C63.7203 61.7337 63.6985 61.7216 63.6888 61.6999C62.9694 60.1594 64.6489 58.9297 64.6659 58.9176C64.6925 58.8982 64.7287 58.9043 64.7481 58.9309C64.7674 58.9575 64.7614 58.9938 64.7348 59.0131C64.7191 59.0252 63.1181 60.1993 63.7953 61.6503C63.8086 61.6793 63.7965 61.7144 63.7662 61.7289C63.759 61.7325 63.7505 61.7337 63.7421 61.7337Z" fill="#91B3FA"/>
<path d="M186.213 69.3744C186.213 69.3744 188.206 64.4906 180.688 65.4761C173.171 66.4603 174.998 69.2982 174.404 71.517C173.811 73.7346 170.656 76.2485 161.88 79.6704C153.104 83.0923 155.706 92.421 159.648 95.5177C163.59 98.6144 165.74 96.5564 166.656 101.9C167.573 107.244 171.23 111.584 175.794 107.054C180.357 102.524 185.544 97.167 184.093 90.143C182.642 83.1189 184.286 84.4478 187.118 81.2242C189.949 77.9993 183.947 74.8809 186.213 69.3744Z" fill="#0D9545"/>
<path d="M184.535 82.4502C185.728 81.2398 186.889 84.149 187.2 84.8782C187.982 86.7197 188.796 88.3726 190.448 89.6338C191.469 90.4149 192.85 90.9155 194.144 90.5395C198.8 89.1888 198.822 85.4477 198.927 82.6461C198.82 81.8516 199.296 81.0633 199.873 80.8178C200.543 80.5324 200.8 79.8384 200.8 79.8384C200.8 79.8384 201.256 80.848 200.696 81.322C200.5 81.4877 200.444 81.6836 200.45 81.8686C200.515 81.8577 200.583 81.848 200.653 81.8383C202.053 81.663 200.648 83.6666 200.648 83.6666C200.648 83.6666 202.003 91.0002 195.796 93.9154C192.723 95.358 190.366 95.0158 188.766 94.3024C187.957 94.0194 187.259 93.5128 186.663 92.8659C186.422 92.6265 186.3 92.4645 186.3 92.4645V92.4415C183.82 89.2928 183.391 83.611 184.535 82.4502Z" fill="url(#paint14_linear_1537_3932)"/>
<path d="M160.582 75.5002C160.701 75.2729 161.038 75.3092 161.107 75.5559C161.361 76.4712 161.977 78.0685 163.269 78.6356C163.319 78.6574 163.377 78.6525 163.423 78.6223C163.467 78.5921 163.494 78.5401 163.493 78.4857C163.49 78.372 163.455 78.2523 163.374 78.1277C163.205 77.869 163.236 77.5703 163.328 77.3104C163.368 77.1991 163.471 77.1229 163.59 77.1181C163.707 77.1133 163.817 77.1798 163.865 77.2874C163.956 77.4869 164.095 77.7021 164.307 77.8774C164.79 78.2777 165.022 79.1688 164.691 79.8992C163.992 82.6149 162.945 86.2062 167.022 88.83C171.1 91.4539 176.842 83.8785 176.842 83.8785L177.098 90.7357C177.098 90.7357 169.592 96.16 164.476 91.5954C159.359 87.0308 162.75 80.3877 162.75 80.3877C162.75 80.3877 158.848 78.8158 160.582 75.5002Z" fill="url(#paint15_linear_1537_3932)"/>
<path d="M184.484 81.9849C183.264 81.6198 179.713 80.9439 176.334 84.0611C175.761 84.5895 175.526 85.3936 175.732 86.1457C176.639 89.4866 179.033 99.3546 176.934 103.625C176.934 103.625 180.633 107.703 184.669 104.416C184.669 104.416 186.479 96.5251 188.851 93.0609C190.489 90.6691 186.241 84.0792 185.166 82.488C185.001 82.2473 184.762 82.0684 184.484 81.9849Z" fill="#FF7A00"/>
<path d="M181.115 75.3491C181.115 75.3491 179.311 80.4518 179.176 82.7032C179.176 82.7032 181.17 83.6101 183.049 82.0793C183.049 82.0793 183.246 76.9827 183.531 76.0698L181.115 75.3491Z" fill="url(#paint16_linear_1537_3932)"/>
<path d="M184.994 70.2259C184.802 69.5076 184.242 68.9454 183.524 68.7519C182.563 68.4932 181.216 68.2779 180.36 68.7749C178.909 69.6165 178.909 73.3927 178.909 73.3927C178.909 73.3927 180.764 78.8569 184.019 77.8388C186.507 77.0601 185.572 72.3855 184.994 70.2259Z" fill="url(#paint17_linear_1537_3932)"/>
<path d="M177.765 68.3273C178.657 66.1775 181.437 66.8135 181.437 66.8135C181.437 66.8135 183.605 67.3274 183.908 68.308C184.045 68.7493 183.437 69.1762 182.64 69.5159C180.865 70.2729 179.575 71.869 179.21 73.7637L179.125 74.2002C179.126 74.2002 176.872 70.4772 177.765 68.3273Z" fill="#0D9545"/>
<path d="M180.459 73.9198C180.459 73.9198 179.317 71.3515 178.217 72.4676C177.116 73.5824 179.096 75.2704 180.083 74.8581L180.459 73.9198Z" fill="url(#paint18_linear_1537_3932)"/>
<path d="M189.379 120.985C189.364 121.343 189.994 124.185 190.336 125.701C190.474 126.311 190.379 126.949 190.068 127.492L178.213 147.444C178.069 147.686 177.965 147.947 177.903 148.221C177.685 149.156 177.235 151.451 177.47 153.54L178.083 154.813L175.43 154.211L174.853 147.088L175.604 146.629C176.252 146.234 176.757 145.643 177.046 144.94C178.119 142.337 180.78 135.708 181.466 132.477C182.246 128.806 186.322 125.824 186.322 125.824L185.606 124.132L189.379 120.985Z" fill="url(#paint19_linear_1537_3932)"/>
<path d="M172.481 151.76C172.481 151.76 173.913 149.489 174.082 148.605C174.25 147.721 174.72 146.16 175.604 146.63C175.604 146.63 176.019 150.924 175.876 152.602C175.732 154.281 177.773 154.226 177.773 154.226C177.773 154.226 178.335 154.305 178.747 154.717C179.031 155.001 178.828 155.495 178.427 155.52C177.759 155.564 176.699 155.575 175.585 155.359C175.196 155.284 174.908 154.953 174.884 154.558L174.59 149.616L172.784 151.898L172.481 151.76Z" fill="url(#paint20_linear_1537_3932)"/>
<path d="M182.296 124.163C182.296 124.163 181.878 142.01 181.821 144.545C181.764 147.079 182.221 152.697 184.763 154.376L183.658 155.195C183.658 155.195 182.276 154.021 180.926 151.76C179.41 149.22 178.952 148.756 178.952 148.756L179.455 147.726C179.675 147.275 179.74 146.765 179.639 146.272C179.091 143.615 177.259 134.775 176.758 132.871C176.168 130.625 176.126 127.624 178.179 125.111C180.23 122.601 182.296 124.163 182.296 124.163Z" fill="url(#paint21_linear_1537_3932)"/>
<path d="M179.951 156C179.872 156.001 179.805 155.944 179.794 155.866C179.709 155.271 179.357 152.885 179.069 152.267C178.739 151.56 177.662 148.583 179.069 148.33C179.069 148.33 182.571 153.446 183.243 154.135C183.916 154.824 184.763 154.376 184.763 154.376C184.763 154.376 185.419 154.569 185.912 155.201C186.147 155.5 185.928 155.942 185.547 155.945L183.188 155.968C182.503 155.974 181.887 155.558 181.633 154.922C181.218 153.885 180.505 152.365 179.673 151.69L180.104 155.826C180.115 155.918 180.043 155.999 179.951 156Z" fill="url(#paint22_linear_1537_3932)"/>
<path d="M185.226 102.492C185.226 102.492 184.694 104.186 185.512 106.976L190.577 124.663C190.657 124.942 190.507 125.232 190.235 125.33C188.719 125.874 183.739 127.411 176.941 126.942C176.599 126.917 176.312 126.675 176.237 126.341C175.79 124.324 174.26 117.445 173.946 116.031C172.746 110.644 171.408 104.837 177.298 101.324C180.011 102.486 182.543 103.172 185.226 102.492Z" fill="#0D9545"/>
<path d="M196.961 85.5238C196.826 85.2239 196.859 84.8321 196.89 84.5214C196.961 83.8031 196.955 83.0861 196.967 82.3642C196.997 80.4936 196.98 78.617 197.129 76.7513C197.16 76.3486 197.118 75.9448 197.15 75.5433C197.229 74.5252 197.827 74.2241 198.819 74.0125C199.66 73.8324 200.575 73.5857 201.443 73.7695C201.785 73.842 202.114 74.0295 202.157 74.3862C202.33 75.8275 202.286 85.2698 200.547 85.5298C199.96 85.6181 199.377 85.7208 198.793 85.826C198.378 85.901 197.823 86.0582 197.405 85.9179C197.177 85.8406 197.041 85.6979 196.961 85.5238Z" fill="#0D9545"/>
<path d="M197.651 85.5238C197.516 85.2239 197.55 84.8321 197.58 84.5214C197.651 83.8031 197.645 83.0861 197.657 82.3642C197.688 80.4936 197.671 78.617 197.819 76.7513C197.851 76.3486 197.809 75.9448 197.84 75.5433C197.92 74.5252 198.517 74.2241 199.51 74.0125C200.35 73.8324 201.266 73.5857 202.134 73.7695C202.476 73.842 202.805 74.0295 202.847 74.3862C203.02 75.8275 202.977 85.2698 201.238 85.5298C200.65 85.6181 200.067 85.7208 199.483 85.826C199.068 85.901 198.513 86.0582 198.095 85.9179C197.867 85.8406 197.73 85.6979 197.651 85.5238Z" fill="#0D9545"/>
<path d="M202.422 83.4626C202.422 83.4626 202.803 83.2039 203.115 81.6598C203.428 80.1157 203.737 79.1798 203.115 78.4627C202.492 77.7457 201.526 77.7155 201.526 78.4627C201.526 79.21 201.688 80.5885 201.575 81.6598C201.463 82.7311 201.728 85.2655 202.422 83.4626Z" fill="url(#paint23_linear_1537_3932)"/>
<path d="M178.47 67.8047C177.749 67.9583 177.055 68.2992 176.523 68.8337C176.262 69.1057 176.059 69.4334 175.926 69.7889L175.838 70.0598L175.787 70.3403C175.75 70.5289 175.734 70.703 175.703 70.8844C175.44 72.3149 174.811 73.6812 173.876 74.7961C173.416 75.3583 172.879 75.8577 172.285 76.2773C171.694 76.7029 171.034 77.0149 170.367 77.3329C169.702 77.6485 169.028 77.9423 168.343 78.2131C167.661 78.49 166.967 78.7403 166.257 78.9386C167.703 78.6315 169.092 78.0934 170.446 77.507C171.122 77.2168 171.799 76.8891 172.414 76.4623C173.03 76.0379 173.588 75.5288 174.067 74.9545C175.013 73.7949 175.661 72.3922 175.891 70.9146C175.916 70.7321 175.929 70.5374 175.958 70.3633L175.998 70.0973L176.073 69.8397C176.188 69.5011 176.372 69.1868 176.611 68.9159C177.094 68.3742 177.765 68.0102 178.47 67.8047Z" fill="#F2FAF5"/>
<path d="M159.384 83.2788C158.784 84.1603 158.361 85.1603 158.088 86.1977C157.817 87.2376 157.738 88.3307 157.87 89.4044C158.027 90.4733 158.408 91.5108 158.995 92.4152C159.151 92.6353 159.296 92.8614 159.471 93.0658C159.557 93.1698 159.637 93.2762 159.726 93.3765L160.001 93.6703C160.18 93.8699 160.39 94.0367 160.583 94.2217C160.784 94.3971 160.998 94.5579 161.206 94.7223C160.414 94.0125 159.704 93.2133 159.158 92.3137C158.902 91.8554 158.652 91.3923 158.484 90.8941C158.311 90.3996 158.188 89.8893 158.117 89.3706C157.969 88.3331 158.047 87.2703 158.273 86.2425C158.384 85.7274 158.539 85.2207 158.725 84.7262C158.906 84.2292 159.126 83.7455 159.384 83.2788Z" fill="#F2FAF5"/>
<defs>
<linearGradient id="paint0_linear_1537_3932" x1="198.5" y1="107.168" x2="209.763" y2="107.168" gradientUnits="userSpaceOnUse">
<stop stop-color="#005624"/>
<stop offset="0.318535" stop-color="#005624"/>
<stop offset="1" stop-color="#009C41"/>
</linearGradient>
<linearGradient id="paint1_linear_1537_3932" x1="214.67" y1="120.965" x2="220.983" y2="120.965" gradientUnits="userSpaceOnUse">
<stop stop-color="#005624"/>
<stop offset="0.318535" stop-color="#005624"/>
<stop offset="1" stop-color="#009C41"/>
</linearGradient>
<linearGradient id="paint2_linear_1537_3932" x1="27.1924" y1="99.4642" x2="51.4783" y2="99.4642" gradientUnits="userSpaceOnUse">
<stop stop-color="#005624"/>
<stop offset="0.318535" stop-color="#005624"/>
<stop offset="1" stop-color="#009C41"/>
</linearGradient>
<linearGradient id="paint3_linear_1537_3932" x1="17.8701" y1="118.12" x2="40.5758" y2="118.12" gradientUnits="userSpaceOnUse">
<stop stop-color="#005624"/>
<stop offset="0.318535" stop-color="#005624"/>
<stop offset="1" stop-color="#009C41"/>
</linearGradient>
<linearGradient id="paint4_linear_1537_3932" x1="73.4614" y1="149.52" x2="79.9547" y2="149.52" gradientUnits="userSpaceOnUse">
<stop stop-color="#005624"/>
<stop offset="0.318535" stop-color="#005624"/>
<stop offset="1" stop-color="#009C41"/>
</linearGradient>
<linearGradient id="paint5_linear_1537_3932" x1="75.5909" y1="142.556" x2="76.8873" y2="153.87" gradientUnits="userSpaceOnUse">
<stop stop-color="#FF928E"/>
<stop offset="1" stop-color="#FEB3B1"/>
</linearGradient>
<linearGradient id="paint6_linear_1537_3932" x1="54.772" y1="149.666" x2="63.9108" y2="149.666" gradientUnits="userSpaceOnUse">
<stop stop-color="#005624"/>
<stop offset="0.318535" stop-color="#005624"/>
<stop offset="1" stop-color="#009C41"/>
</linearGradient>
<linearGradient id="paint7_linear_1537_3932" x1="61.9341" y1="144.004" x2="63.1468" y2="154.587" gradientUnits="userSpaceOnUse">
<stop stop-color="#FF928E"/>
<stop offset="1" stop-color="#FEB3B1"/>
</linearGradient>
<linearGradient id="paint8_linear_1537_3932" x1="77.9786" y1="132.04" x2="57.846" y2="133.733" gradientUnits="userSpaceOnUse">
<stop stop-color="#005624"/>
<stop offset="1" stop-color="#005624" stop-opacity="0"/>
</linearGradient>
<linearGradient id="paint9_linear_1537_3932" x1="70.9125" y1="62.9663" x2="71.9059" y2="76.5895" gradientUnits="userSpaceOnUse">
<stop stop-color="#FF928E"/>
<stop offset="1" stop-color="#FEB3B1"/>
</linearGradient>
<linearGradient id="paint10_linear_1537_3932" x1="73.2522" y1="100.497" x2="83.5979" y2="109.334" gradientUnits="userSpaceOnUse">
<stop stop-color="#FF928E"/>
<stop offset="1" stop-color="#FEB3B1"/>
</linearGradient>
<linearGradient id="paint11_linear_1537_3932" x1="46.3975" y1="68.7919" x2="46.8249" y2="75.7366" gradientUnits="userSpaceOnUse">
<stop stop-color="#FF928E"/>
<stop offset="1" stop-color="#FEB3B1"/>
</linearGradient>
<linearGradient id="paint12_linear_1537_3932" x1="76.111" y1="61.3668" x2="62.7715" y2="68.1784" gradientUnits="userSpaceOnUse">
<stop stop-color="#FF928E"/>
<stop offset="1" stop-color="#FEB3B1"/>
</linearGradient>
<linearGradient id="paint13_linear_1537_3932" x1="79.1201" y1="74.4166" x2="72.8463" y2="65.4896" gradientUnits="userSpaceOnUse">
<stop stop-color="#FF928E"/>
<stop offset="1" stop-color="#FEB3B1"/>
</linearGradient>
<linearGradient id="paint14_linear_1537_3932" x1="185.2" y1="75.8886" x2="198.77" y2="92.5711" gradientUnits="userSpaceOnUse">
<stop stop-color="#FF928E"/>
<stop offset="1" stop-color="#FEB3B1"/>
</linearGradient>
<linearGradient id="paint15_linear_1537_3932" x1="156.57" y1="70.5117" x2="175.133" y2="93.333" gradientUnits="userSpaceOnUse">
<stop stop-color="#FF928E"/>
<stop offset="1" stop-color="#FEB3B1"/>
</linearGradient>
<linearGradient id="paint16_linear_1537_3932" x1="182.879" y1="75.7474" x2="179.048" y2="89.0869" gradientUnits="userSpaceOnUse">
<stop stop-color="#FF928E"/>
<stop offset="1" stop-color="#FEB3B1"/>
</linearGradient>
<linearGradient id="paint17_linear_1537_3932" x1="181.735" y1="65.0393" x2="182.587" y2="78.6626" gradientUnits="userSpaceOnUse">
<stop stop-color="#FF928E"/>
<stop offset="1" stop-color="#FEB3B1"/>
</linearGradient>
<linearGradient id="paint18_linear_1537_3932" x1="183.92" y1="8.96145" x2="182.92" y2="22.575" gradientUnits="userSpaceOnUse">
<stop stop-color="#FF928E"/>
<stop offset="1" stop-color="#FEB3B1"/>
</linearGradient>
<linearGradient id="paint19_linear_1537_3932" x1="182.438" y1="134.905" x2="184.425" y2="156.901" gradientUnits="userSpaceOnUse">
<stop stop-color="#FF928E"/>
<stop offset="1" stop-color="#FEB3B1"/>
</linearGradient>
<linearGradient id="paint20_linear_1537_3932" x1="172.481" y1="149.818" x2="178.88" y2="149.818" gradientUnits="userSpaceOnUse">
<stop stop-color="#005624"/>
<stop offset="0.318535" stop-color="#005624"/>
<stop offset="1" stop-color="#009C41"/>
</linearGradient>
<linearGradient id="paint21_linear_1537_3932" x1="185.841" y1="120.967" x2="179.597" y2="145.659" gradientUnits="userSpaceOnUse">
<stop stop-color="#FF928E"/>
<stop offset="1" stop-color="#FEB3B1"/>
</linearGradient>
<linearGradient id="paint22_linear_1537_3932" x1="178.364" y1="151.119" x2="186.009" y2="151.119" gradientUnits="userSpaceOnUse">
<stop stop-color="#005624"/>
<stop offset="0.318535" stop-color="#005624"/>
<stop offset="1" stop-color="#009C41"/>
</linearGradient>
<linearGradient id="paint23_linear_1537_3932" x1="199.716" y1="77.8353" x2="203.81" y2="82.8681" gradientUnits="userSpaceOnUse">
<stop stop-color="#FF928E"/>
<stop offset="1" stop-color="#FEB3B1"/>
</linearGradient>
</defs>
</svg>
