<svg width="157" height="156" viewBox="0 0 157 156" fill="none" xmlns="http://www.w3.org/2000/svg">
<path d="M150.504 105.39C135.51 140.695 95.5694 160.473 60.9328 155.138C55.2971 154.27 39.8455 151.684 26.1655 139.484C-0.169762 115.999 -5.80161 69.4947 15.4422 36.7218C30.9037 12.8689 58.6204 -0.652493 84.9567 0.0242446C90.6294 0.170098 112.37 1.06757 131.476 16.8225C134.283 19.1366 140.472 24.6355 146.05 33.3588C159.149 53.8425 160.275 82.3818 150.504 105.39Z" fill="#B5D6CC"/>
<path opacity="0.3" d="M8.07653 20.5214C7.84909 19.8196 8.66721 19.2434 9.25845 19.6843C15.2619 24.1616 30.03 37.935 29.8121 64.9632C29.5388 98.8738 37.8938 110.287 47.4128 116.746C47.4128 116.746 35.1041 114.599 26.2032 103.066C4.34804 74.751 12.1185 32.9967 8.07653 20.5214Z" fill="#0D9545"/>
<path d="M13.3927 30.499C14.4947 34.1454 15.524 37.8118 16.4176 41.5101C17.3307 45.2034 18.1315 48.9224 18.815 52.6615C19.4844 56.4028 20.0835 60.1559 20.5222 63.9291C20.9776 67.7001 21.271 71.4861 21.5521 75.2883C21.8544 79.0872 22.1372 82.9158 22.8122 86.727C23.4828 90.5309 24.6184 94.3158 26.4116 97.7811C26.8598 98.6445 27.3253 99.5034 27.8366 100.326C28.3329 101.159 28.8666 101.969 29.4142 102.77C30.5179 104.367 31.7294 105.893 33.0488 107.322C35.6948 110.175 38.7734 112.622 42.0845 114.613C42.4332 114.822 42.8853 114.71 43.0948 114.361C43.3005 114.019 43.1954 113.577 42.8618 113.363L42.8596 113.361C42.0677 112.854 41.2831 112.338 40.5237 111.79C40.1397 111.521 39.7681 111.236 39.3915 110.959C39.026 110.667 38.6488 110.39 38.2928 110.087C36.8483 108.901 35.4886 107.615 34.2307 106.235C31.7043 103.49 29.5746 100.353 27.8556 97.0462C27.0146 95.3826 26.2976 93.6592 25.7153 91.8871C25.1347 90.1146 24.6893 88.2939 24.3473 86.447C23.6628 82.7509 23.3521 78.9637 23.0224 75.1676C22.6882 71.371 22.3261 67.5581 21.8075 63.7659C21.5532 61.8693 21.2654 59.9776 20.9435 58.0922C20.7882 57.1483 20.6144 56.2078 20.4423 55.2673C20.2612 54.3285 20.0751 53.3902 19.8812 52.4542C19.0988 48.7106 18.203 44.9927 17.1904 41.3084C16.1605 37.6291 15.0334 33.9783 13.7671 30.3766C13.7308 30.2738 13.6179 30.2196 13.515 30.2559C13.4161 30.2906 13.3625 30.3984 13.3927 30.499Z" fill="#0D9545"/>
<path opacity="0.5" d="M38.1447 117.688C37.924 119.028 36.4051 119.709 35.2489 118.994C28.8677 115.056 11.833 102.29 8.49065 76.6214C5.66802 54.9451 2.07757 43.4595 0.0864694 38.358C-0.334326 37.2795 0.866032 36.2904 1.84565 36.9079C12.6506 43.7239 46.1494 69.0996 38.1447 117.688Z" fill="#0D9545"/>
<path d="M36.3383 118.036C36.3143 118.059 36.2875 118.08 36.2578 118.099C36.0125 118.259 35.6834 118.19 35.5235 117.944C35.3425 117.666 17.3371 89.7645 12.0506 59.8025C11.9998 59.5142 12.1926 59.2392 12.4809 59.1878C12.7693 59.137 13.0448 59.3298 13.0956 59.6181C18.343 89.3622 36.2321 117.089 36.4121 117.366C36.554 117.582 36.5166 117.862 36.3383 118.036Z" fill="#0D9545"/>
<path d="M17.3271 94.8711C17.3271 94.8711 33.4582 137.414 38.5547 146.264C44.4704 156.538 61.7482 149.991 60.8882 141.393C60.0281 132.796 39.8422 97.259 39.8422 97.259L17.3271 94.8711Z" fill="#0D9545"/>
<path d="M39.1232 63.8809L139.384 29.1191L138.33 123.19L36.3833 100.443L39.1232 63.8809Z" fill="#FF7A00"/>
<path d="M139.478 124.771C144.919 124.771 149.329 103.127 149.329 76.4274C149.329 49.7281 144.919 28.084 139.478 28.084C134.038 28.084 129.628 49.7281 129.628 76.4274C129.628 103.127 134.038 124.771 139.478 124.771Z" fill="#0D9545"/>
<path d="M140.225 121.465C139.335 120.56 137.396 117.067 135.733 108.034C134.126 99.3055 133.241 87.9837 133.241 76.1545C133.241 64.3252 134.126 53.0034 135.733 44.2746C137.396 35.2423 139.335 31.749 140.225 30.8438C141.116 31.749 143.055 35.2423 144.718 44.2746C146.325 53.0034 147.21 64.3252 147.21 76.1545C147.21 87.9837 146.324 99.3055 144.718 108.034C143.055 117.067 141.116 120.559 140.225 121.465Z" fill="#FF7A00"/>
<path d="M152.851 75.795C152.851 84.0092 148.426 90.6682 139.668 90.6682C130.91 90.6682 123.811 84.0092 123.811 75.795C123.811 67.5808 130.91 60.9219 139.668 60.9219C148.426 60.9219 152.851 67.5808 152.851 75.795Z" fill="#0D9545"/>
<path d="M22.953 61.8584C27.6695 61.3107 34.4324 61.1134 41.7452 62.7882C39.3361 75.3736 39.6994 88.4909 42.4857 102.073H21.8605C18.5724 102.073 15.7682 99.6847 15.2552 96.4363C14.2275 89.9254 12.9707 78.9825 14.3108 70.1938C14.9836 65.7836 18.521 62.373 22.953 61.8584Z" fill="#0D9545"/>
<path d="M35.3308 71.4971H19.2618C18.7163 71.4971 18.2352 71.211 17.9742 70.7321C17.7138 70.2532 17.735 69.6932 18.0312 69.2355C18.1553 69.0439 18.4112 68.9902 18.6023 69.1132C18.794 69.2372 18.8488 69.4932 18.7247 69.6848C18.5956 69.8843 18.5861 70.128 18.6996 70.337C18.813 70.546 19.0231 70.6706 19.2612 70.6706H35.3308C35.6834 70.6706 35.9701 70.3839 35.9701 70.0319V68.8885C35.9701 68.5359 35.6834 68.2498 35.3308 68.2498H19.1422C18.9136 68.2498 18.7292 68.0648 18.7292 67.8368C18.7292 67.6088 18.9142 67.4238 19.1422 67.4238H35.3308C36.1389 67.4238 36.796 68.0816 36.796 68.8891V70.0324C36.7966 70.8399 36.1389 71.4971 35.3308 71.4971Z" fill="#0D9545"/>
<path d="M33.8978 78.6139H17.8282C17.2827 78.6139 16.8016 78.3278 16.5406 77.8488C16.2802 77.3699 16.3015 76.81 16.5976 76.3523C16.7217 76.1612 16.9776 76.107 17.1687 76.2299C17.3604 76.354 17.4152 76.6099 17.2911 76.8016C17.162 77.0011 17.1525 77.2447 17.266 77.4538C17.3794 77.6628 17.5895 77.7874 17.8276 77.7874H33.8972C34.2498 77.7874 34.5365 77.5007 34.5365 77.1486V76.0053C34.5365 75.6527 34.2498 75.366 33.8972 75.366H17.7091C17.4811 75.366 17.2962 75.181 17.2962 74.953C17.2962 74.725 17.4811 74.54 17.7091 74.54H33.8978C34.7058 74.54 35.363 75.1978 35.363 76.0058V77.1492C35.3636 77.9567 34.7058 78.6139 33.8978 78.6139Z" fill="#0D9545"/>
<path d="M53.6914 61.3344C53.5164 61.3344 53.3538 61.2221 53.2979 61.0466C53.2286 60.8293 53.3488 60.5968 53.5662 60.5275L129.502 36.3633C129.72 36.294 129.952 36.4147 130.021 36.6315C130.091 36.8489 129.971 37.0814 129.753 37.1507L53.8171 61.3149C53.7752 61.3283 53.7333 61.3344 53.6914 61.3344Z" fill="#0D9545"/>
<path d="M43.4235 65.5325C43.2609 65.5325 43.1061 65.4358 43.0407 65.2754C42.9541 65.0642 43.0558 64.8228 43.267 64.7367L47.1749 63.1391C47.3861 63.0519 47.6275 63.1541 47.7136 63.3654C47.7996 63.5766 47.6985 63.818 47.4873 63.9041L43.5794 65.5018C43.5285 65.523 43.4754 65.5325 43.4235 65.5325Z" fill="#0D9545"/>
<path d="M35.3308 86.9494H19.2618C18.7163 86.9494 18.2352 86.6633 17.9742 86.1844C17.7138 85.7055 17.735 85.1455 18.0312 84.6878C18.1553 84.4962 18.4112 84.4419 18.6023 84.5649C18.794 84.6889 18.8488 84.9449 18.7247 85.136C18.5956 85.3361 18.5861 85.5797 18.7001 85.7887C18.8136 85.9977 19.0237 86.1223 19.2612 86.1223H35.3308C35.6834 86.1223 35.9701 85.8357 35.9701 85.483V84.3397C35.9701 83.9871 35.6834 83.7009 35.3308 83.7009H19.1422C18.9136 83.7009 18.7292 83.516 18.7292 83.288C18.7292 83.06 18.9142 82.875 19.1422 82.875H35.3308C36.1389 82.875 36.796 83.5327 36.796 84.3402V85.4836C36.7966 86.2917 36.1389 86.9494 35.3308 86.9494Z" fill="#0D9545"/>
<path d="M36.8357 96.2008H20.7661C20.2207 96.2008 19.7396 95.9147 19.4786 95.4358C19.2182 94.9568 19.2394 94.3969 19.5356 93.9392C19.6597 93.7475 19.9156 93.6933 20.1067 93.8163C20.2984 93.9403 20.3532 94.1963 20.2291 94.3874C20.1 94.5875 20.0905 94.8311 20.2045 95.0401C20.318 95.2491 20.5281 95.3737 20.7656 95.3737H36.8352C37.1878 95.3737 37.4745 95.087 37.4745 94.735V93.5916C37.4745 93.239 37.1878 92.9529 36.8352 92.9529H20.6471C20.4191 92.9529 20.2341 92.7679 20.2341 92.5399C20.2341 92.3119 20.4191 92.127 20.6471 92.127H36.8357C37.6438 92.127 38.301 92.7847 38.301 93.5922V94.7355C38.301 95.5431 37.6438 96.2008 36.8357 96.2008Z" fill="#0D9545"/>
<path d="M51.1873 146.501C50.4469 146.501 49.6986 146.422 48.952 146.259C45.6851 145.547 43.0251 143.393 41.6549 140.348L28.8164 111.826C28.7225 111.618 28.8153 111.373 29.0237 111.279C29.2316 111.185 29.4764 111.279 29.5703 111.487L42.4087 140.009C43.6706 142.812 46.1199 144.795 49.1286 145.451C52.0854 146.096 55.0773 145.33 57.3383 143.352C57.4596 143.246 57.5814 143.137 57.7032 143.026C57.8715 142.872 58.133 142.883 58.2872 143.052C58.4409 143.22 58.4292 143.482 58.261 143.636C58.1341 143.751 58.0078 143.864 57.8826 143.974C55.9932 145.626 53.6356 146.501 51.1873 146.501Z" fill="#0D9545"/>
<path d="M27.2953 107.852C27.1377 107.852 26.9874 107.762 26.9181 107.609L25.4859 104.427C25.392 104.219 25.4847 103.974 25.6932 103.88C25.9011 103.787 26.1458 103.879 26.2397 104.087L27.672 107.269C27.7659 107.478 27.6731 107.722 27.4647 107.816C27.4099 107.84 27.3523 107.852 27.2953 107.852Z" fill="#0D9545"/>
<path d="M150.503 75.3659C150.288 75.3659 150.107 75.2 150.091 74.982C149.806 70.9573 148.411 67.9565 145.945 66.0637C141.681 62.7901 135.596 63.915 135.536 63.9273C135.31 63.9704 135.095 63.8239 135.052 63.5999C135.008 63.3758 135.155 63.1589 135.379 63.1159C135.643 63.0651 141.892 61.9111 146.448 65.4082C149.109 67.4513 150.612 70.6528 150.915 74.9233C150.931 75.1508 150.76 75.3486 150.532 75.3648C150.523 75.3659 150.513 75.3659 150.503 75.3659Z" fill="#0D9545"/>
<path d="M70.185 79.6438C70.1587 79.6338 56.0132 54.8622 54.102 52.5307C53.7801 52.1384 53.2827 51.9389 52.7792 51.9987L48.8311 52.4693L44.1929 62.5035L51.9203 58.0033C51.1558 63.2915 61.0823 71.1502 64.4866 74.0176C64.832 74.3087 64.8605 74.8301 64.5487 75.1565L63.1896 76.5792C65.421 78.8408 67.9961 80.2932 70.9019 80.9649L70.185 79.6438Z" fill="url(#paint0_linear_1537_3556)"/>
<path d="M63.9749 75.812C63.9749 75.812 63.1076 76.092 62.8136 76.8648C62.6734 77.2342 62.8248 77.6533 63.1462 77.8836C64.5745 78.9068 69.286 82.2106 71.4604 82.8577C71.6386 82.9108 71.8079 82.7493 71.7683 82.5677C71.6565 82.0625 71.2961 81.0538 70.1331 79.5774L70.2376 79.7886C70.3695 80.0557 70.0789 80.3335 69.8196 80.1871C68.365 79.3661 65.4027 77.5695 63.9749 75.812Z" fill="#0D9545"/>
<path d="M64.6753 85.7228C64.6519 85.7077 62.5294 80.5945 62.5054 80.5794C60.5596 68.7323 55.8118 58.5857 54.4119 55.9161C54.1761 55.4668 53.7296 55.1707 53.2239 55.1276L49.2624 54.7896L42.6895 63.6777L51.1674 60.8344C49.3484 65.8582 57.4793 75.5633 60.2327 79.0605C60.5121 79.4153 60.4344 79.9317 60.0628 80.1882L58.4439 81.3064C60.1712 83.9731 62.3992 85.9161 65.109 87.1623L64.6753 85.7228Z" fill="url(#paint1_linear_1537_3556)"/>
<path d="M59.3701 80.7139C59.3701 80.7139 58.4637 80.8128 58.02 81.5096C57.8076 81.8433 57.8713 82.2836 58.1396 82.5742C59.3315 83.8656 63.2769 88.0546 65.2747 89.1281C65.4384 89.2164 65.6373 89.0923 65.6345 88.9068C65.6273 88.3893 65.4781 87.3287 64.6382 85.6477L64.6974 85.8757C64.7728 86.1641 64.4314 86.3776 64.2073 86.1814C62.9494 85.0833 60.4123 82.724 59.3701 80.7139Z" fill="#0D9545"/>
<path d="M30.9926 53.4099C31.084 53.4071 31.1983 53.4037 31.3333 53.3998C31.716 53.3887 32.2645 53.3735 32.9279 53.3572C34.255 53.3248 36.0406 53.288 37.8763 53.2709C39.7131 53.2538 41.5952 53.2565 43.1169 53.3024C43.8783 53.3254 44.5434 53.3591 45.0648 53.4058C45.6094 53.4546 45.9345 53.5132 46.0615 53.5625L46.0617 53.5626C46.327 53.6655 46.6832 53.7298 47.0686 53.7736C47.4637 53.8186 47.9273 53.8458 48.4272 53.8603C49.4276 53.8893 50.6005 53.8678 51.7148 53.827C52.2256 53.8083 52.7254 53.7854 53.1926 53.7613C51.5051 54.5916 50.3765 55.3682 49.5991 56.3123C48.5095 57.6357 48.157 59.2333 47.7924 61.5214C47.7817 61.527 47.7706 61.5328 47.759 61.5388C47.5969 61.6232 47.349 61.7452 47.0151 61.8899C46.3472 62.1794 45.3349 62.5601 43.9756 62.9137C41.2578 63.6209 37.1479 64.2212 31.624 63.7646C29.7465 63.6094 28.619 63.3252 27.9906 62.864C27.695 62.647 27.5099 62.3899 27.4058 62.0683C27.2981 61.7355 27.2686 61.3061 27.337 60.7403C27.4011 60.2107 27.6537 59.4785 28.0268 58.6462C28.395 57.8248 28.8621 56.9458 29.3241 56.135C29.7856 55.3253 30.2384 54.5899 30.5762 54.0566C30.745 53.7902 30.8847 53.5746 30.9821 53.4259C30.9856 53.4205 30.9891 53.4151 30.9926 53.4099Z" fill="#0D9545" stroke="url(#paint2_linear_1537_3556)"/>
<path d="M45.0099 23.053C45.0099 23.053 42.5137 20.0996 39.8604 23.723C39.3798 24.3791 37.5334 23.8381 36.8572 25.2117C36.508 25.9209 35.753 26.3238 34.9757 26.1807C33.0393 25.8237 29.8741 25.7935 28.3111 28.8279C27.118 31.1442 28.039 32.4999 29.2315 33.2728C30.1072 33.8406 30.4201 34.9929 29.8904 35.892C29.3824 36.7548 29.2868 37.9228 30.5984 39.3282C33.5378 42.4783 39.3557 37.3293 39.3557 37.3293L43.9756 26.4132L45.0099 23.053Z" fill="#0D9545"/>
<path d="M40.4108 52.2124C40.4108 52.2124 44.5841 48.2385 46.6383 45.6065C47.7487 44.1837 48.0974 42.3105 47.5839 40.5804C46.6462 37.4202 44.9792 34.1478 44.8272 33.6381C44.5942 32.8574 39.9145 32.8898 39.9145 32.8898C39.9145 32.8898 30.7062 38.8659 27.0884 48.9896L31.1516 50.2548C31.1516 50.2548 33.5557 46.2212 35.9312 43.6567C35.9312 43.6567 31.8205 49.0868 31.6758 51.3099L40.4108 52.2124Z" fill="#FF7A00"/>
<path d="M48.3627 53.7806L45.2266 50.3689L41.6049 51.3441C41.6049 51.3441 37.3824 51.9985 34.966 51.3441C32.5497 50.6897 32.5497 50.6897 32.5497 50.6897L27.0888 48.9897L26.231 51.4139C26.0131 52.0292 26.2321 52.7126 26.7641 53.0904C27.2363 53.4263 27.7901 53.7951 28.1433 53.9493C28.8625 54.2639 44.7097 54.0488 44.7097 54.0488L48.3627 53.7806Z" fill="url(#paint3_linear_1537_3556)"/>
<path d="M43.1309 27.263L39.9858 33.1117C40.1937 34.3886 43.4092 34.4244 43.9054 33.6621C43.9563 33.5845 43.9848 33.4951 44.0044 33.404L45.8859 29.4961C45.967 29.115 44.922 27.8314 44.5783 27.6481L43.3282 26.9825C42.8465 26.7266 44.8549 26.7064 43.1309 27.263Z" fill="url(#paint4_linear_1537_3556)"/>
<path d="M49.4963 25.8904C49.4963 25.8904 49.8512 27.8664 48.2982 30.3783C46.7452 32.8908 45.1984 32.7774 44.4127 31.881C43.627 30.9852 42.6859 29.4926 43.114 26.9874C43.5426 24.4822 48.9598 23.3707 49.4963 25.8904Z" fill="url(#paint5_linear_1537_3556)"/>
<path d="M44.9944 27.26C44.9944 27.26 47.5092 23.9568 49.4399 26.8364L49.4075 27.8311C49.4075 27.8311 51.9183 27.7138 51.6461 25.3997C51.374 23.0856 49.3242 21.5047 46.4826 22.2954C43.641 23.0862 41.9807 23.9864 41.6599 25.9591C41.3392 27.9317 42.9497 27.6099 42.9497 27.6099C42.9497 27.6099 43.565 26.2486 44.3082 26.1558C45.0514 26.063 44.7827 27.1399 44.7827 27.1399L44.9944 27.26Z" fill="#0D9545"/>
<path d="M44.4175 27.1715C44.4175 27.1715 45.7201 25.4811 44.5343 25.1302C43.3484 24.7792 43.3926 26.7865 43.4702 27.5331L44.4175 27.1715Z" fill="url(#paint6_linear_1537_3556)"/>
<path d="M37.9818 55.1308C37.9929 55.1314 38.0035 55.1314 38.0147 55.1314L52.4386 55.1157C52.7951 55.1151 53.084 54.8262 53.0835 54.4697C53.0829 54.1132 52.7929 53.8181 52.4369 53.8248L38.0131 53.8405C37.6565 53.841 37.3676 54.1299 37.3682 54.4865C37.3693 54.8324 37.6409 55.114 37.9818 55.1308Z" fill="#FF7A00"/>
<path d="M65.4056 42.0347H53.393C52.5067 42.0347 51.7003 42.546 51.3226 43.3473L45.7695 55.1229H60.6974C61.2686 55.1229 61.7816 54.7742 61.9917 54.2428L66.298 43.3462C66.5461 42.717 66.0823 42.0347 65.4056 42.0347Z" fill="#FF7A00"/>
<path d="M56.9428 48.0724C56.6824 48.881 56.8746 49.6667 57.3725 49.8266C57.8699 49.9869 58.4846 49.4611 58.7444 48.6519C59.0049 47.8433 58.8126 47.0576 58.3147 46.8978C57.8174 46.7379 57.2032 47.2638 56.9428 48.0724Z" fill="#FF7A00"/>
<path d="M86.5454 112.475C95.3189 112.475 102.431 105.363 102.431 96.5894C102.431 87.8159 95.3189 80.7036 86.5454 80.7036C77.772 80.7036 70.6597 87.8159 70.6597 96.5894C70.6597 105.363 77.772 112.475 86.5454 112.475Z" fill="#005624"/>
<path d="M86.5452 111.947C95.0269 111.947 101.903 105.071 101.903 96.5896C101.903 88.1078 95.0269 81.2319 86.5452 81.2319C78.0634 81.2319 71.1875 88.1078 71.1875 96.5896C71.1875 105.071 78.0634 111.947 86.5452 111.947Z" fill="#0D9545"/>
<path d="M73.8812 90.5637C73.8275 90.5637 73.7733 90.5514 73.7225 90.5257C73.5481 90.438 73.4783 90.2251 73.5665 90.0513C76.055 85.1219 81.028 82.0601 86.5458 82.0601C87.4271 82.0601 88.3084 82.1394 89.1667 82.2959C89.3584 82.3311 89.4858 82.5149 89.4512 82.7072C89.416 82.8989 89.2343 83.0263 89.0399 82.9916C88.2234 82.843 87.3846 82.767 86.5458 82.767C81.2968 82.767 76.5652 85.6801 74.1975 90.3698C74.1349 90.4927 74.0103 90.5637 73.8812 90.5637Z" fill="#0D9545"/>
<path opacity="0.78" d="M96.0689 106.115C101.145 101.039 101.145 92.8093 96.0689 87.7332C90.9928 82.6571 82.7628 82.6571 77.6867 87.7332C72.6106 92.8093 72.6106 101.039 77.6867 106.115C82.7628 111.192 90.9928 111.192 96.0689 106.115Z" fill="white"/>
<path d="M85.6045 106.587V105.173C84.1303 105.114 82.6724 104.766 81.6363 104.313C81.2663 104.151 81.078 103.736 81.1842 103.347L81.5435 102.029C81.6754 101.546 82.2007 101.296 82.6629 101.49C83.69 101.92 84.9585 102.261 86.3265 102.261C87.7465 102.261 88.8055 101.78 88.8055 100.793C88.8055 99.9025 87.9873 99.3727 86.0136 98.8435C83.1976 98.0734 81.1764 96.8457 81.1764 94.3673C81.1764 92.1292 82.8132 90.4203 85.6526 89.9632V88.5488C85.6526 88.0939 86.0214 87.7251 86.4763 87.7251H87.3073C87.7621 87.7251 88.131 88.0939 88.131 88.5488V89.8185C89.4951 89.8732 90.4881 90.1063 91.276 90.3834C91.6795 90.5254 91.9002 90.9601 91.7885 91.3731L91.4582 92.5914C91.3308 93.0613 90.829 93.3184 90.3735 93.1463C89.6482 92.8719 88.6222 92.5863 87.2888 92.5863C85.6039 92.5863 85.1228 93.2843 85.1228 93.9102C85.1228 94.6802 86.1337 95.2095 88.3238 95.8834C91.4526 96.8222 92.7519 98.1215 92.7519 100.456C92.7519 102.598 91.1637 104.523 88.0829 105.005V106.587C88.0829 107.042 87.7141 107.411 87.2592 107.411H86.4282C85.9733 107.411 85.6045 107.042 85.6045 106.587Z" fill="#0D9545"/>
<path d="M102.395 120.206H70.6948C70.5221 120.206 70.3818 120.066 70.3818 119.893V114.962C70.3818 114.789 70.5221 114.649 70.6948 114.649H102.395C102.568 114.649 102.708 114.789 102.708 114.962V119.893C102.708 120.066 102.568 120.206 102.395 120.206Z" fill="#0D9545"/>
<path d="M72.2954 119.208H71.703C71.6796 119.208 71.6611 119.189 71.6611 119.167V115.688C71.6611 115.665 71.6801 115.646 71.703 115.646H72.2954C72.3189 115.646 72.3373 115.665 72.3373 115.688V119.167C72.3379 119.19 72.3189 119.208 72.2954 119.208Z" fill="#FF7A00"/>
<path d="M74.7192 119.208H74.1269C74.1034 119.208 74.085 119.189 74.085 119.167V115.688C74.085 115.665 74.104 115.646 74.1269 115.646H74.7192C74.7427 115.646 74.7611 115.665 74.7611 115.688V119.167C74.7617 119.19 74.7427 119.208 74.7192 119.208Z" fill="#FF7A00"/>
<path d="M77.1436 119.208H76.5512C76.5277 119.208 76.5093 119.189 76.5093 119.167V115.688C76.5093 115.665 76.5283 115.646 76.5512 115.646H77.1436C77.167 115.646 77.1855 115.665 77.1855 115.688V119.167C77.186 119.19 77.167 119.208 77.1436 119.208Z" fill="#FF7A00"/>
<path d="M79.5679 119.208H78.9755C78.952 119.208 78.9336 119.189 78.9336 119.167V115.688C78.9336 115.665 78.9526 115.646 78.9755 115.646H79.5679C79.5913 115.646 79.6098 115.665 79.6098 115.688V119.167C79.6103 119.19 79.5913 119.208 79.5679 119.208Z" fill="#FF7A00"/>
<path d="M81.9917 119.208H81.3993C81.3759 119.208 81.3574 119.189 81.3574 119.167V115.688C81.3574 115.665 81.3764 115.646 81.3993 115.646H81.9917C82.0152 115.646 82.0336 115.665 82.0336 115.688V119.167C82.0342 119.19 82.0152 119.208 81.9917 119.208Z" fill="#FF7A00"/>
<path d="M84.416 119.208H83.8237C83.8002 119.208 83.7817 119.189 83.7817 119.167V115.688C83.7817 115.665 83.8007 115.646 83.8237 115.646H84.416C84.4395 115.646 84.4579 115.665 84.4579 115.688V119.167C84.4585 119.19 84.4395 119.208 84.416 119.208Z" fill="#FF7A00"/>
<path d="M86.8408 119.208H86.2485C86.225 119.208 86.2065 119.189 86.2065 119.167V115.688C86.2065 115.665 86.2255 115.646 86.2485 115.646H86.8408C86.8643 115.646 86.8827 115.665 86.8827 115.688V119.167C86.8833 119.19 86.8643 119.208 86.8408 119.208Z" fill="#FF7A00"/>
<path d="M89.2651 119.208H88.6728C88.6493 119.208 88.6309 119.189 88.6309 119.167V115.688C88.6309 115.665 88.6499 115.646 88.6728 115.646H89.2651C89.2886 115.646 89.307 115.665 89.307 115.688V119.167C89.307 119.19 89.288 119.208 89.2651 119.208Z" fill="#FF7A00"/>
<path d="M91.689 119.208H91.0966C91.0731 119.208 91.0547 119.189 91.0547 119.167V115.688C91.0547 115.665 91.0737 115.646 91.0966 115.646H91.689C91.7124 115.646 91.7309 115.665 91.7309 115.688V119.167C91.7309 119.19 91.7119 119.208 91.689 119.208Z" fill="#FF7A00"/>
<path d="M94.1138 119.208H93.5214C93.4979 119.208 93.4795 119.189 93.4795 119.167V115.688C93.4795 115.665 93.4985 115.646 93.5214 115.646H94.1138C94.1372 115.646 94.1557 115.665 94.1557 115.688V119.167C94.1557 119.19 94.1367 119.208 94.1138 119.208Z" fill="#FF7A00"/>
<path d="M96.5376 119.208H95.9452C95.9218 119.208 95.9033 119.189 95.9033 119.167V115.688C95.9033 115.665 95.9223 115.646 95.9452 115.646H96.5376C96.5611 115.646 96.5795 115.665 96.5795 115.688V119.167C96.5795 119.19 96.5605 119.208 96.5376 119.208Z" fill="#FF7A00"/>
<path d="M98.9619 119.208H98.3695C98.3461 119.208 98.3276 119.189 98.3276 119.167V115.688C98.3276 115.665 98.3466 115.646 98.3695 115.646H98.9619C98.9854 115.646 99.0038 115.665 99.0038 115.688V119.167C99.0038 119.19 98.9848 119.208 98.9619 119.208Z" fill="#FF7A00"/>
<path d="M101.386 119.208H100.794C100.77 119.208 100.752 119.189 100.752 119.167V115.688C100.752 115.665 100.771 115.646 100.794 115.646H101.386C101.41 115.646 101.428 115.665 101.428 115.688V119.167C101.428 119.19 101.409 119.208 101.386 119.208Z" fill="#FF7A00"/>
<path d="M102.395 126.377H70.6948C70.5221 126.377 70.3818 126.237 70.3818 126.064V121.133C70.3818 120.96 70.5221 120.82 70.6948 120.82H102.395C102.568 120.82 102.708 120.96 102.708 121.133V126.064C102.708 126.237 102.568 126.377 102.395 126.377Z" fill="#0D9545"/>
<path d="M72.2954 125.381H71.703C71.6796 125.381 71.6611 125.362 71.6611 125.339V121.861C71.6611 121.837 71.6801 121.819 71.703 121.819H72.2954C72.3189 121.819 72.3373 121.838 72.3373 121.861V125.339C72.3379 125.362 72.3189 125.381 72.2954 125.381Z" fill="#FF7A00"/>
<path d="M74.7192 125.381H74.1269C74.1034 125.381 74.085 125.362 74.085 125.339V121.861C74.085 121.837 74.104 121.819 74.1269 121.819H74.7192C74.7427 121.819 74.7611 121.838 74.7611 121.861V125.339C74.7617 125.362 74.7427 125.381 74.7192 125.381Z" fill="#FF7A00"/>
<path d="M77.1436 125.381H76.5512C76.5277 125.381 76.5093 125.362 76.5093 125.339V121.861C76.5093 121.837 76.5283 121.819 76.5512 121.819H77.1436C77.167 121.819 77.1855 121.838 77.1855 121.861V125.339C77.186 125.362 77.167 125.381 77.1436 125.381Z" fill="#FF7A00"/>
<path d="M79.5679 125.381H78.9755C78.952 125.381 78.9336 125.362 78.9336 125.339V121.861C78.9336 121.837 78.9526 121.819 78.9755 121.819H79.5679C79.5913 121.819 79.6098 121.838 79.6098 121.861V125.339C79.6103 125.362 79.5913 125.381 79.5679 125.381Z" fill="#FF7A00"/>
<path d="M81.9917 125.381H81.3993C81.3759 125.381 81.3574 125.362 81.3574 125.339V121.861C81.3574 121.837 81.3764 121.819 81.3993 121.819H81.9917C82.0152 121.819 82.0336 121.838 82.0336 121.861V125.339C82.0342 125.362 82.0152 125.381 81.9917 125.381Z" fill="#FF7A00"/>
<path d="M84.416 125.381H83.8237C83.8002 125.381 83.7817 125.362 83.7817 125.339V121.861C83.7817 121.837 83.8007 121.819 83.8237 121.819H84.416C84.4395 121.819 84.4579 121.838 84.4579 121.861V125.339C84.4585 125.362 84.4395 125.381 84.416 125.381Z" fill="#FF7A00"/>
<path d="M86.8408 125.381H86.2485C86.225 125.381 86.2065 125.362 86.2065 125.339V121.861C86.2065 121.837 86.2255 121.819 86.2485 121.819H86.8408C86.8643 121.819 86.8827 121.838 86.8827 121.861V125.339C86.8833 125.362 86.8643 125.381 86.8408 125.381Z" fill="#FF7A00"/>
<path d="M89.2651 125.381H88.6728C88.6493 125.381 88.6309 125.362 88.6309 125.339V121.861C88.6309 121.837 88.6499 121.819 88.6728 121.819H89.2651C89.2886 121.819 89.307 121.838 89.307 121.861V125.339C89.307 125.362 89.288 125.381 89.2651 125.381Z" fill="#FF7A00"/>
<path d="M91.689 125.381H91.0966C91.0731 125.381 91.0547 125.362 91.0547 125.339V121.861C91.0547 121.837 91.0737 121.819 91.0966 121.819H91.689C91.7124 121.819 91.7309 121.838 91.7309 121.861V125.339C91.7309 125.362 91.7119 125.381 91.689 125.381Z" fill="#FF7A00"/>
<path d="M94.1138 125.381H93.5214C93.4979 125.381 93.4795 125.362 93.4795 125.339V121.861C93.4795 121.837 93.4985 121.819 93.5214 121.819H94.1138C94.1372 121.819 94.1557 121.838 94.1557 121.861V125.339C94.1557 125.362 94.1367 125.381 94.1138 125.381Z" fill="#FF7A00"/>
<path d="M96.5376 125.381H95.9452C95.9218 125.381 95.9033 125.362 95.9033 125.339V121.861C95.9033 121.837 95.9223 121.819 95.9452 121.819H96.5376C96.5611 121.819 96.5795 121.838 96.5795 121.861V125.339C96.5795 125.362 96.5605 125.381 96.5376 125.381Z" fill="#FF7A00"/>
<path d="M98.9619 125.381H98.3695C98.3461 125.381 98.3276 125.362 98.3276 125.339V121.861C98.3276 121.837 98.3466 121.819 98.3695 121.819H98.9619C98.9854 121.819 99.0038 121.838 99.0038 121.861V125.339C99.0038 125.362 98.9848 125.381 98.9619 125.381Z" fill="#FF7A00"/>
<path d="M101.386 125.381H100.794C100.77 125.381 100.752 125.362 100.752 125.339V121.861C100.752 121.837 100.771 121.819 100.794 121.819H101.386C101.41 121.819 101.428 121.838 101.428 121.861V125.339C101.428 125.362 101.409 125.381 101.386 125.381Z" fill="#FF7A00"/>
<path d="M102.395 132.549H70.6948C70.5221 132.549 70.3818 132.408 70.3818 132.236V127.305C70.3818 127.132 70.5221 126.992 70.6948 126.992H102.395C102.568 126.992 102.708 127.132 102.708 127.305V132.236C102.708 132.408 102.568 132.549 102.395 132.549Z" fill="#0D9545"/>
<path d="M72.2954 131.551H71.703C71.6796 131.551 71.6611 131.532 71.6611 131.509V128.031C71.6611 128.008 71.6801 127.989 71.703 127.989H72.2954C72.3189 127.989 72.3373 128.008 72.3373 128.031V131.509C72.3379 131.532 72.3189 131.551 72.2954 131.551Z" fill="#FF7A00"/>
<path d="M74.7192 131.551H74.1269C74.1034 131.551 74.085 131.532 74.085 131.509V128.031C74.085 128.008 74.104 127.989 74.1269 127.989H74.7192C74.7427 127.989 74.7611 128.008 74.7611 128.031V131.509C74.7617 131.532 74.7427 131.551 74.7192 131.551Z" fill="#FF7A00"/>
<path d="M77.1436 131.551H76.5512C76.5277 131.551 76.5093 131.532 76.5093 131.509V128.031C76.5093 128.008 76.5283 127.989 76.5512 127.989H77.1436C77.167 127.989 77.1855 128.008 77.1855 128.031V131.509C77.186 131.532 77.167 131.551 77.1436 131.551Z" fill="#FF7A00"/>
<path d="M79.5679 131.551H78.9755C78.952 131.551 78.9336 131.532 78.9336 131.509V128.031C78.9336 128.008 78.9526 127.989 78.9755 127.989H79.5679C79.5913 127.989 79.6098 128.008 79.6098 128.031V131.509C79.6103 131.532 79.5913 131.551 79.5679 131.551Z" fill="#FF7A00"/>
<path d="M81.9917 131.551H81.3993C81.3759 131.551 81.3574 131.532 81.3574 131.509V128.031C81.3574 128.008 81.3764 127.989 81.3993 127.989H81.9917C82.0152 127.989 82.0336 128.008 82.0336 128.031V131.509C82.0342 131.532 82.0152 131.551 81.9917 131.551Z" fill="#FF7A00"/>
<path d="M84.416 131.551H83.8237C83.8002 131.551 83.7817 131.532 83.7817 131.509V128.031C83.7817 128.008 83.8007 127.989 83.8237 127.989H84.416C84.4395 127.989 84.4579 128.008 84.4579 128.031V131.509C84.4585 131.532 84.4395 131.551 84.416 131.551Z" fill="#FF7A00"/>
<path d="M86.8408 131.551H86.2485C86.225 131.551 86.2065 131.532 86.2065 131.509V128.031C86.2065 128.008 86.2255 127.989 86.2485 127.989H86.8408C86.8643 127.989 86.8827 128.008 86.8827 128.031V131.509C86.8833 131.532 86.8643 131.551 86.8408 131.551Z" fill="#FF7A00"/>
<path d="M89.2651 131.551H88.6728C88.6493 131.551 88.6309 131.532 88.6309 131.509V128.031C88.6309 128.008 88.6499 127.989 88.6728 127.989H89.2651C89.2886 127.989 89.307 128.008 89.307 128.031V131.509C89.307 131.532 89.288 131.551 89.2651 131.551Z" fill="#FF7A00"/>
<path d="M91.689 131.551H91.0966C91.0731 131.551 91.0547 131.532 91.0547 131.509V128.031C91.0547 128.008 91.0737 127.989 91.0966 127.989H91.689C91.7124 127.989 91.7309 128.008 91.7309 128.031V131.509C91.7309 131.532 91.7119 131.551 91.689 131.551Z" fill="#FF7A00"/>
<path d="M94.1138 131.551H93.5214C93.4979 131.551 93.4795 131.532 93.4795 131.509V128.031C93.4795 128.008 93.4985 127.989 93.5214 127.989H94.1138C94.1372 127.989 94.1557 128.008 94.1557 128.031V131.509C94.1557 131.532 94.1367 131.551 94.1138 131.551Z" fill="#FF7A00"/>
<path d="M96.5376 131.551H95.9452C95.9218 131.551 95.9033 131.532 95.9033 131.509V128.031C95.9033 128.008 95.9223 127.989 95.9452 127.989H96.5376C96.5611 127.989 96.5795 128.008 96.5795 128.031V131.509C96.5795 131.532 96.5605 131.551 96.5376 131.551Z" fill="#FF7A00"/>
<path d="M98.9619 131.551H98.3695C98.3461 131.551 98.3276 131.532 98.3276 131.509V128.031C98.3276 128.008 98.3466 127.989 98.3695 127.989H98.9619C98.9854 127.989 99.0038 128.008 99.0038 128.031V131.509C99.0038 131.532 98.9848 131.551 98.9619 131.551Z" fill="#FF7A00"/>
<path d="M101.386 131.551H100.794C100.77 131.551 100.752 131.532 100.752 131.509V128.031C100.752 128.008 100.771 127.989 100.794 127.989H101.386C101.41 127.989 101.428 128.008 101.428 128.031V131.509C101.428 131.532 101.409 131.551 101.386 131.551Z" fill="#FF7A00"/>
<path d="M102.395 138.72H70.6948C70.5221 138.72 70.3818 138.579 70.3818 138.407V133.476C70.3818 133.303 70.5221 133.163 70.6948 133.163H102.395C102.568 133.163 102.708 133.303 102.708 133.476V138.407C102.708 138.58 102.568 138.72 102.395 138.72Z" fill="#0D9545"/>
<path d="M72.2954 137.722H71.703C71.6796 137.722 71.6611 137.703 71.6611 137.68V134.202C71.6611 134.179 71.6801 134.16 71.703 134.16H72.2954C72.3189 134.16 72.3373 134.179 72.3373 134.202V137.68C72.3379 137.703 72.3189 137.722 72.2954 137.722Z" fill="#FF7A00"/>
<path d="M74.7192 137.722H74.1269C74.1034 137.722 74.085 137.703 74.085 137.68V134.202C74.085 134.179 74.104 134.16 74.1269 134.16H74.7192C74.7427 134.16 74.7611 134.179 74.7611 134.202V137.68C74.7617 137.703 74.7427 137.722 74.7192 137.722Z" fill="#FF7A00"/>
<path d="M77.1436 137.722H76.5512C76.5277 137.722 76.5093 137.703 76.5093 137.68V134.202C76.5093 134.179 76.5283 134.16 76.5512 134.16H77.1436C77.167 134.16 77.1855 134.179 77.1855 134.202V137.68C77.186 137.703 77.167 137.722 77.1436 137.722Z" fill="#FF7A00"/>
<path d="M79.5679 137.722H78.9755C78.952 137.722 78.9336 137.703 78.9336 137.68V134.202C78.9336 134.179 78.9526 134.16 78.9755 134.16H79.5679C79.5913 134.16 79.6098 134.179 79.6098 134.202V137.68C79.6103 137.703 79.5913 137.722 79.5679 137.722Z" fill="#FF7A00"/>
<path d="M81.9917 137.722H81.3993C81.3759 137.722 81.3574 137.703 81.3574 137.68V134.202C81.3574 134.179 81.3764 134.16 81.3993 134.16H81.9917C82.0152 134.16 82.0336 134.179 82.0336 134.202V137.68C82.0342 137.703 82.0152 137.722 81.9917 137.722Z" fill="#FF7A00"/>
<path d="M84.416 137.722H83.8237C83.8002 137.722 83.7817 137.703 83.7817 137.68V134.202C83.7817 134.179 83.8007 134.16 83.8237 134.16H84.416C84.4395 134.16 84.4579 134.179 84.4579 134.202V137.68C84.4585 137.703 84.4395 137.722 84.416 137.722Z" fill="#FF7A00"/>
<path d="M86.8408 137.722H86.2485C86.225 137.722 86.2065 137.703 86.2065 137.68V134.202C86.2065 134.179 86.2255 134.16 86.2485 134.16H86.8408C86.8643 134.16 86.8827 134.179 86.8827 134.202V137.68C86.8833 137.703 86.8643 137.722 86.8408 137.722Z" fill="#FF7A00"/>
<path d="M89.2651 137.722H88.6728C88.6493 137.722 88.6309 137.703 88.6309 137.68V134.202C88.6309 134.179 88.6499 134.16 88.6728 134.16H89.2651C89.2886 134.16 89.307 134.179 89.307 134.202V137.68C89.307 137.703 89.288 137.722 89.2651 137.722Z" fill="#FF7A00"/>
<path d="M91.689 137.722H91.0966C91.0731 137.722 91.0547 137.703 91.0547 137.68V134.202C91.0547 134.179 91.0737 134.16 91.0966 134.16H91.689C91.7124 134.16 91.7309 134.179 91.7309 134.202V137.68C91.7309 137.703 91.7119 137.722 91.689 137.722Z" fill="#FF7A00"/>
<path d="M94.1138 137.722H93.5214C93.4979 137.722 93.4795 137.703 93.4795 137.68V134.202C93.4795 134.179 93.4985 134.16 93.5214 134.16H94.1138C94.1372 134.16 94.1557 134.179 94.1557 134.202V137.68C94.1557 137.703 94.1367 137.722 94.1138 137.722Z" fill="#FF7A00"/>
<path d="M96.5376 137.722H95.9452C95.9218 137.722 95.9033 137.703 95.9033 137.68V134.202C95.9033 134.179 95.9223 134.16 95.9452 134.16H96.5376C96.5611 134.16 96.5795 134.179 96.5795 134.202V137.68C96.5795 137.703 96.5605 137.722 96.5376 137.722Z" fill="#FF7A00"/>
<path d="M98.9619 137.722H98.3695C98.3461 137.722 98.3276 137.703 98.3276 137.68V134.202C98.3276 134.179 98.3466 134.16 98.3695 134.16H98.9619C98.9854 134.16 99.0038 134.179 99.0038 134.202V137.68C99.0038 137.703 98.9848 137.722 98.9619 137.722Z" fill="#FF7A00"/>
<path d="M101.386 137.722H100.794C100.77 137.722 100.752 137.703 100.752 137.68V134.202C100.752 134.179 100.771 134.16 100.794 134.16H101.386C101.41 134.16 101.428 134.179 101.428 134.202V137.68C101.428 137.703 101.409 137.722 101.386 137.722Z" fill="#FF7A00"/>
<path d="M102.395 144.891H70.6948C70.5221 144.891 70.3818 144.751 70.3818 144.578V139.647C70.3818 139.475 70.5221 139.334 70.6948 139.334H102.395C102.568 139.334 102.708 139.475 102.708 139.647V144.578C102.708 144.751 102.568 144.891 102.395 144.891Z" fill="#0D9545"/>
<path d="M72.2954 143.894H71.703C71.6796 143.894 71.6611 143.875 71.6611 143.852V140.374C71.6611 140.35 71.6801 140.332 71.703 140.332H72.2954C72.3189 140.332 72.3373 140.351 72.3373 140.374V143.852C72.3379 143.875 72.3189 143.894 72.2954 143.894Z" fill="#FF7A00"/>
<path d="M74.7192 143.894H74.1269C74.1034 143.894 74.085 143.875 74.085 143.852V140.374C74.085 140.35 74.104 140.332 74.1269 140.332H74.7192C74.7427 140.332 74.7611 140.351 74.7611 140.374V143.852C74.7617 143.875 74.7427 143.894 74.7192 143.894Z" fill="#FF7A00"/>
<path d="M77.1436 143.894H76.5512C76.5277 143.894 76.5093 143.875 76.5093 143.852V140.374C76.5093 140.35 76.5283 140.332 76.5512 140.332H77.1436C77.167 140.332 77.186 140.351 77.186 140.374V143.852C77.186 143.875 77.167 143.894 77.1436 143.894Z" fill="#FF7A00"/>
<path d="M79.5679 143.894H78.9755C78.952 143.894 78.9336 143.875 78.9336 143.852V140.374C78.9336 140.35 78.9526 140.332 78.9755 140.332H79.5679C79.5913 140.332 79.6098 140.351 79.6098 140.374V143.852C79.6103 143.875 79.5913 143.894 79.5679 143.894Z" fill="#FF7A00"/>
<path d="M81.9917 143.894H81.3993C81.3759 143.894 81.3574 143.875 81.3574 143.852V140.374C81.3574 140.35 81.3764 140.332 81.3993 140.332H81.9917C82.0152 140.332 82.0336 140.351 82.0336 140.374V143.852C82.0342 143.875 82.0152 143.894 81.9917 143.894Z" fill="#FF7A00"/>
<path d="M84.416 143.894H83.8237C83.8002 143.894 83.7817 143.875 83.7817 143.852V140.374C83.7817 140.35 83.8007 140.332 83.8237 140.332H84.416C84.4395 140.332 84.4579 140.351 84.4579 140.374V143.852C84.4585 143.875 84.4395 143.894 84.416 143.894Z" fill="#FF7A00"/>
<path d="M86.8408 143.894H86.2485C86.225 143.894 86.2065 143.875 86.2065 143.852V140.374C86.2065 140.35 86.2255 140.332 86.2485 140.332H86.8408C86.8643 140.332 86.8827 140.351 86.8827 140.374V143.852C86.8833 143.875 86.8643 143.894 86.8408 143.894Z" fill="#FF7A00"/>
<path d="M89.2651 143.894H88.6728C88.6493 143.894 88.6309 143.875 88.6309 143.852V140.374C88.6309 140.35 88.6499 140.332 88.6728 140.332H89.2651C89.2886 140.332 89.307 140.351 89.307 140.374V143.852C89.307 143.875 89.288 143.894 89.2651 143.894Z" fill="#FF7A00"/>
<path d="M91.689 143.894H91.0966C91.0731 143.894 91.0547 143.875 91.0547 143.852V140.374C91.0547 140.35 91.0737 140.332 91.0966 140.332H91.689C91.7124 140.332 91.7309 140.351 91.7309 140.374V143.852C91.7309 143.875 91.7119 143.894 91.689 143.894Z" fill="#FF7A00"/>
<path d="M94.1138 143.894H93.5214C93.4979 143.894 93.4795 143.875 93.4795 143.852V140.374C93.4795 140.35 93.4985 140.332 93.5214 140.332H94.1138C94.1372 140.332 94.1557 140.351 94.1557 140.374V143.852C94.1557 143.875 94.1367 143.894 94.1138 143.894Z" fill="#FF7A00"/>
<path d="M96.5376 143.894H95.9452C95.9218 143.894 95.9033 143.875 95.9033 143.852V140.374C95.9033 140.35 95.9223 140.332 95.9452 140.332H96.5376C96.5611 140.332 96.5795 140.351 96.5795 140.374V143.852C96.5795 143.875 96.5605 143.894 96.5376 143.894Z" fill="#FF7A00"/>
<path d="M98.9619 143.894H98.3695C98.3461 143.894 98.3276 143.875 98.3276 143.852V140.374C98.3276 140.35 98.3466 140.332 98.3695 140.332H98.9619C98.9854 140.332 99.0038 140.351 99.0038 140.374V143.852C99.0038 143.875 98.9848 143.894 98.9619 143.894Z" fill="#FF7A00"/>
<path d="M101.386 143.894H100.794C100.77 143.894 100.752 143.875 100.752 143.852V140.374C100.752 140.35 100.771 140.332 100.794 140.332H101.386C101.41 140.332 101.428 140.351 101.428 140.374V143.852C101.428 143.875 101.409 143.894 101.386 143.894Z" fill="#FF7A00"/>
<path d="M102.395 151.062H70.6948C70.5221 151.062 70.3818 150.922 70.3818 150.749V145.818C70.3818 145.646 70.5221 145.505 70.6948 145.505H102.395C102.568 145.505 102.708 145.646 102.708 145.818V150.749C102.708 150.922 102.568 151.062 102.395 151.062Z" fill="#0D9545"/>
<path d="M72.2954 150.065H71.703C71.6796 150.065 71.6611 150.046 71.6611 150.023V146.545C71.6611 146.521 71.6801 146.503 71.703 146.503H72.2954C72.3189 146.503 72.3373 146.522 72.3373 146.545V150.023C72.3379 150.046 72.3189 150.065 72.2954 150.065Z" fill="#FF7A00"/>
<path d="M74.7192 150.065H74.1269C74.1034 150.065 74.085 150.046 74.085 150.023V146.545C74.085 146.521 74.104 146.503 74.1269 146.503H74.7192C74.7427 146.503 74.7611 146.522 74.7611 146.545V150.023C74.7617 150.046 74.7427 150.065 74.7192 150.065Z" fill="#FF7A00"/>
<path d="M77.1436 150.065H76.5512C76.5277 150.065 76.5093 150.046 76.5093 150.023V146.545C76.5093 146.521 76.5283 146.503 76.5512 146.503H77.1436C77.167 146.503 77.1855 146.522 77.1855 146.545V150.023C77.186 150.046 77.167 150.065 77.1436 150.065Z" fill="#FF7A00"/>
<path d="M79.5679 150.065H78.9755C78.952 150.065 78.9336 150.046 78.9336 150.023V146.545C78.9336 146.521 78.9526 146.503 78.9755 146.503H79.5679C79.5913 146.503 79.6098 146.522 79.6098 146.545V150.023C79.6103 150.046 79.5913 150.065 79.5679 150.065Z" fill="#FF7A00"/>
<path d="M81.9917 150.065H81.3993C81.3759 150.065 81.3574 150.046 81.3574 150.023V146.545C81.3574 146.521 81.3764 146.503 81.3993 146.503H81.9917C82.0152 146.503 82.0336 146.522 82.0336 146.545V150.023C82.0342 150.046 82.0152 150.065 81.9917 150.065Z" fill="#FF7A00"/>
<path d="M84.416 150.065H83.8237C83.8002 150.065 83.7817 150.046 83.7817 150.023V146.545C83.7817 146.521 83.8007 146.503 83.8237 146.503H84.416C84.4395 146.503 84.4579 146.522 84.4579 146.545V150.023C84.4585 150.046 84.4395 150.065 84.416 150.065Z" fill="#FF7A00"/>
<path d="M86.8408 150.065H86.2485C86.225 150.065 86.2065 150.046 86.2065 150.023V146.545C86.2065 146.521 86.2255 146.503 86.2485 146.503H86.8408C86.8643 146.503 86.8827 146.522 86.8827 146.545V150.023C86.8833 150.046 86.8643 150.065 86.8408 150.065Z" fill="#FF7A00"/>
<path d="M89.2651 150.065H88.6728C88.6493 150.065 88.6309 150.046 88.6309 150.023V146.545C88.6309 146.521 88.6499 146.503 88.6728 146.503H89.2651C89.2886 146.503 89.307 146.522 89.307 146.545V150.023C89.307 150.046 89.288 150.065 89.2651 150.065Z" fill="#FF7A00"/>
<path d="M91.689 150.065H91.0966C91.0731 150.065 91.0547 150.046 91.0547 150.023V146.545C91.0547 146.521 91.0737 146.503 91.0966 146.503H91.689C91.7124 146.503 91.7309 146.522 91.7309 146.545V150.023C91.7309 150.046 91.7119 150.065 91.689 150.065Z" fill="#FF7A00"/>
<path d="M94.1138 150.065H93.5214C93.4979 150.065 93.4795 150.046 93.4795 150.023V146.545C93.4795 146.521 93.4985 146.503 93.5214 146.503H94.1138C94.1372 146.503 94.1557 146.522 94.1557 146.545V150.023C94.1557 150.046 94.1367 150.065 94.1138 150.065Z" fill="#FF7A00"/>
<path d="M96.5376 150.065H95.9452C95.9218 150.065 95.9033 150.046 95.9033 150.023V146.545C95.9033 146.521 95.9223 146.503 95.9452 146.503H96.5376C96.5611 146.503 96.5795 146.522 96.5795 146.545V150.023C96.5795 150.046 96.5605 150.065 96.5376 150.065Z" fill="#FF7A00"/>
<path d="M98.9619 150.065H98.3695C98.3461 150.065 98.3276 150.046 98.3276 150.023V146.545C98.3276 146.521 98.3466 146.503 98.3695 146.503H98.9619C98.9854 146.503 99.0038 146.522 99.0038 146.545V150.023C99.0038 150.046 98.9848 150.065 98.9619 150.065Z" fill="#FF7A00"/>
<path d="M101.386 150.065H100.794C100.77 150.065 100.752 150.046 100.752 150.023V146.545C100.752 146.521 100.771 146.503 100.794 146.503H101.386C101.41 146.503 101.428 146.522 101.428 146.545V150.023C101.428 150.046 101.409 150.065 101.386 150.065Z" fill="#FF7A00"/>
<defs>
<linearGradient id="paint0_linear_1537_3556" x1="73.5758" y1="58.8924" x2="51.2748" y2="71.6214" gradientUnits="userSpaceOnUse">
<stop stop-color="#FEBBBA"/>
<stop offset="1" stop-color="#FF928E"/>
</linearGradient>
<linearGradient id="paint1_linear_1537_3556" x1="71.4183" y1="62.0664" x2="147.721" y2="14.2996" gradientUnits="userSpaceOnUse">
<stop stop-color="#FEBBBA"/>
<stop offset="1" stop-color="#FF928E"/>
</linearGradient>
<linearGradient id="paint2_linear_1537_3556" x1="33.1108" y1="65.7458" x2="33.6138" y2="47.7796" gradientUnits="userSpaceOnUse">
<stop stop-color="#005624"/>
<stop offset="1" stop-opacity="0"/>
</linearGradient>
<linearGradient id="paint3_linear_1537_3556" x1="34.5164" y1="51.555" x2="12.3013" y2="51.555" gradientUnits="userSpaceOnUse">
<stop stop-color="#FEBBBA"/>
<stop offset="1" stop-color="#FF928E"/>
</linearGradient>
<linearGradient id="paint4_linear_1537_3556" x1="43.558" y1="40.9372" x2="43.0445" y2="32.9353" gradientUnits="userSpaceOnUse">
<stop stop-color="#FEBBBA"/>
<stop offset="1" stop-color="#FF928E"/>
</linearGradient>
<linearGradient id="paint5_linear_1537_3556" x1="42.8022" y1="34.1666" x2="52.4687" y2="15.6671" gradientUnits="userSpaceOnUse">
<stop stop-color="#FEBBBA"/>
<stop offset="1" stop-color="#FF928E"/>
</linearGradient>
<linearGradient id="paint6_linear_1537_3556" x1="40.5893" y1="33.01" x2="50.2558" y2="14.5107" gradientUnits="userSpaceOnUse">
<stop stop-color="#FEBBBA"/>
<stop offset="1" stop-color="#FF928E"/>
</linearGradient>
</defs>
</svg>
