<svg width="245" height="156" viewBox="0 0 245 156" fill="none" xmlns="http://www.w3.org/2000/svg">
<path opacity="0.2" d="M205.096 59.5702C191.922 52.7128 214.301 32.6873 195.033 20.1005C164.584 0.209717 138.69 23.4462 129.784 33.5133C113.334 52.1068 110.476 71.9157 64.8481 42.5031C19.2181 13.0905 2.31822 65.6161 16.1081 79.9896C29.898 94.3631 22.9677 94.6291 14.3371 119.618C5.70538 144.607 39.4512 162.294 68.7605 146.737C98.0698 131.181 94.0295 129.57 132.869 145.831C171.71 162.093 199.834 142.578 224.347 124.956C273.194 89.8424 218.27 66.4275 205.096 59.5702Z" fill="#0D9545"/>
<path d="M236.113 146.37C236.066 146.37 236.019 146.35 235.986 146.311C235.928 146.241 235.938 146.137 236.009 146.079C236.177 145.941 236.342 145.8 236.505 145.656C236.573 145.597 236.676 145.602 236.737 145.671C236.796 145.739 236.791 145.843 236.722 145.903C236.557 146.049 236.389 146.193 236.218 146.333C236.187 146.358 236.15 146.37 236.113 146.37Z" fill="#0D9545"/>
<path d="M223.818 151.027C223.729 151.027 223.656 150.958 223.654 150.868C223.651 150.777 223.721 150.701 223.812 150.699C224.231 150.684 224.655 150.657 225.074 150.615C225.164 150.605 225.244 150.673 225.253 150.764C225.262 150.855 225.196 150.934 225.105 150.943C224.68 150.985 224.249 151.013 223.823 151.027C223.822 151.027 223.82 151.027 223.818 151.027ZM221.748 150.991C221.745 150.991 221.74 150.991 221.737 150.991C221.312 150.962 220.881 150.92 220.459 150.864C220.369 150.851 220.305 150.769 220.317 150.679C220.329 150.59 220.408 150.526 220.501 150.538C220.917 150.593 221.341 150.635 221.76 150.664C221.85 150.67 221.919 150.748 221.912 150.839C221.905 150.925 221.834 150.991 221.748 150.991ZM227.138 150.638C227.061 150.638 226.993 150.584 226.977 150.507C226.959 150.418 227.016 150.33 227.106 150.312C227.516 150.229 227.93 150.133 228.337 150.024C228.426 150 228.515 150.052 228.538 150.141C228.562 150.228 228.51 150.318 228.422 150.342C228.009 150.453 227.588 150.552 227.17 150.636C227.159 150.637 227.148 150.638 227.138 150.638ZM218.442 150.491C218.43 150.491 218.416 150.49 218.404 150.486C217.99 150.389 217.572 150.275 217.164 150.152C217.077 150.125 217.028 150.034 217.054 149.947C217.079 149.86 217.172 149.811 217.259 149.837C217.661 149.959 218.072 150.07 218.479 150.167C218.568 150.188 218.622 150.277 218.601 150.364C218.584 150.44 218.517 150.491 218.442 150.491ZM230.35 149.711C230.284 149.711 230.221 149.67 230.196 149.605C230.163 149.52 230.206 149.426 230.291 149.393L230.401 149.351C230.757 149.214 231.113 149.064 231.46 148.908C231.543 148.871 231.639 148.908 231.677 148.99C231.714 149.073 231.679 149.17 231.596 149.208C231.243 149.367 230.882 149.518 230.52 149.657L230.409 149.7C230.389 149.708 230.369 149.711 230.35 149.711ZM215.264 149.458C215.242 149.458 215.221 149.454 215.2 149.446C214.806 149.281 214.412 149.103 214.03 148.914C213.948 148.874 213.916 148.775 213.955 148.694C213.995 148.612 214.093 148.58 214.175 148.619C214.551 148.804 214.938 148.98 215.325 149.142C215.409 149.177 215.449 149.273 215.414 149.357C215.389 149.42 215.328 149.458 215.264 149.458ZM233.369 148.278C233.312 148.278 233.257 148.249 233.226 148.196C233.18 148.117 233.207 148.016 233.286 147.971C233.649 147.76 234.011 147.536 234.359 147.304C234.435 147.253 234.536 147.273 234.587 147.35C234.637 147.425 234.617 147.527 234.54 147.577C234.186 147.813 233.819 148.042 233.45 148.255C233.425 148.27 233.397 148.278 233.369 148.278ZM212.295 147.923C212.266 147.923 212.236 147.915 212.207 147.898C211.845 147.672 211.486 147.431 211.14 147.183C211.066 147.131 211.049 147.027 211.102 146.954C211.155 146.88 211.257 146.864 211.331 146.916C211.671 147.16 212.025 147.397 212.381 147.62C212.459 147.668 212.481 147.769 212.433 147.847C212.404 147.895 212.35 147.923 212.295 147.923ZM209.617 145.925C209.579 145.925 209.54 145.912 209.508 145.884C209.188 145.602 208.873 145.306 208.572 145.005C208.508 144.941 208.508 144.837 208.572 144.773C208.636 144.709 208.741 144.709 208.805 144.773C209.101 145.069 209.411 145.36 209.725 145.638C209.793 145.699 209.8 145.802 209.74 145.87C209.708 145.906 209.662 145.925 209.617 145.925ZM207.303 143.517C207.255 143.517 207.208 143.497 207.175 143.456C206.907 143.126 206.644 142.783 206.396 142.436C206.343 142.362 206.36 142.26 206.434 142.207C206.508 142.154 206.611 142.171 206.663 142.245C206.908 142.588 207.165 142.925 207.429 143.25C207.486 143.32 207.476 143.424 207.405 143.481C207.376 143.506 207.34 143.517 207.303 143.517ZM205.415 140.76C205.358 140.76 205.303 140.73 205.273 140.677C205.062 140.307 204.86 139.925 204.672 139.543C204.633 139.461 204.667 139.363 204.747 139.323C204.829 139.282 204.927 139.316 204.967 139.398C205.153 139.775 205.351 140.151 205.559 140.515C205.604 140.593 205.576 140.694 205.497 140.739C205.471 140.754 205.443 140.76 205.415 140.76ZM204.002 137.732C203.936 137.732 203.873 137.691 203.848 137.625C203.699 137.223 203.561 136.813 203.439 136.407C203.413 136.321 203.461 136.228 203.549 136.202C203.635 136.175 203.727 136.224 203.754 136.312C203.875 136.711 204.011 137.115 204.157 137.51C204.189 137.595 204.145 137.69 204.061 137.721C204.042 137.729 204.021 137.732 204.002 137.732ZM203.098 134.514C203.02 134.514 202.952 134.459 202.936 134.381C202.855 133.965 202.786 133.537 202.73 133.113C202.717 133.023 202.781 132.94 202.871 132.929C202.961 132.918 203.044 132.981 203.055 133.07C203.11 133.489 203.178 133.909 203.258 134.318C203.275 134.407 203.218 134.493 203.128 134.511C203.119 134.514 203.108 134.514 203.098 134.514ZM202.732 131.192C202.643 131.192 202.57 131.121 202.568 131.032C202.563 130.848 202.56 130.664 202.56 130.48C202.56 130.235 202.565 129.988 202.574 129.747C202.577 129.658 202.65 129.589 202.737 129.589C202.74 129.589 202.742 129.589 202.743 129.589C202.834 129.592 202.905 129.669 202.901 129.759C202.892 129.996 202.888 130.239 202.888 130.48C202.888 130.661 202.89 130.842 202.896 131.023C202.898 131.114 202.826 131.189 202.736 131.192C202.735 131.192 202.733 131.192 202.732 131.192Z" fill="#0D9545"/>
<path d="M202.919 127.843C202.911 127.843 202.905 127.843 202.897 127.842C202.807 127.829 202.744 127.746 202.756 127.657C202.787 127.438 202.82 127.22 202.859 127.002C202.874 126.912 202.958 126.853 203.048 126.869C203.138 126.884 203.198 126.97 203.182 127.058C203.145 127.273 203.111 127.487 203.082 127.703C203.07 127.783 203 127.843 202.919 127.843Z" fill="#0D9545"/>
<path d="M210.977 114.25C210.927 114.25 210.878 114.226 210.845 114.183C210.791 114.11 210.807 114.007 210.88 113.953C211.057 113.822 211.237 113.694 211.419 113.567C211.493 113.516 211.596 113.535 211.647 113.609C211.699 113.684 211.68 113.786 211.606 113.838C211.426 113.961 211.25 114.088 211.076 114.217C211.046 114.238 211.011 114.25 210.977 114.25Z" fill="#0D9545"/>
<path d="M243.465 132.188C243.461 132.188 243.456 132.188 243.453 132.188C243.362 132.181 243.295 132.101 243.301 132.012C243.335 131.57 243.355 131.122 243.36 130.677C243.361 130.587 243.434 130.514 243.523 130.514C243.523 130.514 243.525 130.514 243.526 130.514C243.617 130.515 243.69 130.59 243.688 130.68C243.684 131.132 243.664 131.587 243.629 132.036C243.622 132.123 243.55 132.188 243.465 132.188ZM243.428 128.658C243.344 128.658 243.273 128.594 243.264 128.51C243.22 128.07 243.162 127.624 243.09 127.186C243.076 127.096 243.136 127.012 243.226 126.997C243.315 126.981 243.4 127.043 243.415 127.133C243.489 127.578 243.548 128.031 243.592 128.478C243.601 128.569 243.535 128.649 243.445 128.658C243.438 128.658 243.433 128.658 243.428 128.658ZM242.778 125.189C242.706 125.189 242.64 125.142 242.62 125.069C242.501 124.642 242.366 124.214 242.219 123.795C242.189 123.71 242.234 123.615 242.32 123.585C242.407 123.556 242.5 123.601 242.53 123.686C242.679 124.113 242.816 124.548 242.938 124.981C242.962 125.069 242.911 125.16 242.823 125.183C242.809 125.187 242.793 125.189 242.778 125.189ZM241.544 121.881C241.482 121.881 241.424 121.847 241.396 121.787C241.206 121.387 240.999 120.987 240.784 120.6C240.74 120.52 240.768 120.42 240.847 120.376C240.926 120.333 241.026 120.361 241.07 120.44C241.289 120.833 241.499 121.24 241.692 121.647C241.731 121.729 241.696 121.826 241.613 121.866C241.592 121.876 241.567 121.881 241.544 121.881ZM239.763 118.834C239.711 118.834 239.66 118.811 239.628 118.765C239.372 118.403 239.1 118.045 238.821 117.702C238.764 117.631 238.774 117.528 238.845 117.471C238.915 117.414 239.019 117.425 239.076 117.494C239.36 117.843 239.636 118.207 239.896 118.574C239.949 118.648 239.931 118.75 239.857 118.803C239.828 118.825 239.795 118.834 239.763 118.834ZM237.48 116.145C237.438 116.145 237.396 116.13 237.364 116.098C237.05 115.787 236.72 115.482 236.384 115.191C236.316 115.132 236.308 115.029 236.368 114.959C236.427 114.891 236.531 114.883 236.6 114.942C236.941 115.237 237.276 115.547 237.595 115.864C237.659 115.928 237.66 116.032 237.597 116.096C237.565 116.128 237.522 116.145 237.48 116.145ZM234.766 113.891C234.733 113.891 234.701 113.882 234.673 113.861C234.308 113.609 233.931 113.365 233.552 113.136C233.474 113.089 233.448 112.988 233.496 112.911C233.542 112.833 233.643 112.808 233.721 112.855C234.107 113.086 234.49 113.334 234.861 113.591C234.936 113.643 234.955 113.745 234.903 113.82C234.869 113.866 234.818 113.891 234.766 113.891ZM213.376 112.722C213.317 112.722 213.261 112.691 213.231 112.636C213.187 112.556 213.218 112.456 213.297 112.412C213.692 112.198 214.101 111.994 214.51 111.805C214.594 111.767 214.691 111.803 214.728 111.886C214.766 111.968 214.73 112.066 214.647 112.104C214.244 112.289 213.843 112.491 213.453 112.702C213.429 112.717 213.402 112.722 213.376 112.722ZM231.703 112.136C231.68 112.136 231.657 112.132 231.635 112.121C231.233 111.934 230.819 111.759 230.406 111.599C230.322 111.566 230.279 111.471 230.312 111.387C230.344 111.303 230.44 111.26 230.524 111.292C230.943 111.455 231.364 111.634 231.773 111.822C231.855 111.86 231.891 111.958 231.853 112.04C231.824 112.102 231.766 112.136 231.703 112.136ZM216.611 111.312C216.543 111.312 216.479 111.268 216.455 111.199C216.426 111.113 216.472 111.02 216.559 110.991C216.986 110.846 217.423 110.714 217.858 110.599C217.946 110.575 218.036 110.628 218.059 110.716C218.083 110.803 218.03 110.893 217.943 110.916C217.515 111.03 217.085 111.16 216.664 111.303C216.646 111.309 216.628 111.312 216.611 111.312ZM228.386 110.933C228.371 110.933 228.358 110.931 228.343 110.928C227.915 110.813 227.478 110.711 227.042 110.625C226.954 110.607 226.895 110.52 226.913 110.432C226.931 110.343 227.018 110.285 227.106 110.303C227.548 110.39 227.993 110.493 228.428 110.61C228.516 110.634 228.567 110.723 228.545 110.811C228.525 110.884 228.458 110.933 228.386 110.933ZM220.04 110.474C219.96 110.474 219.891 110.416 219.877 110.335C219.864 110.245 219.925 110.161 220.014 110.148C220.46 110.079 220.913 110.024 221.362 109.986C221.454 109.977 221.532 110.046 221.54 110.135C221.547 110.226 221.48 110.306 221.39 110.314C220.949 110.352 220.503 110.406 220.065 110.473C220.057 110.473 220.049 110.474 220.04 110.474ZM224.909 110.317C224.904 110.317 224.899 110.317 224.894 110.316C224.452 110.277 224.004 110.252 223.561 110.242C223.47 110.24 223.398 110.164 223.4 110.074C223.403 109.983 223.474 109.916 223.569 109.913C224.019 109.923 224.476 109.948 224.924 109.988C225.015 109.996 225.082 110.076 225.074 110.167C225.065 110.253 224.993 110.317 224.909 110.317Z" fill="#0D9545"/>
<path d="M243.046 135.013C243.035 135.013 243.023 135.012 243.011 135.009C242.922 134.99 242.866 134.902 242.886 134.813C242.933 134.601 242.976 134.387 243.016 134.174C243.033 134.084 243.118 134.026 243.208 134.043C243.298 134.06 243.356 134.145 243.339 134.235C243.299 134.451 243.254 134.668 243.207 134.884C243.19 134.96 243.123 135.013 243.046 135.013Z" fill="#0D9545"/>
<path d="M237.881 135.736C237.926 135.642 237.907 135.53 237.833 135.456L235.718 133.357C236.021 131.999 236.108 130.583 235.957 129.159L238.293 127.316C238.375 127.25 238.407 127.142 238.373 127.043L237.195 123.669C237.16 123.57 237.067 123.504 236.962 123.505L233.985 123.518C233.217 122.309 232.266 121.256 231.183 120.382L231.532 117.423C231.545 117.32 231.49 117.219 231.395 117.174L228.177 115.622C228.082 115.577 227.97 115.596 227.896 115.67L225.797 117.786C224.439 117.483 223.023 117.395 221.6 117.547L219.756 115.21C219.691 115.128 219.582 115.097 219.483 115.131L216.11 116.309C216.011 116.344 215.945 116.437 215.946 116.541L215.958 119.519C214.749 120.286 213.697 121.237 212.822 122.32L209.864 121.971C209.761 121.959 209.66 122.014 209.615 122.108L208.063 125.327C208.018 125.421 208.037 125.533 208.111 125.607L210.226 127.705C209.923 129.063 209.836 130.479 209.987 131.902L207.651 133.746C207.569 133.811 207.537 133.92 207.571 134.019L208.749 137.393C208.784 137.492 208.877 137.558 208.982 137.557L211.959 137.544C212.727 138.753 213.677 139.806 214.76 140.68L214.411 143.638C214.399 143.742 214.454 143.843 214.548 143.888L217.767 145.44C217.861 145.485 217.974 145.466 218.048 145.392L220.146 143.276C221.504 143.579 222.921 143.667 224.344 143.515L226.188 145.852C226.253 145.934 226.362 145.965 226.461 145.931L229.834 144.753C229.933 144.718 229.999 144.625 229.998 144.521L229.986 141.543C231.195 140.775 232.247 139.825 233.122 138.742L236.08 139.091C236.183 139.103 236.284 139.048 236.329 138.954L237.881 135.736Z" fill="#0D9545"/>
<path d="M222.978 133.867C221.893 133.867 220.829 133.34 220.187 132.369C219.695 131.625 219.524 130.734 219.703 129.861C219.882 128.987 220.39 128.235 221.134 127.745C221.878 127.253 222.769 127.082 223.643 127.261C224.516 127.44 225.268 127.948 225.758 128.692C226.772 130.229 226.347 132.303 224.811 133.316C224.246 133.689 223.609 133.867 222.978 133.867ZM222.967 127.521C222.384 127.521 221.813 127.69 221.316 128.019C220.645 128.461 220.187 129.139 220.025 129.927C219.864 130.714 220.019 131.517 220.462 132.188C221.375 133.573 223.245 133.956 224.63 133.042C226.015 132.129 226.398 130.259 225.484 128.874C225.042 128.203 224.364 127.745 223.577 127.583C223.373 127.541 223.169 127.521 222.967 127.521Z" fill="#0D9545"/>
<path d="M222.91 139.29C219.277 139.29 215.871 137.019 214.606 133.401C214.271 132.444 214.113 131.469 214.114 130.509C214.114 126.876 216.386 123.471 220.004 122.208C222.22 121.433 224.605 121.569 226.719 122.588C228.833 123.607 230.424 125.389 231.198 127.605C231.387 128.146 231.524 128.704 231.604 129.267C231.612 129.32 231.619 129.373 231.626 129.426C231.627 129.433 231.627 129.44 231.627 129.447C231.627 129.529 231.566 129.599 231.483 129.609C231.396 129.621 231.312 129.557 231.3 129.467C231.226 128.873 231.088 128.283 230.89 127.714C230.144 125.58 228.613 123.865 226.579 122.884C224.544 121.904 222.249 121.773 220.115 122.517C216.633 123.734 214.446 127.012 214.445 130.509C214.445 131.433 214.598 132.372 214.919 133.293C216.457 137.696 221.29 140.027 225.693 138.489C227.141 137.983 228.422 137.096 229.398 135.925C229.456 135.855 229.56 135.845 229.629 135.903C229.668 135.936 229.689 135.983 229.689 136.029C229.689 136.066 229.676 136.103 229.65 136.134C228.636 137.352 227.305 138.274 225.801 138.799C224.845 139.132 223.869 139.29 222.91 139.29Z" fill="#0D9545"/>
<path opacity="0.3" d="M0.177627 106.91C-0.194983 106.597 0.0620272 105.988 0.546868 106.029C5.47047 106.44 18.5432 108.993 27.8562 124.197C39.5406 143.272 48.2004 146.743 55.7828 147.036C55.7828 147.036 48.1443 150.131 39.1366 146.783C17.0202 138.564 6.79481 112.481 0.177627 106.91Z" fill="#0D9545"/>
<path d="M6.77481 110.421C7.7299 110.88 8.61092 111.438 9.47062 112.035L9.79497 112.256L10.1115 112.487L10.7444 112.951C11.1575 113.271 11.5682 113.594 11.9768 113.921C13.5918 115.248 15.1013 116.699 16.5457 118.209C18.007 119.706 19.3302 121.324 20.6466 122.947L21.5961 124.194L22.0709 124.817L22.3077 125.129L22.5344 125.449L24.3424 127.999C26.6926 131.382 29.3929 134.521 32.358 137.384C33.8328 138.824 35.3726 140.198 36.9741 141.496C37.3714 141.825 37.7788 142.139 38.1806 142.462C38.5869 142.779 38.9988 143.088 39.4095 143.398C39.8259 143.7 40.2401 144.008 40.6632 144.298C41.0807 144.596 41.5116 144.885 41.9314 145.155L41.9437 145.162C42.1693 145.307 42.2344 145.608 42.0896 145.834C41.9471 146.056 41.6519 146.122 41.4275 145.985C40.515 145.426 39.6609 144.836 38.808 144.222C38.386 143.912 37.964 143.601 37.5476 143.285C37.1357 142.962 36.7171 142.646 36.3108 142.317C34.6779 141.007 33.1167 139.609 31.615 138.15C30.8541 137.431 30.1358 136.669 29.4119 135.911C29.0539 135.528 28.7116 135.132 28.3615 134.743L27.8385 134.157C27.6634 133.963 27.5018 133.755 27.3334 133.555L26.3312 132.346C26.0012 131.939 25.6926 131.515 25.3716 131.101L24.8957 130.476C24.8172 130.371 24.7353 130.269 24.6601 130.162L24.4356 129.839L23.5377 128.55C23.2347 128.119 22.9485 127.692 22.6578 127.266L21.7869 125.984L21.5692 125.663L21.3402 125.35L20.8835 124.725L19.9688 123.474L19.0137 122.254C18.6927 121.849 18.3818 121.436 18.0429 121.046L17.0406 119.86C16.8768 119.66 16.7039 119.468 16.5311 119.276L16.0148 118.698C14.6333 117.163 13.1855 115.684 11.6311 114.323C11.2416 113.986 10.8488 113.65 10.4538 113.317L9.84884 112.834L9.54581 112.593L9.23493 112.362C9.0273 112.209 8.82304 112.051 8.61204 111.903L7.97569 111.462C7.54584 111.181 7.11039 110.891 6.66258 110.657L6.65697 110.653C6.593 110.62 6.56831 110.541 6.60198 110.477C6.63565 110.416 6.71196 110.391 6.77481 110.421Z" fill="#0D9545"/>
<path opacity="0.5" d="M13.8901 89.9223C15.9956 97.4642 30.0189 143.533 59.427 147.81C60.317 147.939 61.0319 147.083 60.7457 146.229C58.9242 140.8 52.1634 123.958 34.231 108.24C21.2929 96.8986 16.0495 91.5407 14.3233 89.6787C14.1415 89.4823 13.8183 89.663 13.8901 89.9223Z" fill="#0D9545"/>
<path d="M60.7526 146.509C60.6886 146.51 60.6235 146.49 60.5696 146.447C49.5036 137.56 39.9628 126.746 33.9079 119.239C27.4029 111.174 23.0708 104.629 23.0281 104.169C23.0135 104.015 23.1269 103.878 23.2818 103.863C23.4243 103.851 23.5534 103.948 23.5825 104.084C23.9664 105.084 39.9044 129.13 60.922 146.01C61.0432 146.106 61.0623 146.284 60.9647 146.404C60.9108 146.471 60.8322 146.507 60.7526 146.509ZM23.587 104.116C23.587 104.116 23.587 104.117 23.587 104.116C23.587 104.117 23.587 104.116 23.587 104.116Z" fill="#0D9545"/>
<path opacity="0.5" d="M190.286 71.9923C190.286 71.9923 203.519 70.0305 210.626 55.6245C217.534 41.6224 223.796 20.992 242.172 19.9539C242.79 19.9191 243.154 20.6396 242.758 21.1166C240.414 23.9336 234.64 31.3948 231.282 40.2263C226.995 51.4999 211.041 76.4401 190.286 71.9923Z" fill="#0D9545"/>
<path d="M237.137 24.7976L237.101 24.81L237.052 24.8279C237.019 24.8392 236.984 24.8526 236.95 24.8672C236.881 24.8942 236.811 24.9233 236.741 24.9536C236.602 25.0142 236.463 25.0771 236.325 25.1444C236.048 25.278 235.775 25.4228 235.506 25.5743C234.969 25.8784 234.447 26.2162 233.942 26.5776C233.436 26.9368 232.952 27.3285 232.482 27.7347C232.008 28.1377 231.561 28.572 231.126 29.0153C229.395 30.8065 227.963 32.8817 226.826 35.1072C226.258 36.2206 225.765 37.3732 225.334 38.5505L225.022 39.4371L224.74 40.335L224.456 41.2452C224.362 41.5505 224.266 41.8546 224.162 42.1565C223.356 44.5785 222.379 46.941 221.261 49.2316L220.837 50.0879L220.394 50.9353C220.25 51.2192 220.095 51.4976 219.941 51.7759C219.785 52.0542 219.638 52.3359 219.475 52.6098C218.847 53.7175 218.172 54.7994 217.476 55.8656C216.772 56.9273 216.029 57.961 215.258 58.9744C214.48 59.9823 213.666 60.9621 212.821 61.9138C211.969 62.8599 211.081 63.7723 210.159 64.6477C209.235 65.5232 208.26 66.3424 207.254 67.1191C206.249 67.8969 205.194 68.6106 204.102 69.2582C203.009 69.9047 201.876 70.4838 200.706 70.9709C201.864 70.4535 202.979 69.8486 204.052 69.1763C205.125 68.504 206.157 67.7678 207.136 66.9687C208.118 66.1719 209.063 65.3301 209.966 64.4457C210.866 63.558 211.73 62.6354 212.556 61.6803C213.377 60.7196 214.164 59.732 214.916 58.7174C215.662 57.6972 216.378 56.6568 217.057 55.5929C217.731 54.5256 218.383 53.4448 218.989 52.3382C219.145 52.0643 219.288 51.7826 219.438 51.5054C219.586 51.2271 219.736 50.9487 219.876 50.6659L220.301 49.8208L220.709 48.9667C221.782 46.6839 222.712 44.3349 223.473 41.9332C223.572 41.6346 223.661 41.3327 223.75 41.0308C223.841 40.7278 223.925 40.4304 224.021 40.1218L224.301 39.2026L224.613 38.2924C225.044 37.0848 225.541 35.8985 226.117 34.7492C226.693 33.6 227.343 32.4855 228.083 31.4305C228.823 30.3756 229.645 29.3767 230.542 28.4485C231.444 27.5237 232.421 26.6708 233.482 25.9289C234.011 25.5574 234.559 25.2106 235.128 24.8964C235.27 24.8156 235.415 24.7438 235.558 24.6663C235.705 24.5945 235.849 24.5204 235.999 24.4531C236.147 24.3835 236.298 24.3184 236.45 24.2556C236.527 24.2241 236.604 24.1938 236.683 24.1647C236.722 24.1501 236.761 24.1355 236.804 24.1209L236.867 24.0996L236.944 24.076C237.143 24.0165 237.351 24.1287 237.411 24.3274C237.469 24.5215 237.363 24.7269 237.171 24.7909L237.137 24.7976Z" fill="#0D9545"/>
<path opacity="0.3" d="M242.031 53.5158C242.357 53.3261 242.242 52.8289 241.867 52.7953C238.063 52.453 227.764 52.6572 218.648 62.9983C207.209 75.9722 200.15 77.4638 194.336 76.6771C194.336 76.6771 199.742 80.0507 207.05 78.7006C224.989 75.3842 236.25 56.8783 242.031 53.5158Z" fill="#0D9545"/>
<path d="M236.592 55.5061C236.219 55.625 235.85 55.7878 235.485 55.9438L234.942 56.1952C234.761 56.2805 234.585 56.3736 234.406 56.4623L234.138 56.597L233.876 56.7406L233.351 57.0279C233.006 57.2288 232.661 57.4331 232.32 57.6385C230.954 58.4679 229.655 59.4016 228.399 60.387L227.929 60.7585C227.772 60.882 227.614 61.0043 227.463 61.1356L226.545 61.9055C226.235 62.1569 225.943 62.4308 225.645 62.6968L224.755 63.4981L223.892 64.3297L223.461 64.745L223.245 64.9526L223.036 65.1681L222.203 66.0289C221.924 66.3162 221.649 66.6024 221.361 66.8897L220.505 67.7528L220.29 67.9683C220.218 68.0401 220.142 68.1063 220.069 68.1759L219.624 68.5889C219.324 68.8616 219.033 69.1433 218.727 69.4093L217.803 70.1983C217.648 70.3285 217.498 70.4643 217.338 70.5889L216.863 70.966C216.544 71.2151 216.231 71.4721 215.908 71.7157C215.255 72.196 214.607 72.6809 213.931 73.1276C212.593 74.0389 211.217 74.8952 209.8 75.6775C209.446 75.8739 209.086 76.0591 208.729 76.2498C208.369 76.4362 208.006 76.6157 207.644 76.7964C206.912 77.1511 206.183 77.4866 205.414 77.7908C205.221 77.8671 205.003 77.7728 204.927 77.5798C204.852 77.3901 204.943 77.1746 205.13 77.0961L205.14 77.0916C205.496 76.9423 205.863 76.7785 206.22 76.6079C206.581 76.4418 206.937 76.2633 207.294 76.0882C207.648 75.9075 208.003 75.7257 208.354 75.5383C208.703 75.3464 209.056 75.1601 209.403 74.9625C210.795 74.1882 212.151 73.3453 213.467 72.4441C216.106 70.6573 218.581 68.6271 220.821 66.3622L222.537 64.6608L222.753 64.4476L222.975 64.2422L223.419 63.8303L224.308 63.0076C225.527 61.947 226.75 60.8898 228.062 59.9437C229.363 58.9864 230.705 58.0818 232.113 57.2849C232.467 57.0908 232.823 56.8989 233.18 56.7103L233.723 56.441L233.995 56.3063L234.271 56.1806C235.005 55.8405 235.751 55.533 236.539 55.3108C236.593 55.2962 236.648 55.3265 236.664 55.3804C236.678 55.4331 236.649 55.487 236.597 55.5038L236.592 55.5061Z" fill="#0D9545"/>
<path d="M198.591 142.006C198.591 143.472 197.39 144.672 195.921 144.672H51.5662C50.0982 144.672 48.8962 143.472 48.8962 142.006L47.6953 59.0484C47.6953 57.5816 49.4237 54.7185 52.5909 54.9329L193.672 51.282C195.513 51.2349 197.295 51.943 198.6 53.2438C199.904 54.5446 200.618 56.3223 200.575 58.1629L198.591 142.006Z" fill="#0D9545"/>
<path d="M195.956 139.447C195.956 140.837 194.819 141.972 193.431 141.972H55.0469C53.6575 141.972 52.5217 140.835 52.5217 139.447L51.3882 64.1374C51.5217 59.6055 55.4947 57.977 57.9032 58.0724C57.9032 58.0724 168.171 55.114 193.116 54.4451C194.41 54.4103 195.661 54.9086 196.578 55.8233C197.495 56.738 197.999 57.9893 197.966 59.2834L195.956 139.447Z" fill="#FF7A00"/>
<path opacity="0.37" d="M54.0174 103.49C53.913 103.49 53.8289 103.406 53.8266 103.303L53.7368 97.195C53.7357 97.0895 53.8199 97.0031 53.9243 97.002C53.9254 97.002 53.9265 97.002 53.9276 97.002C54.032 97.002 54.1162 97.0861 54.1184 97.1894L54.2082 103.297C54.2093 103.403 54.1252 103.489 54.0208 103.49C54.0185 103.49 54.0185 103.49 54.0174 103.49Z" fill="white"/>
<path d="M53.7979 88.524C53.6935 88.524 53.6093 88.4399 53.6071 88.3366L53.2637 64.9453C53.2704 63.3875 53.7508 62.1417 54.6901 61.2416C56.4006 59.6031 59.0762 59.6861 59.1895 59.6895L102.37 58.5312C102.478 58.5346 102.563 58.6121 102.565 58.7164C102.568 58.8219 102.485 58.9095 102.38 58.9117L59.1884 60.0699C59.0672 60.0643 56.5476 59.988 54.9528 61.5155C54.0908 62.3415 53.6509 63.4941 53.6441 64.9419L53.9876 88.3299C53.9887 88.4354 53.9045 88.5218 53.8001 88.5229C53.8001 88.524 53.799 88.524 53.7979 88.524Z" fill="white"/>
<path opacity="0.37" d="M58.6177 135.269C58.7625 129.045 58.7086 73.9256 58.3517 69.1658C57.9948 64.4061 65.4088 63.5127 76.7914 62.9774C88.1739 62.442 184.213 60.3208 186.685 60.12C192.244 59.6688 193.394 67.9773 192.838 86.0129C192.42 99.5627 191.728 121.884 191.409 132.15C191.314 135.206 188.817 137.632 185.758 137.641C162.647 137.705 74.0709 137.958 68.1742 138.133C61.3876 138.334 58.5604 137.737 58.6177 135.269Z" fill="white"/>
<path d="M209.149 151.559H41.2643C40.6302 151.559 40.1128 151.04 40.1128 150.407V145.422C40.1128 144.788 40.6313 144.271 41.2643 144.271H209.151C209.785 144.271 210.302 144.789 210.302 145.422V150.407C210.302 151.04 209.784 151.559 209.149 151.559Z" fill="#0D9545"/>
<path opacity="0.57" d="M197.093 65.4643C196.944 65.4643 196.823 65.3442 196.821 65.1961C196.82 65.0468 196.94 64.9234 197.089 64.9222C197.338 64.92 197.591 64.9144 197.84 64.9054C197.992 64.8987 198.115 65.0165 198.121 65.1669C198.126 65.3162 198.009 65.4419 197.859 65.4475C197.604 65.4565 197.347 65.4632 197.094 65.4654C197.095 65.4643 197.094 65.4643 197.093 65.4643ZM196.334 65.461C196.333 65.461 196.331 65.461 196.329 65.461C196.073 65.4565 195.815 65.4486 195.563 65.4374C195.414 65.4307 195.297 65.3038 195.304 65.1546C195.31 65.0053 195.437 64.8852 195.586 64.8953C195.833 64.9065 196.086 64.9144 196.338 64.9189C196.488 64.9211 196.608 65.0446 196.604 65.195C196.602 65.3431 196.481 65.461 196.334 65.461ZM198.609 65.4093C198.467 65.4093 198.347 65.2994 198.338 65.1557C198.329 65.0064 198.443 64.8774 198.592 64.8684C198.84 64.8527 199.093 64.8336 199.342 64.81C199.491 64.7966 199.622 64.9065 199.636 65.0558C199.649 65.2051 199.539 65.3364 199.39 65.351C199.136 65.3734 198.879 65.3936 198.626 65.4093C198.621 65.4093 198.614 65.4093 198.609 65.4093ZM194.816 65.3936C194.81 65.3936 194.803 65.3936 194.796 65.3925C194.54 65.3745 194.283 65.3521 194.032 65.3274C193.883 65.3128 193.774 65.1793 193.788 65.0311C193.803 64.8818 193.935 64.773 194.085 64.7887C194.331 64.8134 194.583 64.8347 194.833 64.8527C194.983 64.8628 195.095 64.993 195.085 65.1422C195.077 65.2848 194.958 65.3936 194.816 65.3936ZM200.122 65.2713C199.986 65.2713 199.869 65.1703 199.852 65.0322C199.834 64.8841 199.941 64.7483 200.089 64.7315C200.341 64.7012 200.591 64.6686 200.834 64.6327C200.983 64.6114 201.121 64.7135 201.142 64.8616C201.163 65.0098 201.061 65.1478 200.913 65.1692C200.665 65.2051 200.409 65.2399 200.153 65.2702C200.143 65.2713 200.132 65.2713 200.122 65.2713ZM193.306 65.2444C193.295 65.2444 193.283 65.2432 193.271 65.2421C193.016 65.2096 192.762 65.1736 192.511 65.1355C192.363 65.1119 192.262 64.9739 192.285 64.8257C192.307 64.6776 192.446 64.5766 192.594 64.599C192.839 64.6372 193.089 64.672 193.338 64.7034C193.487 64.7225 193.592 64.8583 193.573 65.0064C193.557 65.1433 193.441 65.2444 193.306 65.2444ZM201.623 65.0524C201.494 65.0524 201.38 64.9593 201.356 64.828C201.33 64.6798 201.429 64.5395 201.576 64.5137C201.823 64.4711 202.071 64.4239 202.315 64.3746C202.462 64.3443 202.604 64.4397 202.635 64.5867C202.665 64.7337 202.569 64.8762 202.422 64.9065C202.173 64.957 201.921 65.0053 201.669 65.0491C201.655 65.0502 201.639 65.0524 201.623 65.0524ZM191.805 65.012C191.79 65.012 191.773 65.0109 191.756 65.0075C191.507 64.9615 191.253 64.9121 191.004 64.8594C190.857 64.828 190.764 64.6843 190.795 64.5384C190.827 64.3914 190.97 64.2982 191.116 64.3297C191.361 64.3813 191.609 64.4307 191.854 64.4756C192.001 64.5025 192.098 64.6439 192.071 64.7909C192.048 64.92 191.934 65.012 191.805 65.012ZM203.112 64.7505C202.988 64.7505 202.877 64.6652 202.848 64.5407C202.814 64.3948 202.905 64.2489 203.051 64.2152C203.293 64.1591 203.539 64.0985 203.78 64.0356C203.925 63.9975 204.073 64.085 204.112 64.2298C204.15 64.3746 204.062 64.5227 203.917 64.5609C203.67 64.6248 203.42 64.6866 203.173 64.7438C203.152 64.7483 203.132 64.7505 203.112 64.7505ZM190.32 64.6978C190.299 64.6978 190.278 64.6955 190.257 64.6899C190.008 64.6304 189.758 64.5665 189.514 64.5003C189.369 64.461 189.283 64.3128 189.323 64.168C189.362 64.0233 189.51 63.9369 189.655 63.9773C189.895 64.0424 190.14 64.1052 190.383 64.1636C190.529 64.1984 190.619 64.3454 190.583 64.4913C190.554 64.6136 190.443 64.6978 190.32 64.6978ZM204.581 64.3667C204.463 64.3667 204.355 64.2893 204.32 64.1714C204.279 64.0278 204.361 63.8774 204.505 63.8347C204.745 63.7651 204.986 63.6911 205.225 63.6147C205.367 63.5699 205.52 63.6473 205.566 63.7898C205.612 63.9324 205.534 64.085 205.391 64.131C205.149 64.2085 204.902 64.2848 204.658 64.3555C204.631 64.3633 204.605 64.3667 204.581 64.3667ZM188.855 64.3016C188.829 64.3016 188.803 64.2982 188.777 64.2904C188.533 64.2174 188.287 64.14 188.046 64.0603C187.903 64.0132 187.827 63.8594 187.873 63.718C187.92 63.5755 188.074 63.4991 188.215 63.5452C188.452 63.6237 188.693 63.6989 188.932 63.7708C189.076 63.8134 189.157 63.9649 189.114 64.1086C189.079 64.2253 188.971 64.3016 188.855 64.3016ZM206.026 63.9021C205.914 63.9021 205.81 63.8325 205.77 63.7202C205.721 63.5788 205.795 63.424 205.936 63.3746C206.171 63.2915 206.409 63.2051 206.642 63.1153C206.783 63.0614 206.939 63.1322 206.993 63.2713C207.046 63.4116 206.976 63.5676 206.837 63.6215C206.599 63.7124 206.356 63.801 206.117 63.8863C206.087 63.8976 206.057 63.9021 206.026 63.9021ZM187.41 63.8246C187.38 63.8246 187.349 63.819 187.318 63.8089C187.077 63.7214 186.835 63.6305 186.599 63.5373C186.46 63.4823 186.391 63.3252 186.446 63.186C186.501 63.0469 186.658 62.9784 186.798 63.0334C187.029 63.1243 187.267 63.2141 187.503 63.2994C187.645 63.3499 187.718 63.5059 187.666 63.6462C187.625 63.7562 187.521 63.8246 187.41 63.8246ZM207.441 63.36C207.335 63.36 207.234 63.2971 207.191 63.1928C207.134 63.0547 207.199 62.8953 207.338 62.8381C207.567 62.7427 207.798 62.6428 208.026 62.5418C208.163 62.4801 208.324 62.5418 208.384 62.6787C208.445 62.8157 208.384 62.9762 208.247 63.0368C208.015 63.1411 207.779 63.2421 207.546 63.3398C207.512 63.3532 207.476 63.36 207.441 63.36ZM185.993 63.268C185.957 63.268 185.921 63.2612 185.887 63.2466C185.651 63.1467 185.415 63.0412 185.184 62.9357C185.048 62.8729 184.987 62.7124 185.05 62.5766C185.113 62.4408 185.273 62.3802 185.409 62.443C185.635 62.5463 185.867 62.6496 186.098 62.7472C186.236 62.8056 186.3 62.9649 186.242 63.103C186.198 63.2062 186.098 63.268 185.993 63.268ZM208.824 62.7427C208.723 62.7427 208.627 62.6855 208.579 62.5889C208.514 62.4543 208.572 62.2915 208.706 62.2264C208.931 62.1187 209.156 62.0053 209.377 61.892C209.511 61.8235 209.674 61.8763 209.743 62.0087C209.812 62.1423 209.759 62.305 209.627 62.3735C209.401 62.4891 209.171 62.6047 208.942 62.7147C208.903 62.7337 208.863 62.7427 208.824 62.7427ZM184.609 62.6338C184.569 62.6338 184.528 62.6249 184.489 62.6058C184.258 62.4924 184.028 62.3746 183.804 62.2567C183.672 62.1872 183.621 62.0233 183.691 61.8897C183.761 61.7573 183.924 61.7068 184.057 61.7764C184.276 61.892 184.501 62.0065 184.728 62.1187C184.863 62.1849 184.918 62.3477 184.851 62.4823C184.805 62.5777 184.709 62.6338 184.609 62.6338ZM210.17 62.048C210.074 62.048 209.981 61.9975 209.932 61.9077C209.86 61.7764 209.907 61.6114 210.038 61.5396C210.256 61.4206 210.475 61.2949 210.691 61.1692C210.82 61.0929 210.986 61.1367 211.062 61.2657C211.138 61.3948 211.095 61.5609 210.966 61.6372C210.746 61.7663 210.522 61.8931 210.3 62.0154C210.26 62.0379 210.215 62.048 210.17 62.048ZM183.262 61.9245C183.217 61.9245 183.171 61.9133 183.13 61.8897C182.908 61.7652 182.684 61.635 182.465 61.5048C182.336 61.4274 182.295 61.2612 182.372 61.1322C182.449 61.0031 182.616 60.9616 182.744 61.039C182.958 61.167 183.177 61.2949 183.395 61.4172C183.525 61.4902 183.572 61.6563 183.498 61.7865C183.45 61.8752 183.358 61.9245 183.262 61.9245ZM211.477 61.2815C211.386 61.2815 211.299 61.2366 211.247 61.1535C211.168 61.0267 211.207 60.8595 211.334 60.7798C211.545 60.6485 211.757 60.5115 211.966 60.3735C212.09 60.2904 212.258 60.3252 212.341 60.4498C212.425 60.5744 212.39 60.7427 212.265 60.8258C212.053 60.9661 211.836 61.1053 211.621 61.2399C211.576 61.2691 211.527 61.2815 211.477 61.2815ZM181.958 61.1434C181.909 61.1434 181.858 61.1299 181.812 61.1008C181.599 60.965 181.383 60.8236 181.17 60.6799C181.046 60.5957 181.013 60.4274 181.097 60.3039C181.181 60.1793 181.35 60.1468 181.474 60.231C181.683 60.3724 181.895 60.5104 182.104 60.644C182.231 60.7248 182.268 60.892 182.187 61.0188C182.135 61.0996 182.048 61.1434 181.958 61.1434ZM212.741 60.4442C212.656 60.4442 212.572 60.4038 212.519 60.3286C212.432 60.2063 212.463 60.0368 212.585 59.9504C212.788 59.8079 212.992 59.6597 213.193 59.5104C213.313 59.4206 213.483 59.4453 213.573 59.5666C213.662 59.6866 213.637 59.8561 213.517 59.9459C213.312 60.0985 213.104 60.2489 212.896 60.3948C212.85 60.4285 212.795 60.4442 212.741 60.4442ZM180.699 60.2916C180.644 60.2916 180.589 60.2747 180.541 60.2411C180.334 60.0929 180.125 59.9392 179.923 59.7854C179.804 59.6945 179.781 59.525 179.872 59.4049C179.963 59.286 180.132 59.2624 180.252 59.3533C180.451 59.5037 180.655 59.6541 180.858 59.8C180.981 59.8875 181.008 60.057 180.921 60.1782C180.866 60.2523 180.783 60.2916 180.699 60.2916ZM213.958 59.5396C213.877 59.5396 213.798 59.5037 213.744 59.4364C213.651 59.3185 213.673 59.1479 213.789 59.0559C213.985 58.9021 214.181 58.7428 214.373 58.5834C214.488 58.488 214.659 58.5037 214.754 58.6182C214.85 58.7338 214.834 58.9044 214.72 58.9998C214.524 59.1625 214.323 59.3253 214.124 59.4824C214.075 59.5205 214.017 59.5396 213.958 59.5396ZM179.488 59.3735C179.428 59.3735 179.368 59.3544 179.318 59.314C179.122 59.1558 178.922 58.9919 178.727 58.8258C178.612 58.7293 178.599 58.5576 178.696 58.4431C178.792 58.3286 178.964 58.3152 179.078 58.4117C179.27 58.5744 179.465 58.736 179.658 58.8909C179.775 58.9852 179.794 59.1558 179.7 59.2725C179.646 59.3387 179.568 59.3735 179.488 59.3735ZM215.124 58.5688C215.049 58.5688 214.973 58.5374 214.919 58.4768C214.821 58.3646 214.832 58.1928 214.944 58.0941C215.132 57.9291 215.319 57.7596 215.502 57.5902C215.612 57.488 215.784 57.4948 215.886 57.6047C215.988 57.7147 215.981 57.8864 215.871 57.9874C215.685 58.1603 215.494 58.3331 215.302 58.5015C215.252 58.5464 215.188 58.5688 215.124 58.5688ZM178.331 58.3904C178.267 58.3904 178.202 58.3679 178.15 58.3208C177.96 58.1502 177.771 57.9762 177.587 57.8011C177.478 57.6979 177.473 57.5262 177.577 57.4173C177.68 57.3085 177.852 57.304 177.96 57.4072C178.141 57.5789 178.327 57.7495 178.514 57.9167C178.625 58.0166 178.635 58.1883 178.535 58.2995C178.479 58.3601 178.405 58.3904 178.331 58.3904ZM216.236 57.5363C216.165 57.5363 216.096 57.5093 216.042 57.4555C215.937 57.3489 215.938 57.1771 216.045 57.0716C216.224 56.8966 216.401 56.717 216.575 56.5385C216.679 56.4308 216.851 56.4274 216.959 56.5318C217.066 56.6362 217.07 56.8079 216.965 56.9156C216.789 57.0986 216.607 57.2815 216.426 57.46C216.373 57.5105 216.304 57.5363 216.236 57.5363ZM177.228 57.3466C177.158 57.3466 177.088 57.3197 177.036 57.2669C176.856 57.0874 176.676 56.9033 176.501 56.7181C176.398 56.6092 176.403 56.4375 176.512 56.3343C176.62 56.231 176.792 56.2355 176.895 56.3444C177.067 56.5262 177.244 56.7069 177.419 56.8831C177.525 56.9886 177.525 57.1603 177.419 57.2669C177.367 57.3197 177.297 57.3466 177.228 57.3466ZM217.291 56.4431C217.226 56.4431 217.16 56.4196 217.108 56.3724C216.998 56.2714 216.99 56.0997 217.091 55.9897C217.258 55.8068 217.427 55.6182 217.591 55.4274C217.688 55.3141 217.86 55.3017 217.973 55.3994C218.087 55.497 218.099 55.6687 218.001 55.7821C217.834 55.9763 217.662 56.1682 217.492 56.3556C217.437 56.414 217.364 56.4431 217.291 56.4431ZM176.185 56.2445C176.111 56.2445 176.037 56.2142 175.983 56.1547C175.813 55.965 175.644 55.7709 175.479 55.5778C175.382 55.4634 175.396 55.2928 175.51 55.1951C175.625 55.0986 175.795 55.1121 175.893 55.2266C176.054 55.4162 176.221 55.607 176.387 55.7922C176.487 55.9033 176.478 56.075 176.366 56.1749C176.314 56.2209 176.249 56.2445 176.185 56.2445ZM218.284 55.295C218.224 55.295 218.163 55.2748 218.112 55.2333C217.997 55.1379 217.98 54.9673 218.074 54.8517C218.233 54.6587 218.39 54.4611 218.542 54.2636C218.634 54.1446 218.804 54.1233 218.923 54.2153C219.042 54.3074 219.063 54.478 218.971 54.5958C218.815 54.7978 218.655 54.9998 218.493 55.1962C218.44 55.2613 218.363 55.295 218.284 55.295ZM175.203 55.0874C175.123 55.0874 175.045 55.0526 174.991 54.9864C174.833 54.7888 174.673 54.5857 174.519 54.3826C174.428 54.2636 174.452 54.093 174.571 54.0021C174.69 53.9112 174.861 53.9348 174.951 54.0537C175.103 54.2524 175.258 54.4522 175.414 54.6463C175.508 54.763 175.489 54.9336 175.372 55.0279C175.322 55.0683 175.262 55.0874 175.203 55.0874ZM219.215 54.093C219.158 54.093 219.103 54.0762 219.054 54.0403C218.933 53.9516 218.907 53.7821 218.996 53.6609C219.143 53.46 219.29 53.2535 219.431 53.0481C219.516 52.9247 219.685 52.8944 219.808 52.9786C219.932 53.0639 219.962 53.2322 219.878 53.3557C219.733 53.5655 219.583 53.7765 219.433 53.9808C219.381 54.0549 219.298 54.093 219.215 54.093ZM174.286 53.8786C174.202 53.8786 174.119 53.8394 174.065 53.7653C173.918 53.5599 173.77 53.3478 173.627 53.1368C173.543 53.0122 173.576 52.8439 173.7 52.7597C173.825 52.6755 173.993 52.7081 174.077 52.8326C174.217 53.0403 174.362 53.2468 174.506 53.4488C174.593 53.57 174.565 53.7406 174.443 53.827C174.396 53.8629 174.341 53.8786 174.286 53.8786ZM220.078 52.8428C220.027 52.8428 219.975 52.8282 219.929 52.799C219.804 52.717 219.768 52.5498 219.85 52.4241C219.986 52.2143 220.121 51.9999 220.252 51.7878C220.33 51.6598 220.496 51.6194 220.624 51.698C220.752 51.7766 220.793 51.9427 220.714 52.0706C220.582 52.2872 220.443 52.5061 220.304 52.7193C220.254 52.799 220.166 52.8428 220.078 52.8428ZM173.436 52.6228C173.347 52.6228 173.259 52.579 173.207 52.4971C173.07 52.2816 172.935 52.0627 172.804 51.8461C172.727 51.7182 172.77 51.551 172.898 51.4735C173.026 51.3961 173.193 51.4376 173.269 51.5667C173.397 51.7788 173.53 51.9943 173.664 52.2053C173.745 52.3321 173.708 52.4993 173.581 52.5801C173.536 52.6093 173.487 52.6228 173.436 52.6228ZM220.871 51.5454C220.825 51.5454 220.779 51.5341 220.736 51.5094C220.606 51.4342 220.561 51.2693 220.637 51.1391C220.761 50.9236 220.883 50.7025 221.002 50.4814C221.073 50.3501 221.238 50.2996 221.369 50.3714C221.501 50.4421 221.55 50.6071 221.479 50.7384C221.358 50.964 221.232 51.1896 221.106 51.4095C221.056 51.4971 220.965 51.5454 220.871 51.5454ZM172.657 51.3231C172.563 51.3231 172.471 51.2738 172.421 51.1851C172.296 50.964 172.173 50.7373 172.055 50.5128C171.985 50.3804 172.036 50.2165 172.168 50.1458C172.301 50.0762 172.464 50.1267 172.534 50.2592C172.65 50.4791 172.771 50.7002 172.893 50.918C172.966 51.0482 172.92 51.2143 172.79 51.2872C172.748 51.3119 172.702 51.3231 172.657 51.3231ZM221.594 50.2064C221.552 50.2064 221.511 50.1974 221.472 50.1772C221.338 50.1099 221.284 49.9472 221.351 49.8125C221.464 49.5892 221.575 49.3613 221.681 49.1346C221.745 48.9988 221.907 48.9416 222.042 49.0044C222.177 49.0684 222.236 49.23 222.172 49.3658C222.063 49.597 221.95 49.8293 221.835 50.0572C221.788 50.1526 221.693 50.2064 221.594 50.2064ZM171.95 49.9842C171.851 49.9842 171.754 49.9281 171.707 49.8327C171.595 49.6049 171.484 49.3725 171.378 49.1425C171.315 49.0067 171.375 48.8451 171.512 48.7833C171.647 48.7205 171.809 48.78 171.871 48.9169C171.974 49.1425 172.083 49.3703 172.193 49.5936C172.259 49.7283 172.204 49.8911 172.069 49.9573C172.032 49.9752 171.991 49.9842 171.95 49.9842ZM222.24 48.8293C222.204 48.8293 222.167 48.8215 222.131 48.8069C221.995 48.7474 221.932 48.5869 221.991 48.45C222.091 48.2211 222.19 47.9876 222.283 47.7553C222.339 47.6161 222.497 47.5499 222.636 47.606C222.776 47.6621 222.842 47.8204 222.786 47.9595C222.69 48.1964 222.589 48.4343 222.488 48.6677C222.445 48.7687 222.345 48.8293 222.24 48.8293ZM171.32 48.6083C171.214 48.6083 171.114 48.5465 171.071 48.4433C170.971 48.2098 170.873 47.9719 170.781 47.7362C170.726 47.597 170.794 47.4388 170.934 47.3849C171.073 47.3311 171.23 47.3984 171.285 47.5376C171.376 47.7688 171.471 48.0022 171.569 48.2311C171.627 48.3692 171.563 48.5286 171.425 48.5869C171.39 48.6004 171.354 48.6083 171.32 48.6083ZM222.812 47.4175C222.78 47.4175 222.749 47.4119 222.717 47.4006C222.577 47.3479 222.505 47.1919 222.558 47.0516C222.645 46.8159 222.731 46.5769 222.812 46.3412C222.86 46.1998 223.014 46.1234 223.156 46.1717C223.298 46.22 223.374 46.3737 223.326 46.5163C223.244 46.7564 223.157 47.0011 223.067 47.2413C223.025 47.3501 222.922 47.4175 222.812 47.4175ZM170.763 47.1975C170.652 47.1975 170.548 47.129 170.508 47.019C170.421 46.7789 170.337 46.5353 170.257 46.2952C170.21 46.1526 170.287 46 170.429 45.9528C170.57 45.9057 170.724 45.9832 170.771 46.1246C170.849 46.3602 170.932 46.5993 171.018 46.835C171.068 46.9753 170.996 47.1313 170.855 47.1829C170.825 47.193 170.794 47.1975 170.763 47.1975ZM223.303 45.9753C223.276 45.9753 223.249 45.9708 223.222 45.9629C223.08 45.9181 222.999 45.7665 223.044 45.624C223.118 45.3872 223.19 45.1437 223.257 44.9035C223.298 44.7598 223.448 44.6745 223.592 44.7161C223.736 44.7565 223.819 44.9057 223.779 45.0505C223.711 45.2963 223.636 45.5443 223.561 45.7856C223.525 45.9012 223.419 45.9753 223.303 45.9753ZM170.285 45.7564C170.168 45.7564 170.06 45.6812 170.026 45.5634C169.953 45.321 169.882 45.073 169.815 44.826C169.775 44.6813 169.861 44.532 170.005 44.4927C170.15 44.4534 170.299 44.5387 170.339 44.6835C170.405 44.9248 170.475 45.1683 170.545 45.4063C170.589 45.5499 170.507 45.7015 170.363 45.7441C170.338 45.7531 170.311 45.7564 170.285 45.7564ZM223.713 44.514C223.691 44.514 223.669 44.5118 223.647 44.5062C223.502 44.4703 223.413 44.3221 223.449 44.1773C223.51 43.9338 223.568 43.688 223.622 43.4456C223.654 43.2997 223.799 43.2065 223.945 43.2391C224.091 43.2716 224.184 43.4164 224.152 43.5623C224.097 43.8092 224.037 44.0606 223.975 44.3087C223.945 44.431 223.835 44.514 223.713 44.514ZM169.888 44.2918C169.765 44.2918 169.654 44.2088 169.624 44.0842C169.564 43.8362 169.507 43.5848 169.453 43.3367C169.422 43.1897 169.516 43.046 169.662 43.0146C169.808 42.9832 169.953 43.0775 169.984 43.2234C170.036 43.4669 170.092 43.7138 170.151 43.9562C170.186 44.1021 170.097 44.248 169.952 44.284C169.93 44.2885 169.909 44.2918 169.888 44.2918ZM224.042 43.0315C224.025 43.0315 224.007 43.0303 223.99 43.027C223.843 42.9989 223.746 42.8564 223.776 42.7094C223.823 42.4647 223.868 42.2155 223.908 41.9697C223.933 41.8216 224.072 41.7228 224.22 41.7464C224.368 41.7711 224.468 41.9103 224.443 42.0584C224.402 42.3098 224.357 42.5634 224.309 42.8137C224.283 42.9405 224.17 43.0315 224.042 43.0315ZM169.571 42.8059C169.443 42.8059 169.329 42.715 169.305 42.5837C169.259 42.3334 169.215 42.0786 169.176 41.8283C169.152 41.6802 169.255 41.5421 169.402 41.5186C169.55 41.4961 169.688 41.5971 169.711 41.7442C169.75 41.9911 169.792 42.2402 169.837 42.4849C169.864 42.6319 169.766 42.7733 169.619 42.8014C169.604 42.8047 169.587 42.8059 169.571 42.8059ZM224.289 41.5332C224.276 41.5332 224.264 41.532 224.252 41.5309C224.103 41.5107 223.999 41.3738 224.019 41.2256C224.053 40.9787 224.084 40.7273 224.111 40.4793C224.127 40.33 224.26 40.2234 224.41 40.2391C224.559 40.2548 224.667 40.3895 224.65 40.5377C224.623 40.7902 224.592 41.0461 224.557 41.2986C224.539 41.4344 224.422 41.5332 224.289 41.5332ZM169.337 41.3065C169.202 41.3065 169.085 41.2066 169.068 41.0696C169.036 40.816 169.007 40.5601 168.981 40.3076C168.966 40.1583 169.075 40.0259 169.223 40.0102C169.372 39.9945 169.505 40.1033 169.521 40.2526C169.545 40.5006 169.574 40.7509 169.606 40.9989C169.625 41.1471 169.519 41.2829 169.371 41.302C169.36 41.3053 169.348 41.3065 169.337 41.3065ZM224.452 40.0236C224.445 40.0236 224.438 40.0236 224.43 40.0225C224.281 40.0102 224.17 39.88 224.182 39.7307C224.202 39.4827 224.219 39.2302 224.232 38.981C224.24 38.8317 224.368 38.7161 224.517 38.7251C224.667 38.733 224.781 38.8609 224.773 39.0102C224.76 39.265 224.742 39.522 224.722 39.7745C224.712 39.9159 224.593 40.0236 224.452 40.0236ZM169.185 39.7958C169.044 39.7958 168.925 39.687 168.915 39.5444C168.897 39.2919 168.881 39.0349 168.869 38.779C168.862 38.6297 168.977 38.5029 169.127 38.4951C169.276 38.4883 169.403 38.6039 169.411 38.7532C169.422 39.0035 169.438 39.256 169.456 39.504C169.467 39.6533 169.355 39.7835 169.205 39.7947C169.198 39.7958 169.192 39.7958 169.185 39.7958ZM224.534 38.5074C224.532 38.5074 224.53 38.5074 224.526 38.5074C224.377 38.5029 224.258 38.3783 224.263 38.2291C224.269 37.981 224.273 37.7274 224.273 37.4771C224.273 37.4221 224.289 37.3716 224.317 37.329C224.289 37.2863 224.272 37.2358 224.271 37.1808C224.268 36.9317 224.262 36.6791 224.253 36.43C224.247 36.2807 224.364 36.1539 224.513 36.1483C224.665 36.1416 224.789 36.2594 224.795 36.4087C224.804 36.6623 224.81 36.9204 224.813 37.1741C224.814 37.2302 224.797 37.2818 224.769 37.3256C224.798 37.3682 224.815 37.4199 224.815 37.476C224.815 37.7308 224.812 37.9889 224.805 38.2425C224.801 38.3907 224.68 38.5074 224.534 38.5074ZM169.115 38.2784C168.968 38.2784 168.847 38.1606 168.844 38.0125C168.84 37.834 168.839 37.6556 168.839 37.4771C168.839 37.3997 168.839 37.3222 168.84 37.2459C168.842 37.0955 168.967 36.9709 169.114 36.9766C169.264 36.9777 169.385 37.1 169.384 37.2504C169.383 37.3256 169.383 37.4019 169.383 37.4771C169.383 37.6522 169.385 37.8273 169.387 38.0024C169.39 38.1516 169.27 38.2762 169.121 38.2784C169.119 38.2784 169.118 38.2784 169.115 38.2784ZM169.128 36.7599C169.124 36.7599 169.121 36.7599 169.118 36.7599C168.968 36.7543 168.851 36.6286 168.856 36.4794C168.865 36.2246 168.878 35.9676 168.893 35.714C168.902 35.5647 169.031 35.4502 169.181 35.4603C169.33 35.4693 169.443 35.5984 169.434 35.7476C169.418 35.9968 169.406 36.2493 169.398 36.4984C169.394 36.6455 169.274 36.7599 169.128 36.7599ZM224.486 35.9328C224.345 35.9328 224.225 35.8228 224.216 35.6792C224.2 35.4289 224.18 35.1775 224.157 34.9294C224.144 34.7802 224.254 34.6477 224.402 34.6343C224.552 34.6197 224.684 34.7308 224.697 34.8789C224.721 35.1315 224.741 35.3885 224.757 35.6432C224.767 35.7925 224.653 35.9216 224.503 35.9317C224.497 35.9328 224.492 35.9328 224.486 35.9328ZM169.223 35.2448C169.215 35.2448 169.207 35.2448 169.198 35.2437C169.049 35.2302 168.939 35.0989 168.953 34.9497C168.975 34.696 169.002 34.4401 169.031 34.1876C169.048 34.0383 169.183 33.9328 169.332 33.9497C169.481 33.9676 169.587 34.1023 169.57 34.2504C169.541 34.4985 169.515 34.7499 169.493 34.9979C169.48 35.1393 169.361 35.2448 169.223 35.2448ZM224.347 34.421C224.211 34.421 224.094 34.32 224.078 34.182C224.048 33.9351 224.015 33.6837 223.978 33.4368C223.955 33.2886 224.058 33.1506 224.207 33.1293C224.356 33.1079 224.493 33.2101 224.514 33.3582C224.551 33.6107 224.586 33.8655 224.615 34.118C224.633 34.2673 224.526 34.402 224.378 34.4199C224.368 34.421 224.357 34.421 224.347 34.421ZM169.399 33.7364C169.386 33.7364 169.374 33.7353 169.36 33.7342C169.212 33.7129 169.109 33.5748 169.131 33.4267C169.167 33.1753 169.209 32.9205 169.251 32.6691C169.277 32.521 169.417 32.4222 169.564 32.448C169.713 32.4738 169.811 32.6141 169.785 32.7611C169.743 33.008 169.704 33.2572 169.668 33.503C169.647 33.6399 169.532 33.7364 169.399 33.7364ZM224.125 32.9194C223.996 32.9194 223.881 32.8262 223.858 32.6949C223.815 32.4503 223.768 32.2011 223.717 31.9564C223.687 31.8094 223.782 31.6669 223.928 31.6366C224.074 31.6063 224.218 31.7017 224.248 31.8476C224.299 32.0978 224.347 32.3515 224.391 32.6006C224.416 32.7488 224.318 32.8891 224.171 32.9149C224.156 32.9183 224.14 32.9194 224.125 32.9194ZM169.659 32.2415C169.641 32.2415 169.623 32.2393 169.605 32.2359C169.458 32.2067 169.362 32.0631 169.393 31.916C169.443 31.668 169.497 31.4155 169.554 31.1663C169.588 31.0204 169.733 30.9295 169.88 30.9632C170.026 30.9969 170.117 31.1428 170.083 31.2887C170.027 31.5322 169.973 31.7802 169.925 32.0238C169.898 32.1517 169.784 32.2415 169.659 32.2415ZM223.822 31.4323C223.698 31.4323 223.587 31.3481 223.558 31.2224C223.502 30.9789 223.44 30.7342 223.377 30.4929C223.339 30.3482 223.425 30.2 223.57 30.1618C223.715 30.1237 223.863 30.2101 223.901 30.3549C223.965 30.6007 224.028 30.8509 224.085 31.099C224.119 31.2449 224.028 31.3908 223.883 31.4245C223.862 31.4301 223.842 31.4323 223.822 31.4323ZM169.999 30.7612C169.976 30.7612 169.953 30.7578 169.93 30.7522C169.785 30.714 169.698 30.567 169.736 30.4211C169.8 30.1753 169.869 29.9262 169.939 29.6815C169.981 29.5378 170.131 29.4548 170.275 29.4963C170.418 29.5378 170.502 29.6882 170.46 29.8319C170.39 30.0721 170.324 30.3156 170.261 30.5569C170.23 30.6804 170.12 30.7612 169.999 30.7612ZM223.436 29.9632C223.318 29.9632 223.21 29.8858 223.175 29.7679C223.106 29.5277 223.03 29.2864 222.954 29.0496C222.908 28.9071 222.987 28.7545 223.129 28.7084C223.272 28.6624 223.424 28.741 223.47 28.8835C223.548 29.1259 223.624 29.3717 223.696 29.6164C223.737 29.7601 223.656 29.9104 223.512 29.9531C223.487 29.9598 223.461 29.9632 223.436 29.9632ZM170.421 29.3033C170.394 29.3033 170.366 29.2988 170.338 29.2898C170.195 29.2438 170.117 29.0912 170.161 28.9486C170.239 28.7051 170.321 28.4604 170.406 28.2191C170.455 28.0777 170.61 28.0036 170.752 28.053C170.893 28.1024 170.967 28.2573 170.918 28.3987C170.835 28.6355 170.754 28.8757 170.679 29.1136C170.643 29.2292 170.536 29.3033 170.421 29.3033ZM222.97 28.5177C222.858 28.5177 222.753 28.4481 222.714 28.337C222.631 28.1024 222.543 27.8656 222.454 27.6321C222.4 27.4919 222.469 27.3359 222.61 27.282C222.75 27.2281 222.906 27.2977 222.96 27.438C223.052 27.6759 223.14 27.9183 223.225 28.1574C223.274 28.2988 223.2 28.4537 223.06 28.5031C223.03 28.5132 223 28.5177 222.97 28.5177ZM170.925 27.8656C170.892 27.8656 170.86 27.86 170.828 27.8476C170.688 27.7938 170.618 27.6378 170.671 27.4975C170.762 27.2595 170.857 27.0194 170.955 26.7826C171.012 26.6445 171.17 26.5783 171.31 26.6355C171.448 26.6928 171.514 26.851 171.457 26.9902C171.361 27.2225 171.267 27.4582 171.178 27.6905C171.137 27.7982 171.033 27.8656 170.925 27.8656ZM222.427 27.1035C222.32 27.1035 222.219 27.0407 222.176 26.9363C222.081 26.7062 221.981 26.475 221.879 26.2483C221.817 26.1114 221.879 25.9509 222.015 25.8903C222.152 25.8297 222.312 25.8903 222.373 26.0272C222.476 26.2584 222.578 26.4941 222.676 26.7287C222.733 26.8667 222.668 27.0261 222.53 27.0833C222.496 27.0968 222.461 27.1035 222.427 27.1035ZM171.507 26.4582C171.47 26.4582 171.433 26.4503 171.397 26.4346C171.26 26.374 171.198 26.2135 171.26 26.0766C171.365 25.8432 171.473 25.6086 171.583 25.3797C171.649 25.245 171.81 25.1877 171.945 25.2528C172.079 25.3179 172.137 25.4795 172.072 25.6142C171.964 25.8398 171.857 26.0699 171.755 26.2977C171.709 26.3987 171.61 26.4582 171.507 26.4582ZM221.807 25.7231C221.706 25.7231 221.61 25.667 221.562 25.5693C221.455 25.3449 221.341 25.1193 221.228 24.8982C221.16 24.7646 221.211 24.6019 221.345 24.5323C221.478 24.4627 221.641 24.5155 221.711 24.649C221.827 24.8746 221.942 25.1047 222.052 25.3336C222.117 25.4683 222.06 25.6311 221.925 25.6961C221.887 25.7141 221.846 25.7231 221.807 25.7231ZM172.166 25.0867C172.124 25.0867 172.082 25.0766 172.042 25.0564C171.909 24.988 171.857 24.8241 171.926 24.6917C172.042 24.465 172.164 24.2371 172.286 24.0138C172.358 23.8825 172.523 23.8353 172.654 23.9072C172.785 23.979 172.834 24.144 172.761 24.2753C172.641 24.4941 172.522 24.7175 172.407 24.9408C172.359 25.0329 172.264 25.0867 172.166 25.0867ZM221.111 24.3763C221.016 24.3763 220.923 24.3258 220.873 24.236C220.754 24.0194 220.629 23.8006 220.502 23.5839C220.426 23.4549 220.469 23.2888 220.598 23.2125C220.727 23.1373 220.894 23.1799 220.97 23.309C221.099 23.529 221.227 23.7523 221.349 23.9734C221.421 24.1047 221.374 24.2697 221.243 24.3415C221.201 24.3662 221.156 24.3763 221.111 24.3763ZM172.898 23.7534C172.851 23.7534 172.803 23.7411 172.761 23.7164C172.632 23.6401 172.588 23.474 172.664 23.3449C172.793 23.1249 172.927 22.9049 173.062 22.6883C173.141 22.5615 173.308 22.5222 173.435 22.6019C173.562 22.6816 173.601 22.8488 173.522 22.9757C173.389 23.1878 173.258 23.4044 173.132 23.6199C173.082 23.7052 172.991 23.7534 172.898 23.7534ZM220.344 23.071C220.253 23.071 220.165 23.0262 220.114 22.9442C219.981 22.7321 219.844 22.52 219.707 22.3135C219.624 22.1889 219.658 22.0206 219.784 21.9375C219.908 21.8545 220.076 21.8881 220.16 22.0138C220.3 22.2248 220.439 22.4414 220.575 22.6569C220.654 22.7837 220.615 22.951 220.488 23.0306C220.442 23.0576 220.393 23.071 220.344 23.071ZM173.702 22.4639C173.651 22.4639 173.599 22.4493 173.553 22.419C173.429 22.3359 173.394 22.1676 173.477 22.043C173.618 21.8298 173.763 21.6165 173.909 21.4089C173.995 21.2866 174.165 21.2563 174.287 21.3427C174.409 21.4291 174.44 21.5974 174.353 21.7209C174.21 21.9252 174.067 22.1339 173.929 22.3427C173.877 22.4212 173.791 22.4639 173.702 22.4639ZM219.505 21.8073C219.42 21.8073 219.336 21.7669 219.283 21.6928C219.139 21.4886 218.99 21.2843 218.842 21.0845C218.752 20.9645 218.777 20.795 218.897 20.7052C219.017 20.6154 219.186 20.6401 219.276 20.7602C219.428 20.9633 219.578 21.1721 219.725 21.3797C219.812 21.5021 219.782 21.6715 219.66 21.7579C219.613 21.7916 219.559 21.8073 219.505 21.8073ZM174.577 21.2192C174.521 21.2192 174.463 21.2013 174.415 21.1654C174.295 21.0756 174.27 20.9061 174.359 20.786C174.51 20.5818 174.668 20.3764 174.826 20.1766C174.919 20.0588 175.09 20.0385 175.206 20.1317C175.324 20.2249 175.344 20.3943 175.251 20.5122C175.096 20.7086 174.943 20.9095 174.794 21.1092C174.74 21.1822 174.66 21.2192 174.577 21.2192ZM218.597 20.5919C218.518 20.5919 218.438 20.5559 218.384 20.4886C218.228 20.2922 218.07 20.0958 217.91 19.905C217.814 19.7905 217.83 19.6188 217.945 19.5234C218.061 19.4269 218.231 19.4426 218.327 19.5582C218.488 19.7524 218.651 19.9521 218.809 20.153C218.903 20.2709 218.882 20.4415 218.764 20.5335C218.716 20.5728 218.657 20.5919 218.597 20.5919ZM175.516 20.0262C175.454 20.0262 175.394 20.006 175.343 19.9634C175.228 19.868 175.213 19.6962 175.308 19.5818C175.472 19.3854 175.639 19.189 175.807 18.9993C175.905 18.8871 176.077 18.8758 176.189 18.9746C176.302 19.0734 176.313 19.2451 176.214 19.3573C176.05 19.5436 175.885 19.7355 175.725 19.9286C175.671 19.9925 175.593 20.0262 175.516 20.0262ZM217.625 19.4269C217.55 19.4269 217.475 19.3955 217.422 19.3349C217.257 19.1474 217.087 18.96 216.917 18.7782C216.815 18.6682 216.821 18.4965 216.931 18.3944C217.041 18.2922 217.212 18.299 217.314 18.4078C217.487 18.593 217.66 18.7849 217.828 18.9757C217.927 19.0879 217.917 19.2597 217.805 19.3584C217.753 19.4044 217.689 19.4269 217.625 19.4269ZM176.519 18.8859C176.453 18.8859 176.387 18.8624 176.335 18.813C176.225 18.7108 176.22 18.5391 176.322 18.4291C176.496 18.2417 176.674 18.0554 176.852 17.8747C176.957 17.7681 177.128 17.7659 177.235 17.8714C177.342 17.9769 177.344 18.1486 177.239 18.2552C177.065 18.4325 176.891 18.6155 176.719 18.7984C176.665 18.8568 176.592 18.8859 176.519 18.8859ZM216.592 18.3158C216.521 18.3158 216.451 18.2889 216.399 18.235C216.225 18.0577 216.045 17.8803 215.864 17.7064C215.757 17.602 215.753 17.4303 215.858 17.3225C215.962 17.2148 216.134 17.2114 216.242 17.3158C216.426 17.4931 216.609 17.6738 216.786 17.8545C216.891 17.9611 216.889 18.1329 216.782 18.2384C216.729 18.29 216.66 18.3158 216.592 18.3158ZM177.583 17.8018C177.513 17.8018 177.441 17.7737 177.388 17.7187C177.284 17.611 177.287 17.4393 177.395 17.3349C177.578 17.1576 177.766 16.9814 177.954 16.8108C178.064 16.7098 178.235 16.7176 178.336 16.8276C178.437 16.9387 178.43 17.1093 178.32 17.2103C178.136 17.3787 177.951 17.5515 177.772 17.7243C177.719 17.7771 177.651 17.8018 177.583 17.8018ZM215.497 17.2631C215.432 17.2631 215.367 17.2395 215.314 17.1924C215.129 17.024 214.941 16.8557 214.752 16.6929C214.639 16.5953 214.627 16.4236 214.724 16.3102C214.822 16.1969 214.994 16.1845 215.107 16.2822C215.299 16.4483 215.492 16.6188 215.68 16.7906C215.791 16.8916 215.799 17.0633 215.698 17.1733C215.644 17.2328 215.572 17.2631 215.497 17.2631ZM178.703 16.7782C178.627 16.7782 178.552 16.7468 178.498 16.6839C178.4 16.5706 178.413 16.3989 178.526 16.3012C178.719 16.1351 178.916 15.969 179.112 15.8085C179.228 15.7143 179.399 15.7311 179.494 15.8467C179.589 15.9623 179.571 16.134 179.455 16.2283C179.262 16.3854 179.069 16.5481 178.881 16.712C178.829 16.7569 178.766 16.7782 178.703 16.7782ZM214.348 16.2698C214.288 16.2698 214.227 16.2496 214.176 16.2092C213.982 16.0498 213.784 15.8927 213.587 15.7412C213.468 15.6492 213.447 15.4797 213.538 15.3607C213.63 15.2418 213.799 15.2204 213.918 15.3114C214.118 15.4662 214.32 15.6267 214.519 15.7883C214.634 15.8826 214.652 16.0543 214.557 16.1699C214.504 16.2361 214.427 16.2698 214.348 16.2698ZM179.877 15.8175C179.797 15.8175 179.716 15.7816 179.663 15.712C179.571 15.5931 179.593 15.4236 179.711 15.3316C179.913 15.1755 180.119 15.0207 180.323 14.8714C180.444 14.7827 180.614 14.8097 180.702 14.9298C180.791 15.051 180.764 15.2204 180.643 15.3091C180.443 15.455 180.241 15.6076 180.042 15.7603C179.994 15.7984 179.936 15.8175 179.877 15.8175ZM213.145 15.3417C213.09 15.3417 213.034 15.3248 212.986 15.29C212.783 15.1419 212.576 14.996 212.372 14.8546C212.248 14.7693 212.217 14.6009 212.302 14.4775C212.387 14.354 212.556 14.3226 212.679 14.4079C212.888 14.5515 213.098 14.7008 213.306 14.8512C213.427 14.9399 213.454 15.1093 213.365 15.2305C213.311 15.3035 213.228 15.3417 213.145 15.3417ZM181.102 14.9219C181.015 14.9219 180.931 14.8815 180.878 14.8052C180.793 14.6817 180.825 14.5134 180.948 14.4281C181.157 14.2844 181.37 14.1408 181.583 14.0016C181.709 13.9197 181.877 13.9556 181.958 14.0813C182.04 14.207 182.004 14.3753 181.878 14.4561C181.669 14.5931 181.459 14.7334 181.254 14.8748C181.208 14.9062 181.155 14.9219 181.102 14.9219ZM211.893 14.4797C211.842 14.4797 211.79 14.4651 211.746 14.4359C211.538 14.3013 211.324 14.1655 211.108 14.0353C210.98 13.9567 210.94 13.7906 211.018 13.6627C211.097 13.5347 211.263 13.4943 211.391 13.5729C211.61 13.7064 211.829 13.8445 212.041 13.9814C212.166 14.0633 212.202 14.2306 212.12 14.3563C212.069 14.4359 211.981 14.4797 211.893 14.4797ZM182.372 14.0948C182.281 14.0948 182.192 14.0487 182.141 13.9657C182.062 13.8377 182.103 13.6705 182.231 13.5931C182.446 13.4606 182.667 13.3293 182.889 13.2025C183.019 13.1273 183.184 13.1722 183.259 13.3024C183.334 13.4326 183.289 13.5976 183.159 13.6728C182.942 13.7973 182.725 13.9264 182.514 14.0555C182.47 14.0824 182.421 14.0948 182.372 14.0948ZM210.595 13.6874C210.549 13.6874 210.503 13.6761 210.46 13.6514C210.242 13.5257 210.021 13.4034 209.802 13.2856C209.669 13.2149 209.62 13.0499 209.692 12.9186C209.762 12.7861 209.927 12.7368 210.059 12.8086C210.281 12.9287 210.508 13.0532 210.73 13.1812C210.86 13.2553 210.905 13.4214 210.831 13.5516C210.78 13.638 210.689 13.6874 210.595 13.6874ZM183.685 13.3394C183.589 13.3394 183.496 13.2878 183.446 13.1969C183.376 13.0656 183.424 12.9006 183.556 12.8299C183.78 12.7098 184.007 12.5909 184.234 12.4764C184.368 12.409 184.53 12.4629 184.599 12.5965C184.666 12.73 184.612 12.8939 184.479 12.9612C184.257 13.0735 184.032 13.1902 183.814 13.308C183.773 13.3293 183.729 13.3394 183.685 13.3394ZM209.255 12.968C209.214 12.968 209.172 12.959 209.134 12.9388C208.913 12.8277 208.685 12.7177 208.456 12.6099C208.32 12.546 208.262 12.3843 208.326 12.2497C208.39 12.1139 208.55 12.0555 208.686 12.1195C208.92 12.2295 209.152 12.3417 209.377 12.4551C209.511 12.5224 209.565 12.6851 209.498 12.8187C209.45 12.913 209.355 12.968 209.255 12.968ZM185.038 12.6571C184.936 12.6571 184.838 12.5998 184.792 12.5011C184.728 12.3653 184.786 12.2037 184.922 12.1397C185.151 12.0319 185.386 11.9253 185.618 11.8232C185.755 11.7637 185.915 11.8254 185.975 11.9624C186.035 12.0993 185.973 12.2598 185.836 12.3193C185.608 12.4191 185.378 12.5235 185.153 12.629C185.115 12.6492 185.076 12.6571 185.038 12.6571ZM207.877 12.3215C207.841 12.3215 207.804 12.3136 207.769 12.2991C207.541 12.2003 207.308 12.1015 207.073 12.0084C206.934 11.9523 206.867 11.794 206.923 11.656C206.979 11.5179 207.137 11.4495 207.275 11.5056C207.513 11.6021 207.752 11.702 207.985 11.803C208.122 11.8625 208.184 12.023 208.125 12.1599C208.081 12.2609 207.981 12.3215 207.877 12.3215ZM186.424 12.051C186.316 12.051 186.215 11.987 186.172 11.8816C186.116 11.7424 186.183 11.5841 186.322 11.528C186.557 11.4326 186.798 11.3383 187.037 11.2497C187.177 11.1969 187.333 11.2688 187.386 11.4091C187.438 11.5493 187.367 11.7053 187.226 11.7581C186.993 11.8456 186.757 11.9377 186.526 12.0308C186.492 12.0443 186.459 12.051 186.424 12.051ZM206.465 11.7536C206.434 11.7536 206.402 11.748 206.371 11.7368C206.137 11.6504 205.898 11.5651 205.66 11.4842C205.519 11.436 205.443 11.2822 205.491 11.1397C205.539 10.9983 205.693 10.922 205.835 10.9702C206.079 11.0533 206.322 11.1397 206.56 11.2272C206.701 11.2789 206.773 11.4349 206.72 11.5763C206.678 11.6863 206.575 11.7536 206.465 11.7536ZM187.847 11.519C187.735 11.519 187.629 11.4483 187.59 11.3361C187.542 11.1947 187.617 11.0398 187.758 10.9916C188 10.9085 188.245 10.8288 188.487 10.7536C188.629 10.7087 188.782 10.7884 188.827 10.9321C188.872 11.0746 188.792 11.2272 188.648 11.2721C188.411 11.3462 188.17 11.4248 187.933 11.5056C187.905 11.5146 187.876 11.519 187.847 11.519ZM205.023 11.2632C204.996 11.2632 204.969 11.2587 204.943 11.2508C204.704 11.1767 204.462 11.106 204.222 11.0387C204.077 10.9983 203.993 10.849 204.033 10.7042C204.073 10.5595 204.223 10.4753 204.367 10.5157C204.612 10.5842 204.859 10.6571 205.103 10.7323C205.246 10.7761 205.326 10.9287 205.282 11.0712C205.245 11.188 205.138 11.2632 205.023 11.2632ZM189.296 11.0679C189.178 11.0679 189.069 10.9893 189.035 10.8703C188.995 10.7267 189.079 10.5763 189.223 10.5359C189.468 10.4674 189.717 10.4001 189.964 10.3384C190.11 10.3013 190.257 10.39 190.292 10.5348C190.329 10.6795 190.241 10.8277 190.096 10.8636C189.854 10.9242 189.609 10.9904 189.37 11.0578C189.345 11.0645 189.321 11.0679 189.296 11.0679ZM203.56 10.8558C203.539 10.8558 203.517 10.8535 203.494 10.8479C203.255 10.7884 203.009 10.7301 202.763 10.6762C202.617 10.6436 202.523 10.4989 202.556 10.353C202.589 10.2071 202.733 10.1139 202.879 10.1464C203.131 10.2014 203.382 10.2609 203.626 10.3215C203.77 10.3574 203.859 10.5056 203.823 10.6504C203.792 10.7727 203.682 10.8558 203.56 10.8558ZM190.768 10.6964C190.644 10.6964 190.531 10.61 190.503 10.4843C190.471 10.3384 190.563 10.1936 190.709 10.161C190.957 10.106 191.209 10.0533 191.46 10.0039C191.607 9.97473 191.749 10.0713 191.777 10.2183C191.805 10.3653 191.71 10.5078 191.563 10.5359C191.317 10.5842 191.07 10.6358 190.827 10.6896C190.808 10.6941 190.787 10.6964 190.768 10.6964ZM202.078 10.528C202.061 10.528 202.044 10.5269 202.026 10.5235C201.78 10.4764 201.531 10.4326 201.286 10.3922C201.137 10.3687 201.038 10.2284 201.061 10.0814C201.086 9.93321 201.225 9.83332 201.372 9.85689C201.622 9.89842 201.876 9.94331 202.127 9.99157C202.274 10.0196 202.371 10.1622 202.343 10.3092C202.318 10.4382 202.205 10.528 202.078 10.528ZM192.259 10.4068C192.129 10.4068 192.014 10.3126 191.992 10.1801C191.967 10.032 192.067 9.8928 192.215 9.86811C192.466 9.82659 192.722 9.78731 192.973 9.75251C193.121 9.73231 193.258 9.83557 193.278 9.98371C193.298 10.1319 193.195 10.2688 193.047 10.289C192.8 10.3227 192.551 10.3608 192.304 10.4023C192.288 10.4057 192.273 10.4068 192.259 10.4068ZM200.578 10.2834C200.566 10.2834 200.554 10.2822 200.541 10.2811C200.295 10.2475 200.044 10.2172 199.795 10.1902C199.646 10.1745 199.538 10.0409 199.555 9.89168C199.571 9.74241 199.705 9.63467 199.853 9.65151C200.107 9.67844 200.363 9.70987 200.614 9.74354C200.763 9.76374 200.867 9.90066 200.847 10.0488C200.829 10.1846 200.712 10.2834 200.578 10.2834ZM193.763 10.1992C193.626 10.1992 193.509 10.0971 193.493 9.9579C193.476 9.80863 193.584 9.67507 193.733 9.65824C193.986 9.63018 194.242 9.60549 194.497 9.58529C194.645 9.57294 194.777 9.68405 194.79 9.83332C194.802 9.98259 194.691 10.1139 194.542 10.1262C194.292 10.1464 194.04 10.1711 193.793 10.1981C193.783 10.1992 193.773 10.1992 193.763 10.1992ZM199.069 10.1218C199.061 10.1218 199.054 10.1218 199.047 10.1206C198.8 10.1004 198.547 10.0836 198.297 10.0713C198.148 10.0634 198.032 9.93545 198.04 9.78618C198.048 9.63691 198.178 9.52019 198.325 9.52917C198.581 9.54264 198.838 9.55948 199.09 9.57968C199.24 9.59202 199.351 9.72221 199.339 9.87148C199.328 10.014 199.209 10.1218 199.069 10.1218ZM195.276 10.0746C195.133 10.0746 195.013 9.96239 195.005 9.81873C194.997 9.66946 195.112 9.54152 195.261 9.53254C195.511 9.51907 195.769 9.50785 196.026 9.49999C196.176 9.4955 196.301 9.61335 196.306 9.76374C196.31 9.913 196.192 10.0387 196.042 10.0432C195.79 10.0511 195.536 10.0612 195.29 10.0746C195.286 10.0746 195.281 10.0746 195.276 10.0746ZM197.553 10.0409C197.55 10.0409 197.548 10.0409 197.546 10.0409C197.31 10.0353 197.068 10.032 196.828 10.032H196.794C196.645 10.032 196.522 9.91076 196.522 9.76037C196.522 9.6111 196.644 9.48877 196.794 9.48877H196.825C196.827 9.48877 196.827 9.48877 196.828 9.48877C197.075 9.48877 197.32 9.49214 197.561 9.49775C197.71 9.50112 197.829 9.62569 197.824 9.77608C197.82 9.92423 197.7 10.0409 197.553 10.0409Z" fill="white"/>
<path d="M196.827 61.1324C209.892 61.1324 220.483 50.5417 220.483 37.4773C220.483 24.413 209.892 13.8223 196.827 13.8223C183.763 13.8223 173.172 24.413 173.172 37.4773C173.172 50.5417 183.763 61.1324 196.827 61.1324Z" fill="#FF7A00"/>
<path opacity="0.83" d="M196.828 61.6754C190.364 61.6754 184.288 59.158 179.717 54.5879C175.147 50.0179 172.629 43.9405 172.629 37.4771C172.629 31.0137 175.147 24.9374 179.717 20.3662C184.287 15.7962 190.364 13.2788 196.828 13.2788C203.291 13.2788 209.367 15.7962 213.939 20.3662C218.509 24.9363 221.026 31.0137 221.026 37.4771C221.026 43.9405 218.509 50.0167 213.939 54.5879C209.367 59.158 203.291 61.6754 196.828 61.6754ZM196.828 14.3641C184.084 14.3641 173.715 24.7321 173.715 37.4771C173.715 50.2221 184.083 60.5901 196.828 60.5901C209.572 60.5901 219.941 50.2221 219.941 37.4771C219.941 24.7332 209.572 14.3641 196.828 14.3641Z" fill="white"/>
<path d="M196.828 51.8997C204.793 51.8997 211.25 45.4429 211.25 37.4779C211.25 29.513 204.793 23.0562 196.828 23.0562C188.863 23.0562 182.406 29.513 182.406 37.4779C182.406 45.4429 188.863 51.8997 196.828 51.8997Z" fill="#FF7A00"/>
<path opacity="0.83" d="M196.828 52.4409C188.576 52.4409 181.864 45.7283 181.864 37.477C181.864 29.2258 188.576 22.5132 196.828 22.5132C205.079 22.5132 211.791 29.2258 211.791 37.477C211.791 45.7283 205.079 52.4409 196.828 52.4409ZM196.828 23.5985C189.175 23.5985 182.949 29.824 182.949 37.477C182.949 45.1301 189.175 51.3556 196.828 51.3556C204.481 51.3556 210.706 45.1301 210.706 37.477C210.706 29.824 204.481 23.5985 196.828 23.5985Z" fill="white"/>
<path d="M196.828 43.0644C199.914 43.0644 202.415 40.5631 202.415 37.4775C202.415 34.392 199.914 31.8906 196.828 31.8906C193.743 31.8906 191.241 34.392 191.241 37.4775C191.241 40.5631 193.743 43.0644 196.828 43.0644Z" fill="#FF7A00"/>
<path opacity="0.83" d="M196.828 43.6078C193.447 43.6078 190.698 40.8582 190.698 37.4778C190.698 34.0973 193.447 31.3477 196.828 31.3477C200.208 31.3477 202.958 34.0973 202.958 37.4778C202.958 40.8582 200.208 43.6078 196.828 43.6078ZM196.828 32.4329C194.046 32.4329 191.783 34.6955 191.783 37.4778C191.783 40.26 194.046 42.5226 196.828 42.5226C199.61 42.5226 201.873 40.26 201.873 37.4778C201.873 34.6966 199.61 32.4329 196.828 32.4329Z" fill="white"/>
<path d="M230.429 3.78955L231.175 4.53589L202.888 32.8228L202.142 32.0764L230.429 3.78955Z" fill="#0D9545"/>
<path d="M202.671 30.2747C203.099 29.846 205.119 31.8661 204.691 32.2948L197.197 38.1859C196.92 38.4036 196.562 38.0445 196.78 37.7684L202.671 30.2747Z" fill="#0D9545"/>
<path d="M231.16 4.55322L234.965 4.93144L229.741 10.1558C228.029 11.8674 225.64 12.7214 223.231 12.4813L231.16 4.55322Z" fill="#0D9545"/>
<path d="M230.412 3.80578L230.034 0L224.809 5.22438C223.098 6.93592 222.244 9.32533 222.484 11.7338L230.412 3.80578Z" fill="#0D9545"/>
<path d="M37.8819 70.9292C37.9549 70.891 38.0424 70.9034 38.1019 70.9595L39.791 72.5599C40.8437 72.2906 41.9469 72.1873 43.0625 72.2704L44.4452 70.4006M37.8819 70.9292L44.5043 70.8085L44.506 70.809C44.634 70.849 44.7695 70.8027 44.8469 70.6984M37.8819 70.9292L35.4072 72.2199L37.8819 70.9292ZM44.4452 70.4006L44.5982 70.514L44.5988 70.5144L44.8469 70.6984M44.4452 70.4006C44.4935 70.3355 44.5788 70.3074 44.6562 70.3321L44.8469 70.6984M44.4452 70.4006L44.5983 70.5138L44.5989 70.5142L44.8472 70.6979L44.8469 70.6984M49.6521 76.1083L49.8321 76.3174L50.105 76.2766L52.1882 75.9648L53.276 78.0506L51.8274 79.5795L51.6375 79.7799L51.7059 80.0474C51.9621 81.0485 52.0602 82.0974 51.9813 83.1579L51.9608 83.433L52.1826 83.597L53.8751 84.8486L53.169 87.0905L51.0646 87.1474L50.7887 87.1549L50.648 87.3923C50.1061 88.3065 49.4254 89.11 48.6419 89.7846L48.4328 89.9646L48.4737 90.2375L48.7855 92.3201L46.7007 93.4074L45.1718 91.9587L44.9714 91.7689L44.704 91.8373C43.7029 92.0934 42.654 92.1916 41.5935 92.1126L41.3184 92.0921L41.1544 92.3139L39.9028 94.0064L37.6609 93.3004L37.604 91.1959L37.5965 90.9201L37.3591 90.7793C36.4449 90.2374 35.6414 89.5567 34.9668 88.7733L34.7868 88.5642L34.5139 88.605L32.4302 88.9169L31.3429 86.8321L32.7915 85.3032L32.9814 85.1028L32.913 84.8353C32.6568 83.8342 32.5587 82.7853 32.6376 81.7248L32.6581 81.4497L32.4363 81.2857L30.7438 80.0341L31.4499 77.7922L33.5543 77.7353L33.8302 77.7278L33.9709 77.4904C34.5128 76.5762 35.1935 75.7728 35.977 75.0982L36.1861 74.9181L36.1452 74.6452L35.8333 72.5615L37.9182 71.4742L39.4471 72.9229L39.6475 73.1127L39.9149 73.0443C40.916 72.7882 41.9649 72.69 43.0254 72.769L43.3005 72.7895L43.4645 72.5677L44.7161 70.8752L46.958 71.5812L47.0149 73.6856L47.0224 73.9615L47.2598 74.1022C48.174 74.6442 48.9775 75.3249 49.6521 76.1083ZM40.1146 94.0731L40.1129 94.0726L40.1146 94.0731Z" fill="#0D9545" stroke="url(#paint0_linear_1537_3707)"/>
<path d="M44.3446 84.2233C43.8126 84.8293 43.018 85.193 42.1527 85.1436C40.6623 85.0572 39.5198 83.7755 39.6051 82.2851C39.6904 80.7946 40.9732 79.6521 42.4636 79.7374C43.954 79.8238 45.0966 81.1055 45.0113 82.5959C44.9754 83.2211 44.7296 83.7856 44.3446 84.2233ZM40.6152 80.9596C40.2863 81.3345 40.0922 81.8047 40.0641 82.3109C39.9923 83.5488 40.9417 84.6139 42.1797 84.6857C43.4176 84.7575 44.4827 83.8069 44.5545 82.5701C44.5893 81.9708 44.3884 81.3928 43.9888 80.9439C43.5893 80.495 43.0382 80.229 42.4389 80.1942C41.8396 80.1594 41.2616 80.3603 40.8127 80.7598C40.742 80.8238 40.6758 80.89 40.6152 80.9596Z" fill="#0D9545"/>
<path d="M57.0326 79.0996C57.0023 79.1344 56.9618 79.1602 56.9136 79.1715C56.7901 79.2006 56.6667 79.1254 56.6375 79.002C56.5679 78.7113 56.4882 78.4184 56.4007 78.1322C56.3637 78.011 56.4321 77.883 56.5522 77.846C56.6734 77.809 56.8014 77.8774 56.8384 77.9975C56.9293 78.2938 57.0112 78.5957 57.0831 78.8954C57.101 78.9706 57.0797 79.0458 57.0326 79.0996Z" fill="#0D9545"/>
<path d="M54.0591 92.0704C53.9783 92.1624 53.838 92.1748 53.7415 92.0962C53.6438 92.0154 53.6292 91.8717 53.7101 91.7741C54.0737 91.3308 54.4137 90.8616 54.7224 90.3802C54.7897 90.2747 54.9323 90.2421 55.0389 90.3106C55.1455 90.379 55.1769 90.5205 55.1085 90.6271C54.7897 91.1243 54.4384 91.608 54.0647 92.0648C54.0625 92.0659 54.0602 92.0681 54.0591 92.0704ZM52.0591 94.0872C52.0513 94.0962 52.0423 94.104 52.0333 94.1119C51.5799 94.4901 51.0995 94.8459 50.6057 95.168C50.5002 95.2376 50.3577 95.2072 50.2881 95.1018C50.2185 94.9963 50.2488 94.8537 50.3543 94.7841C50.8336 94.471 51.2993 94.1265 51.7393 93.7595C51.8369 93.6787 51.9806 93.6921 52.0625 93.7886C52.1354 93.8773 52.1321 94.0041 52.0591 94.0872ZM56.3845 88.1277C56.3228 88.1984 56.2207 88.2264 56.1275 88.1894C56.0097 88.1423 55.9524 88.0098 55.9996 87.892C56.2106 87.36 56.3935 86.809 56.5405 86.2568C56.5731 86.1344 56.6988 86.0626 56.8211 86.094C56.9435 86.1266 57.0164 86.2523 56.9839 86.3746C56.8312 86.9448 56.6438 87.5126 56.4261 88.0615C56.416 88.085 56.4014 88.1075 56.3845 88.1277ZM48.1378 96.4485C48.1153 96.4743 48.0861 96.4957 48.0525 96.5091C47.5059 96.7336 46.9402 96.9266 46.3712 97.0838C46.2489 97.1174 46.1232 97.0456 46.0895 96.9244C46.0559 96.8021 46.1277 96.6764 46.2489 96.6427C46.7999 96.4901 47.3476 96.3026 47.8785 96.0849C47.9952 96.0366 48.1299 96.0928 48.177 96.2095C48.2118 96.2936 48.1927 96.3857 48.1378 96.4485ZM57.4036 83.6631C57.3576 83.7147 57.2891 83.7462 57.2151 83.7405C57.0894 83.7316 56.994 83.6216 57.0029 83.4959C57.0074 83.4274 57.0119 83.359 57.0164 83.2905C57.0456 82.7854 57.049 82.2748 57.0265 81.772C57.0209 81.6452 57.1185 81.5386 57.2453 81.5329C57.3722 81.5273 57.4788 81.625 57.4844 81.7518C57.5069 82.2703 57.5035 82.7967 57.4743 83.3174C57.4698 83.3881 57.4653 83.4588 57.4608 83.5295C57.4552 83.5812 57.435 83.6272 57.4036 83.6631ZM43.6855 97.5091C43.6474 97.5529 43.5935 97.5821 43.5318 97.5866C42.9459 97.6337 42.3477 97.646 41.7563 97.6247C41.6294 97.6202 41.5307 97.5136 41.5352 97.3868C41.5396 97.26 41.6463 97.1612 41.7731 97.1657C42.3477 97.187 42.9268 97.1747 43.4958 97.1287C43.6215 97.1186 43.7327 97.2128 43.7428 97.3385C43.7472 97.4036 43.7248 97.4642 43.6855 97.5091ZM39.1199 97.1769C39.0661 97.2386 38.9819 97.2689 38.8966 97.2487C38.3197 97.1163 37.7462 96.9491 37.1907 96.7504C37.0717 96.7078 37.01 96.5765 37.0515 96.4575C37.0941 96.3385 37.2255 96.2757 37.3444 96.3183C37.8831 96.5103 38.4387 96.673 38.9987 96.8009C39.1222 96.829 39.1996 96.9525 39.1704 97.0759C39.1615 97.1152 39.1435 97.1489 39.1199 97.1769Z" fill="#0D9545"/>
<path d="M34.8611 95.4757C34.7893 95.5565 34.6692 95.5789 34.5727 95.5217C34.3078 95.3646 34.044 95.1973 33.787 95.0234C33.6827 94.9527 33.6546 94.8101 33.7264 94.7046C33.7983 94.598 33.9397 94.5722 34.0452 94.644C34.2943 94.8124 34.5502 94.9751 34.8072 95.1277C34.9161 95.1917 34.952 95.3331 34.888 95.442C34.8779 95.4532 34.8701 95.4656 34.8611 95.4757Z" fill="#0D9545"/>
<path d="M27.8486 85.7474C27.8172 85.7833 27.7746 85.8091 27.7252 85.8204C27.6017 85.8473 27.4794 85.7676 27.4536 85.6442C27.3885 85.3423 27.3324 85.0336 27.2864 84.7284C27.2673 84.6027 27.3526 84.4859 27.4783 84.468C27.604 84.4489 27.7196 84.5353 27.7387 84.6599C27.7835 84.9562 27.8374 85.2547 27.9014 85.5476C27.916 85.6217 27.8947 85.6947 27.8486 85.7474Z" fill="#0D9545"/>
<path d="M48.2085 68.7671C48.1457 68.8389 48.0413 68.8658 47.9481 68.8277C47.4285 68.6122 46.8898 68.4247 46.3477 68.271C46.2254 68.2362 46.1558 68.1094 46.1895 67.9882C46.2231 67.867 46.3511 67.7962 46.4723 67.8299C47.0312 67.9893 47.5867 68.1823 48.1232 68.4045C48.2399 68.4528 48.296 68.5875 48.2467 68.7042C48.2388 68.7278 48.2253 68.7491 48.2085 68.7671ZM43.8348 67.693C43.7877 67.7457 43.7181 67.7772 43.6418 67.7704C43.4802 67.7558 43.3174 67.7435 43.1547 67.7345C42.7529 67.711 42.3466 67.7042 41.9471 67.7132C41.8203 67.7166 41.7159 67.6156 41.7125 67.4899C41.7103 67.363 41.8102 67.2587 41.9359 67.2553C42.3478 67.2452 42.7664 67.253 43.1805 67.2766C43.3489 67.2867 43.5161 67.2991 43.6822 67.3137C43.8079 67.3249 43.9011 67.436 43.8898 67.5628C43.8865 67.6122 43.8663 67.6571 43.8348 67.693ZM27.5264 82.0553C27.4827 82.1058 27.4176 82.1361 27.3458 82.1327C27.2189 82.1282 27.1202 82.0216 27.1247 81.8959C27.128 81.787 27.1336 81.6771 27.1404 81.5682C27.1673 81.0968 27.2167 80.621 27.2874 80.1563C27.3065 80.0317 27.4232 79.9453 27.5478 79.9644C27.6735 79.9835 27.7588 80.1002 27.7397 80.2248C27.6712 80.676 27.623 81.1372 27.5972 81.5951C27.5904 81.7018 27.5859 81.8073 27.5826 81.9128C27.5803 81.9677 27.5601 82.0171 27.5264 82.0553ZM39.3388 67.9612C39.3074 67.9971 39.2648 68.023 39.2143 68.0342C38.6643 68.152 38.1144 68.3035 37.5802 68.4842C37.4601 68.5246 37.3299 68.4607 37.2895 68.3406C37.2491 68.2205 37.3131 68.0903 37.4331 68.0499C37.9831 67.8636 38.551 67.7076 39.1177 67.5864C39.2412 67.5594 39.3635 67.6391 39.3893 67.7626C39.4073 67.8355 39.386 67.9085 39.3388 67.9612ZM28.3603 77.6289C28.3008 77.6973 28.2032 77.7254 28.1123 77.694C27.9933 77.6524 27.9305 77.5211 27.972 77.4022C28.165 76.8533 28.3918 76.3113 28.6454 75.7894C28.7015 75.676 28.8384 75.6278 28.9518 75.6839C29.0651 75.7389 29.1123 75.8769 29.0573 75.9903C28.8104 76.4953 28.5904 77.0217 28.4041 77.5537C28.394 77.5828 28.3794 77.6075 28.3603 77.6289ZM35.1301 69.5583C35.1133 69.5774 35.0931 69.5931 35.0707 69.6065C34.5813 69.8838 34.101 70.1913 33.6453 70.5235C33.5432 70.5975 33.3995 70.5751 33.3255 70.473C33.2503 70.3708 33.2738 70.2283 33.376 70.1531C33.8462 69.8108 34.3412 69.4932 34.8451 69.2081C34.9551 69.1464 35.0954 69.1846 35.1571 69.2945C35.2065 69.3821 35.193 69.4876 35.1301 69.5583ZM30.4781 73.6547C30.3996 73.7434 30.266 73.7591 30.1695 73.6873C30.0685 73.6121 30.0472 73.4684 30.1224 73.3663C30.3603 73.0464 30.6151 72.7333 30.8777 72.4337C30.8788 72.4325 30.8799 72.4314 30.8811 72.4303C31 72.2945 31.1224 72.1598 31.2469 72.0285C31.3333 71.9365 31.4792 71.932 31.5713 72.0195C31.6633 72.1059 31.6644 72.2563 31.5814 72.3439C31.4602 72.4729 31.3356 72.6054 31.2245 72.7367C30.9697 73.0274 30.7228 73.3315 30.4916 73.6413C30.486 73.6458 30.4815 73.6503 30.4781 73.6547Z" fill="#0D9545"/>
<path d="M51.4353 70.606C51.3568 70.6947 51.2221 70.7104 51.1256 70.6386C50.8854 70.459 50.6362 70.2839 50.3871 70.12C50.2816 70.0505 50.2524 69.909 50.322 69.8024C50.3905 69.6958 50.5341 69.6666 50.6396 69.7373C50.8966 69.9068 51.1525 70.0864 51.4005 70.2716C51.5016 70.3479 51.5229 70.4915 51.4466 70.5925C51.4432 70.597 51.4398 70.6015 51.4353 70.606Z" fill="#0D9545"/>
<path d="M47.499 87.058C45.7336 89.0703 42.8807 89.9693 40.1681 89.1152C39.2186 88.8166 38.378 88.3318 37.6732 87.7134C35.6608 85.948 34.7619 83.0951 35.6159 80.3813C36.7686 76.7181 40.6866 74.6766 44.3498 75.8292C44.5103 75.8797 44.6686 75.9358 44.8246 75.9975C45.0939 76.1042 45.3554 76.2265 45.6079 76.3645C45.6416 76.3836 45.6764 76.4016 45.7101 76.4218C45.7235 76.4296 45.7359 76.4386 45.7482 76.4487C45.829 76.5194 45.8515 76.6384 45.7965 76.7338C45.7325 76.846 45.5945 76.8819 45.4834 76.8202C45.0838 76.5924 44.6562 76.4072 44.2129 76.2669C41.379 75.3758 38.3836 76.5284 36.8247 78.8965C36.525 79.351 36.2792 79.8504 36.0963 80.3892C36.0884 80.4116 36.0817 80.434 36.0739 80.4576C36.0671 80.4789 36.0604 80.4991 36.0537 80.5193C35.2557 83.0535 36.0963 85.719 37.9762 87.3688C38.6339 87.9457 39.4195 88.3991 40.3072 88.6786C43.7292 89.7549 47.3879 87.8481 48.4654 84.4261C48.8189 83.3016 48.8615 82.1041 48.5888 80.9627C48.5596 80.8392 48.6348 80.7157 48.7583 80.6866C48.8335 80.6686 48.9087 80.6899 48.9625 80.7371C48.9973 80.7674 49.0231 80.8078 49.0344 80.856C49.3273 82.0771 49.2813 83.3588 48.9031 84.5631C48.6023 85.5125 48.1174 86.3531 47.499 87.058Z" fill="#0D9545"/>
<path d="M155.565 133.95H100.305C97.6166 133.95 95.437 131.77 95.437 129.082V71.2581C95.437 68.5702 97.6166 66.3906 100.305 66.3906H155.565C158.253 66.3906 160.433 68.5702 160.433 71.2581V129.081C160.433 131.77 158.253 133.95 155.565 133.95Z" fill="#0D9545"/>
<path opacity="0.3" d="M152.546 132.16H103.436C100.748 132.16 98.5684 129.981 98.5684 127.293V73.2376C98.5684 70.5497 100.748 68.3701 103.436 68.3701H152.547C155.235 68.3701 157.415 70.5497 157.415 73.2376V127.293C157.415 129.981 155.235 132.16 152.546 132.16Z" fill="#0D9545"/>
<path opacity="0.43" d="M137.526 74.2082H102.402C101.377 74.2082 100.547 73.3777 100.547 72.353V72.0163C100.547 70.9916 101.377 70.1611 102.402 70.1611H137.526C138.551 70.1611 139.381 70.9916 139.381 72.0163V72.353C139.381 73.3777 138.551 74.2082 137.526 74.2082Z" fill="white"/>
<path d="M142.952 73.7995C142.039 73.7995 141.296 73.0992 141.296 72.2384C141.296 71.3776 142.039 70.6772 142.952 70.6772C143.866 70.6772 144.609 71.3776 144.609 72.2384C144.609 73.1003 143.866 73.7995 142.952 73.7995ZM142.952 71.1127C142.278 71.1127 141.73 71.6177 141.73 72.2395C141.73 72.8613 142.279 73.3663 142.952 73.3663C143.627 73.3663 144.175 72.8613 144.175 72.2395C144.175 71.6177 143.627 71.1127 142.952 71.1127Z" fill="url(#paint1_linear_1537_3707)"/>
<path d="M148.559 73.7995C147.646 73.7995 146.903 73.0992 146.903 72.2384C146.903 71.3776 147.646 70.6772 148.559 70.6772C149.473 70.6772 150.216 71.3776 150.216 72.2384C150.216 73.1003 149.473 73.7995 148.559 73.7995ZM148.559 71.1127C147.885 71.1127 147.337 71.6177 147.337 72.2395C147.337 72.8613 147.886 73.3663 148.559 73.3663C149.234 73.3663 149.782 72.8613 149.782 72.2395C149.782 71.6177 149.233 71.1127 148.559 71.1127Z" fill="url(#paint2_linear_1537_3707)"/>
<path d="M154.166 73.7995C153.253 73.7995 152.51 73.0992 152.51 72.2384C152.51 71.3776 153.253 70.6772 154.166 70.6772C155.08 70.6772 155.823 71.3776 155.823 72.2384C155.823 73.1003 155.079 73.7995 154.166 73.7995ZM154.166 71.1127C153.492 71.1127 152.944 71.6177 152.944 72.2395C152.944 72.8613 153.493 73.3663 154.166 73.3663C154.841 73.3663 155.389 72.8613 155.389 72.2395C155.389 71.6177 154.84 71.1127 154.166 71.1127Z" fill="url(#paint3_linear_1537_3707)"/>
<path opacity="0.43" d="M137.228 73.0743H102.761C102.29 73.0743 101.909 72.6927 101.909 72.2224C101.909 71.7522 102.29 71.3706 102.761 71.3706H137.228C137.698 71.3706 138.08 71.7522 138.08 72.2224C138.079 72.6927 137.698 73.0743 137.228 73.0743Z" fill="white"/>
<path d="M149.304 85.4394H106.678C106.129 85.4394 105.684 84.9939 105.684 84.4451C105.684 83.8962 106.129 83.4507 106.678 83.4507H149.304C149.852 83.4507 150.298 83.8962 150.298 84.4451C150.298 84.9939 149.854 85.4394 149.304 85.4394Z" fill="#FF7A00"/>
<path d="M144.251 81.6269H110.945C110.396 81.6269 109.951 81.1814 109.951 80.6326C109.951 80.0837 110.396 79.6382 110.945 79.6382H144.251C144.8 79.6382 145.245 80.0837 145.245 80.6326C145.246 81.1814 144.801 81.6269 144.251 81.6269Z" fill="#FF7A00"/>
<path d="M124.044 127.984H104.505C102.947 127.984 101.684 126.721 101.684 125.162V90.8586C101.684 89.3008 102.946 88.0371 104.505 88.0371H124.044C125.601 88.0371 126.865 89.2997 126.865 90.8586V125.163C126.865 126.721 125.601 127.984 124.044 127.984Z" fill="#FF7A00"/>
<path opacity="0.5" d="M124.419 91.9067H103.996C103.447 91.9067 103.001 91.4612 103.001 90.9123C103.001 90.3635 103.447 89.918 103.996 89.918H124.418C124.966 89.918 125.412 90.3635 125.412 90.9123C125.412 91.4612 124.967 91.9067 124.419 91.9067Z" fill="#0D9545"/>
<path opacity="0.5" d="M124.398 95.7031H103.977C103.428 95.7031 102.982 95.2575 102.982 94.7087C102.982 94.1599 103.428 93.7144 103.977 93.7144H124.398C124.947 93.7144 125.393 94.1599 125.393 94.7087C125.394 95.2575 124.948 95.7031 124.398 95.7031Z" fill="#0D9545"/>
<path opacity="0.5" d="M124.46 99.7402H104.039C103.49 99.7402 103.044 99.2946 103.044 98.7458C103.044 98.197 103.49 97.7515 104.039 97.7515H124.46C125.009 97.7515 125.455 98.197 125.455 98.7458C125.455 99.2946 125.009 99.7402 124.46 99.7402Z" fill="#0D9545"/>
<path opacity="0.5" d="M124.441 103.537H104.018C103.469 103.537 103.024 103.091 103.024 102.542C103.024 101.993 103.469 101.548 104.018 101.548H124.44C124.989 101.548 125.434 101.993 125.434 102.542C125.434 103.091 124.99 103.537 124.441 103.537Z" fill="#0D9545"/>
<path opacity="0.5" d="M124.408 107.008H103.986C103.437 107.008 102.992 106.562 102.992 106.013C102.992 105.465 103.437 105.019 103.986 105.019H124.408C124.957 105.019 125.402 105.465 125.402 106.013C125.402 106.562 124.958 107.008 124.408 107.008Z" fill="#0D9545"/>
<path opacity="0.5" d="M124.388 110.806H103.967C103.418 110.806 102.972 110.36 102.972 109.811C102.972 109.262 103.418 108.817 103.967 108.817H124.388C124.937 108.817 125.383 109.262 125.383 109.811C125.383 110.36 124.937 110.806 124.388 110.806Z" fill="#0D9545"/>
<path opacity="0.5" d="M124.45 114.842H104.027C103.478 114.842 103.033 114.396 103.033 113.847C103.033 113.299 103.478 112.853 104.027 112.853H124.449C124.998 112.853 125.443 113.299 125.443 113.847C125.443 114.396 124.999 114.842 124.45 114.842Z" fill="#0D9545"/>
<path opacity="0.5" d="M124.43 118.64H104.009C103.46 118.64 103.014 118.195 103.014 117.646C103.014 117.097 103.46 116.651 104.009 116.651H124.43C124.979 116.651 125.425 117.097 125.425 117.646C125.425 118.195 124.98 118.64 124.43 118.64Z" fill="#0D9545"/>
<path opacity="0.5" d="M124.388 122.228H103.966C103.417 122.228 102.971 121.782 102.971 121.233C102.971 120.684 103.417 120.239 103.966 120.239H124.387C124.936 120.239 125.382 120.684 125.382 121.233C125.382 121.782 124.937 122.228 124.388 122.228Z" fill="#0D9545"/>
<path opacity="0.5" d="M124.449 126.265H104.027C103.478 126.265 103.033 125.82 103.033 125.271C103.033 124.722 103.478 124.276 104.027 124.276H124.449C124.998 124.276 125.443 124.722 125.443 125.271C125.443 125.82 124.999 126.265 124.449 126.265Z" fill="#0D9545"/>
<path opacity="0.3" d="M151.383 127.768H131.845C130.287 127.768 129.023 126.505 129.023 124.946V90.6413C129.023 89.0836 130.286 87.8198 131.845 87.8198H151.383C152.941 87.8198 154.205 89.0824 154.205 90.6413V124.946C154.205 126.505 152.941 127.768 151.383 127.768Z" fill="#0D9545"/>
<g opacity="0.43">
<path opacity="0.43" d="M151.757 91.6885H131.336C130.787 91.6885 130.341 91.2429 130.341 90.6941C130.341 90.1453 130.787 89.6997 131.336 89.6997H151.757C152.306 89.6997 152.752 90.1453 152.752 90.6941C152.752 91.2429 152.307 91.6885 151.757 91.6885Z" fill="#F2FAF5"/>
<path opacity="0.43" d="M151.738 95.4868H131.317C130.768 95.4868 130.322 95.0412 130.322 94.4924C130.322 93.9436 130.768 93.498 131.317 93.498H151.738C152.287 93.498 152.733 93.9436 152.733 94.4924C152.733 95.0412 152.288 95.4868 151.738 95.4868Z" fill="#F2FAF5"/>
<path opacity="0.43" d="M151.8 99.5224H131.377C130.828 99.5224 130.383 99.0769 130.383 98.5281C130.383 97.9792 130.828 97.5337 131.377 97.5337H151.799C152.348 97.5337 152.793 97.9792 152.793 98.5281C152.793 99.0769 152.349 99.5224 151.8 99.5224Z" fill="#F2FAF5"/>
<path opacity="0.43" d="M151.78 103.32H131.358C130.809 103.32 130.364 102.875 130.364 102.326C130.364 101.777 130.809 101.332 131.358 101.332H151.78C152.329 101.332 152.774 101.777 152.774 102.326C152.774 102.875 152.33 103.32 151.78 103.32Z" fill="#F2FAF5"/>
<path opacity="0.43" d="M151.748 106.791H131.326C130.777 106.791 130.332 106.345 130.332 105.797C130.332 105.248 130.777 104.802 131.326 104.802H151.748C152.296 104.802 152.742 105.248 152.742 105.797C152.742 106.345 152.296 106.791 151.748 106.791Z" fill="#F2FAF5"/>
<path opacity="0.43" d="M151.728 110.588H131.306C130.758 110.588 130.312 110.143 130.312 109.594C130.312 109.045 130.758 108.6 131.306 108.6H151.728C152.277 108.6 152.722 109.045 152.722 109.594C152.722 110.143 152.277 110.588 151.728 110.588Z" fill="#F2FAF5"/>
<path opacity="0.43" d="M151.789 114.625H131.367C130.818 114.625 130.373 114.18 130.373 113.631C130.373 113.082 130.818 112.637 131.367 112.637H151.789C152.337 112.637 152.783 113.082 152.783 113.631C152.783 114.18 152.339 114.625 151.789 114.625Z" fill="#F2FAF5"/>
<path opacity="0.43" d="M151.77 118.422H131.348C130.8 118.422 130.354 117.976 130.354 117.427C130.354 116.879 130.8 116.433 131.348 116.433H151.77C152.319 116.433 152.764 116.879 152.764 117.427C152.764 117.977 152.319 118.422 151.77 118.422Z" fill="#F2FAF5"/>
<path opacity="0.43" d="M151.727 122.011H131.305C130.757 122.011 130.311 121.566 130.311 121.017C130.311 120.468 130.757 120.022 131.305 120.022H151.727C152.276 120.022 152.721 120.468 152.721 121.017C152.721 121.566 152.277 122.011 151.727 122.011Z" fill="#F2FAF5"/>
<path opacity="0.43" d="M151.789 126.047H131.366C130.817 126.047 130.372 125.602 130.372 125.053C130.372 124.504 130.817 124.059 131.366 124.059H151.788C152.336 124.059 152.782 124.504 152.782 125.053C152.783 125.603 152.338 126.047 151.789 126.047Z" fill="#F2FAF5"/>
</g>
<path d="M196.793 154.65H141.533C138.845 154.65 136.665 152.47 136.665 149.782V90.9236C136.665 88.2357 138.845 86.0562 141.533 86.0562H196.793C199.481 86.0562 201.661 88.2357 201.661 90.9236V149.782C201.661 152.47 199.482 154.65 196.793 154.65Z" fill="#0D9545"/>
<path opacity="0.3" d="M193.775 152.833H144.664C141.976 152.833 139.796 150.654 139.796 147.966V92.9339C139.796 90.2459 141.976 88.0664 144.664 88.0664H193.775C196.463 88.0664 198.643 90.2459 198.643 92.9339V147.966C198.643 150.655 196.463 152.833 193.775 152.833Z" fill="#0D9545"/>
<path d="M190.218 125.82H148.822C147.246 125.82 145.968 124.543 145.968 122.966V102.096C145.968 100.52 147.245 99.2417 148.822 99.2417H190.218C191.794 99.2417 193.073 100.519 193.073 102.096V122.966C193.071 124.543 191.794 125.82 190.218 125.82Z" fill="#FF7A00"/>
<path opacity="0.5" d="M178.754 93.8742H143.63C142.605 93.8742 141.775 93.0437 141.775 92.019V91.6823C141.775 90.6577 142.605 89.8271 143.63 89.8271H178.754C179.779 89.8271 180.609 90.6577 180.609 91.6823V92.019C180.609 93.0437 179.779 93.8742 178.754 93.8742Z" fill="#0D9545"/>
<path d="M184.18 93.4665C183.267 93.4665 182.524 92.7662 182.524 91.9054C182.524 91.0446 183.267 90.3442 184.18 90.3442C185.094 90.3442 185.837 91.0446 185.837 91.9054C185.837 92.7662 185.094 93.4665 184.18 93.4665ZM184.18 90.7786C183.506 90.7786 182.958 91.2836 182.958 91.9054C182.958 92.5271 183.507 93.0322 184.18 93.0322C184.855 93.0322 185.403 92.5271 185.403 91.9054C185.404 91.2836 184.855 90.7786 184.18 90.7786Z" fill="white"/>
<path d="M189.787 93.4665C188.874 93.4665 188.131 92.7662 188.131 91.9054C188.131 91.0446 188.874 90.3442 189.787 90.3442C190.701 90.3442 191.444 91.0446 191.444 91.9054C191.444 92.7662 190.701 93.4665 189.787 93.4665ZM189.787 90.7786C189.113 90.7786 188.565 91.2836 188.565 91.9054C188.565 92.5271 189.114 93.0322 189.787 93.0322C190.461 93.0322 191.01 92.5271 191.01 91.9054C191.011 91.2836 190.462 90.7786 189.787 90.7786Z" fill="white"/>
<path d="M195.394 93.4665C194.481 93.4665 193.738 92.7662 193.738 91.9054C193.738 91.0446 194.481 90.3442 195.394 90.3442C196.308 90.3442 197.051 91.0446 197.051 91.9054C197.051 92.7662 196.308 93.4665 195.394 93.4665ZM195.394 90.7786C194.72 90.7786 194.172 91.2836 194.172 91.9054C194.172 92.5271 194.721 93.0322 195.394 93.0322C196.068 93.0322 196.617 92.5271 196.617 91.9054C196.617 91.2836 196.069 90.7786 195.394 90.7786Z" fill="white"/>
<path opacity="0.43" d="M178.455 92.7408H143.988C143.517 92.7408 143.136 92.3592 143.136 91.8889C143.136 91.4187 143.517 91.0371 143.988 91.0371H178.455C178.925 91.0371 179.307 91.4187 179.307 91.8889C179.307 92.3592 178.925 92.7408 178.455 92.7408Z" fill="white"/>
<path d="M193.316 130.511H145.458C144.909 130.511 144.464 130.065 144.464 129.516C144.464 128.968 144.909 128.522 145.458 128.522H193.316C193.865 128.522 194.31 128.968 194.31 129.516C194.31 130.065 193.865 130.511 193.316 130.511Z" fill="#FF7A00"/>
<path d="M193.272 134.308H145.414C144.865 134.308 144.42 133.862 144.42 133.313C144.42 132.764 144.865 132.319 145.414 132.319H193.272C193.821 132.319 194.267 132.764 194.267 133.313C194.267 133.862 193.821 134.308 193.272 134.308Z" fill="#FF7A00"/>
<path d="M174.732 150.906H145.048C143.803 150.906 142.792 149.896 142.792 148.649V138.624C142.792 137.378 143.802 136.367 145.048 136.367H174.732C175.977 136.367 176.988 137.377 176.988 138.624V148.649C176.988 149.894 175.978 150.906 174.732 150.906Z" fill="#FF7A00"/>
<path d="M193.276 150.906H181.424C180.178 150.906 179.167 149.896 179.167 148.649V138.624C179.167 137.378 180.177 136.367 181.424 136.367H193.276C194.521 136.367 195.533 137.377 195.533 138.624V148.649C195.533 149.894 194.521 150.906 193.276 150.906Z" fill="#FF7A00"/>
<path d="M175.496 112.532C175.496 115.631 172.985 118.142 169.886 118.142C166.787 118.142 164.275 115.631 164.275 112.532C164.275 109.433 166.787 106.921 169.886 106.921C172.985 106.921 175.496 109.433 175.496 112.532ZM175.156 112.532C175.156 109.621 172.796 107.261 169.886 107.261C166.975 107.261 164.615 109.622 164.615 112.532C164.615 115.443 166.976 117.802 169.886 117.802C172.796 117.803 175.156 115.443 175.156 112.532Z" fill="white"/>
<path d="M168.295 115.424C168.137 115.424 168.007 115.298 168.004 115.14L167.87 110.171C167.866 110.007 167.945 109.856 168.082 109.766C168.219 109.676 168.39 109.664 168.538 109.734L173.446 112.029C173.608 112.104 173.712 112.262 173.716 112.442C173.721 112.62 173.626 112.784 173.468 112.868L169.136 115.178C168.994 115.253 168.818 115.199 168.742 115.058C168.667 114.916 168.72 114.739 168.862 114.664L172.995 112.461L168.46 110.34L168.587 115.124C168.592 115.285 168.465 115.419 168.304 115.423C168.3 115.424 168.297 115.424 168.295 115.424Z" fill="white"/>
<path d="M53.1729 106.961L7.0881 145.065C5.15549 146.663 4.99331 149.569 6.73695 151.371L7.02333 151.668C8.56612 153.263 11.1118 153.297 12.6973 151.744L55.6406 109.675L53.1729 106.961Z" fill="#0D9545"/>
<path opacity="0.12" d="M82.5148 112.367C96.9475 107.231 104.559 91.5782 99.5155 77.4057C94.4719 63.2332 78.6833 55.9078 64.2505 61.0439C49.8177 66.1801 42.2063 81.8328 47.2498 96.0053C52.2933 110.178 68.082 117.503 82.5148 112.367Z" fill="white"/>
<path d="M63.2231 58.1576C47.1623 63.8714 38.6918 81.2891 44.3029 97.0596C49.9139 112.83 67.4826 120.983 83.5425 115.268C99.6032 109.554 108.074 92.1366 102.463 76.3661C96.8516 60.5956 79.2829 52.4437 63.2231 58.1576ZM82.0501 111.074C68.3492 115.949 53.3611 108.994 48.575 95.54C43.788 82.086 51.0144 67.2277 64.7153 62.3526C78.4163 57.4775 93.4043 64.4326 98.1914 77.8867C102.977 91.3407 95.7511 106.199 82.0501 111.074Z" fill="#0D9545"/>
<path d="M47.7155 99.7249C47.6709 99.7301 47.6257 99.7071 47.6043 99.6651C47.2786 99.0214 46.9732 98.3565 46.698 97.6893C46.675 97.6321 46.7013 97.5674 46.7584 97.5443C46.8156 97.5203 46.8802 97.5486 46.9033 97.6047C47.176 98.2671 47.4791 98.9262 47.8023 99.565C47.8302 99.6197 47.8084 99.6867 47.7538 99.7146C47.7412 99.7202 47.7278 99.723 47.7155 99.7249ZM45.0736 91.669C45.015 91.675 44.9615 91.6354 44.9517 91.5765C44.6285 89.6302 44.5148 87.6428 44.6114 85.67C44.8863 80.0838 46.8102 74.7198 50.1763 70.1574C53.6227 65.4864 58.3626 61.9799 63.8836 60.0156C69.0759 58.168 74.6377 57.8146 79.9661 58.993C80.0262 59.0059 80.0641 59.0659 80.0503 59.125C80.0375 59.1851 79.9774 59.223 79.9174 59.2092C74.6296 58.0395 69.1112 58.3904 63.9576 60.2238C52.9068 64.1556 45.4001 74.1478 44.8324 85.6796C44.736 87.6365 44.8499 89.6079 45.1696 91.5389C45.1792 91.5997 45.1384 91.6568 45.0785 91.6665C45.0774 91.6693 45.0755 91.6691 45.0736 91.669Z" fill="#0D9545"/>
<path d="M10.5521 151.569C10.5483 151.569 10.5446 151.569 10.5408 151.57C8.71927 151.586 7.5393 150.962 7.03335 149.714C6.5242 148.459 6.90515 146.989 7.98122 146.058L13.4558 141.317C13.502 141.276 13.572 141.282 13.6128 141.329C13.6526 141.375 13.6484 141.445 13.6013 141.486L8.12667 146.226C7.1228 147.095 6.76612 148.464 7.23953 149.631C7.70721 150.785 8.81738 151.363 10.5383 151.347C10.5994 151.347 10.6503 151.395 10.6504 151.457C10.6518 151.515 10.608 151.562 10.5521 151.569Z" fill="white"/>
<path d="M15.2275 140.051C15.1925 140.055 15.1559 140.042 15.1317 140.013C15.0919 139.967 15.0961 139.897 15.1432 139.856L15.8532 139.241C15.8994 139.2 15.9695 139.205 16.0102 139.252C16.05 139.299 16.0458 139.369 15.9987 139.409L15.2887 140.023C15.2706 140.04 15.2493 140.049 15.2275 140.051Z" fill="white"/>
<defs>
<linearGradient id="paint0_linear_1537_3707" x1="50.9532" y1="81.424" x2="39.6178" y2="82.0974" gradientUnits="userSpaceOnUse">
<stop stop-color="#006E2D"/>
<stop offset="1" stop-opacity="0"/>
</linearGradient>
<linearGradient id="paint1_linear_1537_3707" x1="141.296" y1="72.2393" x2="144.609" y2="72.2393" gradientUnits="userSpaceOnUse">
<stop stop-color="#DAE3FE"/>
<stop offset="1" stop-color="#E9EFFD"/>
</linearGradient>
<linearGradient id="paint2_linear_1537_3707" x1="146.903" y1="72.2393" x2="150.216" y2="72.2393" gradientUnits="userSpaceOnUse">
<stop stop-color="#DAE3FE"/>
<stop offset="1" stop-color="#E9EFFD"/>
</linearGradient>
<linearGradient id="paint3_linear_1537_3707" x1="152.509" y1="72.2393" x2="155.822" y2="72.2393" gradientUnits="userSpaceOnUse">
<stop stop-color="#DAE3FE"/>
<stop offset="1" stop-color="#E9EFFD"/>
</linearGradient>
</defs>
</svg>
