<svg width="148" height="64" viewBox="0 0 148 64" fill="none" xmlns="http://www.w3.org/2000/svg">
    <path fill-rule="evenodd" clip-rule="evenodd" d="M0.0339864 20.7441L0.0679728 41.4869H3.89651H7.72504L7.75956 32.5028L7.79409 23.5186L15.8196 23.4842L23.8452 23.4497L23.8812 20.2765L23.9172 17.1033H15.8547H7.79221V11.7589V6.41457H17.1956H26.599V3.20795V0.00133739H13.2995H0L0.0339864 20.7441ZM33.2146 20.7435L33.2486 41.4869H47.2865H61.3245L61.3605 38.2469L61.3965 35.0069H51.1175H40.8385V29.2617V23.5165H49.1672H57.496V20.3099V17.1033H49.1672H40.8385V11.7589V6.41457H50.5802H60.3218L60.2858 3.24135L60.2498 0.0681418L46.7152 0.0340709L33.1806 0L33.2146 20.7435ZM69.3506 20.7441L69.3846 41.4869H83.4225H97.4605L97.4965 38.2469L97.5325 35.0069H87.3206H77.1088V29.2617V23.5165H85.3704H93.6319V20.3099V17.1033H85.3704H77.1088V11.7589V6.41457H86.7137H96.3186V3.20795V0.00133739H82.8176H69.3166L69.3506 20.7441ZM105.453 19.1963V38.391L107.032 36.8575C108.672 35.2638 110.603 33.6751 112.272 32.5449L113.245 31.8867V19.1506V6.41457L115.226 6.41483C117.601 6.41524 120.388 6.60924 122.044 6.88941C123.623 7.15663 125.81 7.89107 127.043 8.56807C128.504 9.37039 129.826 10.4818 130.716 11.6572C132.685 14.2557 133.523 17.3939 133.359 21.5458C133.319 22.5563 133.32 23.3829 133.362 23.3829C133.403 23.3829 133.747 23.1453 134.125 22.855C135.021 22.1675 136.688 20.4491 137.41 19.4682C138.179 18.4244 138.958 16.9638 139.466 15.6133C139.808 14.7038 139.888 14.2881 139.898 13.3622C139.909 12.3099 139.873 12.152 139.409 11.2103C138.159 8.67282 136.163 6.26064 133.94 4.60055C132.451 3.48906 130.092 2.28992 128.089 1.62669C126.344 1.0491 125.242 0.798447 123.051 0.481527C120.389 0.0963326 118.165 0.00133739 111.815 0.00133739H105.453V19.1963ZM140.185 32.0607C139.727 32.5637 137.729 33.8031 136.206 34.5291C135.362 34.9314 134.127 35.4225 133.462 35.6207C132.404 35.9359 132.026 35.9805 130.44 35.9775C128.814 35.9746 128.417 35.9236 126.611 35.4847C125.503 35.2153 124.264 34.9258 123.857 34.8413C122.72 34.605 119.431 34.6468 118.014 34.9158C115.02 35.4833 111.479 36.9561 108.799 38.7475C107.525 39.5991 105.69 41.0318 105.77 41.1117C105.794 41.1355 106.564 40.799 107.481 40.3639C110.499 38.9316 112.956 38.2305 115.989 37.936C117.185 37.8197 117.98 37.8196 119.215 37.9352C121.246 38.125 122.454 38.4071 125.536 39.4105C126.866 39.8434 128.334 40.2704 128.797 40.3592C130.056 40.6007 131.919 40.4595 133.027 40.0387C135.615 39.0564 138.057 36.6158 139.859 33.2116C140.236 32.5002 140.517 31.8912 140.483 31.8584C140.45 31.8255 140.316 31.9166 140.185 32.0607ZM139.377 33.5304C137.353 37.0917 134.861 39.3194 132.124 40.0143C131.133 40.2659 129.71 40.2716 128.559 40.0286C128.079 39.9272 126.598 39.4814 125.268 39.038C123.938 38.5945 122.223 38.1049 121.457 37.9496C119.62 37.5775 117.427 37.473 115.601 37.6706C113.774 37.8684 111.052 38.5557 109.286 39.2651C108.55 39.5611 107.923 39.7787 107.893 39.7489C107.772 39.6293 110.462 38.0084 112.103 37.2118C114.875 35.8661 116.965 35.2642 119.789 34.9981C121.655 34.8222 123.458 35.0136 126.332 35.6926C127.582 35.988 129.136 36.2639 129.785 36.3057C131.144 36.3933 132.574 36.1983 134.058 35.7227C135.374 35.3013 137.792 34.1182 138.903 33.3529C139.383 33.0218 139.788 32.7475 139.802 32.7433C139.817 32.739 139.625 33.0932 139.377 33.5304ZM115.193 39.343C114.602 39.4353 113.607 39.6434 112.983 39.8053C111.763 40.1217 109.494 40.9295 108.946 41.2428C108.613 41.4329 108.614 41.434 109.08 41.3673C109.339 41.3303 110.046 41.2102 110.651 41.1005C112.387 40.7857 114.503 40.6985 116.054 40.8778C118.881 41.2046 120.425 41.7738 123.554 43.642C124.754 44.3587 126.033 45.0152 126.521 45.165C127.536 45.4769 129.11 45.5104 130.125 45.2416C131.816 44.7939 133.397 43.8126 135.176 42.1069C135.824 41.486 136.334 40.9586 136.31 40.9348C136.286 40.911 135.691 41.0962 134.988 41.3462C133.133 42.0056 131.805 42.2534 130.037 42.27C128.769 42.2819 128.312 42.2288 127.493 41.9744C126.943 41.804 125.855 41.3465 125.075 40.9581C123.255 40.0521 121.971 39.5966 120.537 39.3478C119.173 39.1113 116.69 39.1091 115.193 39.343ZM107.737 39.8836C107.737 39.9203 107.707 39.9504 107.67 39.9504C107.633 39.9504 107.603 39.9203 107.603 39.8836C107.603 39.8469 107.633 39.8168 107.67 39.8168C107.707 39.8168 107.737 39.8469 107.737 39.8836Z" fill="#109648"/>
    <path d="M145.675 14.8991C145.665 12.8523 144.939 11.0637 143.639 9.88167C143.239 9.51812 142.956 9.2207 143.011 9.2207C143.065 9.2207 143.426 9.4576 143.811 9.74699C144.667 10.3899 145.498 11.5952 145.887 12.7579C146.182 13.6386 146.478 16.1757 146.468 17.726C146.461 18.6749 146.108 19.5249 145.421 20.2498C145.102 20.5863 144.869 20.7111 144.56 20.7111C144.245 20.7111 144.099 20.6301 143.991 20.3939C143.866 20.1216 143.941 19.8997 144.517 18.824C145.473 17.0367 145.682 16.3314 145.675 14.8991Z" fill="#E3B223"/>
    <path d="M143.215 15.7095C143.036 14.7489 142.497 13.7515 141.833 13.1549C141.551 12.9018 141.374 12.6945 141.441 12.6945C141.72 12.6945 142.976 13.9883 143.308 14.6174C143.64 15.2465 143.667 15.4202 143.66 16.8364C143.645 19.4646 143.613 19.956 143.403 20.7573C143.169 21.6526 142.52 22.6644 142.043 22.8809C141.779 23.0003 141.672 22.9878 141.501 22.8174C141.158 22.4766 141.375 21.6175 142.263 19.7944C143.198 17.8767 143.431 16.8745 143.215 15.7095Z" fill="#E3B223"/>
    <path d="M147.312 17.4948C147.47 16.8818 147.514 16.3109 147.465 15.5003C147.423 14.7962 147.441 14.4797 147.512 14.6674C147.74 15.264 147.8 16.6634 147.639 17.6124C147.454 18.7075 146.702 20.3452 145.973 21.2455C145.705 21.5762 145.159 22.268 144.759 22.7829C143.761 24.0701 142.81 24.8024 141.835 25.0348C141.593 25.0922 141.406 25.0514 141.264 24.9103C141.003 24.6507 141.001 24.5383 141.249 24.0605C141.542 23.4979 142.129 23.0621 143.62 22.3001C144.749 21.7234 145.066 21.4863 145.619 20.8063C146.411 19.8331 147.013 18.6559 147.312 17.4948Z" fill="#E3B223"/>
    <path d="M140.461 18.2675C140.334 17.8106 140.039 17.1976 139.805 16.9032C139.418 16.4175 139.409 16.3882 139.712 16.5816C139.895 16.6987 140.238 17.111 140.474 17.4979C141.022 18.3982 141.149 19.3285 140.888 20.5415C140.781 21.0389 140.72 21.7572 140.751 22.1379C140.785 22.5415 140.721 23.1294 140.598 23.5492C140.35 24.3977 139.707 25.3333 139.22 25.554C138.926 25.6873 138.846 25.6738 138.692 25.4638C138.31 24.9439 138.814 23.0794 139.704 21.7202C140.026 21.2288 140.334 20.533 140.467 19.9968C140.676 19.1544 140.676 19.0448 140.461 18.2675Z" fill="#E3B223"/>
    <path d="M146.127 22.937C146.739 22.2716 147.704 20.8571 147.844 20.4205C147.89 20.2752 147.957 20.1851 147.992 20.2198C148.096 20.3231 147.246 21.9162 146.615 22.8008C145.921 23.7745 145.064 24.5509 143.949 25.2169C143.501 25.4844 142.788 26.0184 142.365 26.4039C141.942 26.7892 141.216 27.2905 140.752 27.5178C139.795 27.9865 138.693 28.1715 138.253 27.9373C137.865 27.7307 137.878 27.196 138.282 26.7943C138.839 26.241 140.21 25.6475 141.416 25.4382C142.043 25.3293 142.882 25.1192 143.279 24.9715C144.14 24.6509 145.335 23.7976 146.127 22.937Z" fill="#E3B223"/>
    <path d="M135.557 26.3873C135.931 25.3927 137.031 23.7774 137.733 23.1923C138.284 22.7323 138.634 22.5935 138.634 22.8345C138.634 22.9003 138.454 23.6652 138.233 24.5346C137.931 25.7243 137.711 26.2896 137.343 26.821C136.818 27.5791 135.912 28.3268 135.518 28.3268C135.321 28.3268 135.276 28.216 135.276 27.7306C135.276 27.4026 135.403 26.7982 135.557 26.3873Z" fill="#E3B223"/>
    <path d="M130.849 29.1566C131.374 28.0886 132.892 26.5054 134.189 25.6726C135.05 25.1198 135.41 24.9979 135.41 25.2598C135.41 25.5194 134.088 28.3495 133.719 28.8785C133.134 29.7183 131.603 30.7317 130.92 30.7317C130.667 30.7317 130.557 30.644 130.494 30.3925C130.434 30.1536 130.539 29.7883 130.849 29.1566Z" fill="#E3B223"/>
    <path d="M128.169 28.2275C129.134 27.4185 130.365 26.6711 131.092 26.4524C131.578 26.3065 132.022 26.2994 132.107 26.4363C132.146 26.4989 132.022 26.7543 131.833 27.0042C131.643 27.2539 131.154 27.9694 130.747 28.594C129.699 30.201 129.169 30.8119 128.469 31.2201C128.003 31.4916 127.668 31.5788 127.061 31.587C126.177 31.599 125.953 31.434 126.078 30.8653C126.209 30.2682 127.151 29.0805 128.169 28.2275Z" fill="#E3B223"/>
    <path d="M134.414 29.5688C134.623 29.2399 136.09 28.4711 136.774 28.3327C137.095 28.2675 137.812 28.2546 138.366 28.3039C138.92 28.3532 139.676 28.383 140.045 28.3702L140.717 28.3467L140.067 28.9366C139.237 29.6904 137.988 30.2821 136.808 30.4807C136.055 30.6075 135.757 30.6017 135.223 30.4501C134.478 30.2382 134.189 29.9237 134.414 29.5688Z" fill="#E3B223"/>
    <path d="M130.721 31.3177C130.95 31.0434 131.533 30.7544 132.149 30.6104C132.978 30.4161 133.665 30.4501 134.873 30.7451C135.501 30.8983 136.317 31.0651 136.687 31.1153L137.358 31.207L136.805 31.5768C135.803 32.2466 134.924 32.5011 133.372 32.5711C132.092 32.6289 131.873 32.6044 131.329 32.3429C130.677 32.0285 130.449 31.6444 130.721 31.3177Z" fill="#E3B223"/>
    <path d="M127.359 32.4215C127.511 32.2288 127.829 32.0134 128.064 31.9429C128.735 31.7418 129.625 31.9151 130.574 32.4319C132.398 33.4244 132.661 33.5457 133.161 33.6252C133.45 33.6711 133.653 33.7723 133.626 33.856C133.533 34.1425 131.758 34.491 130.306 34.5078C129.14 34.5213 128.787 34.4757 128.271 34.2447C127.102 33.7218 126.803 33.1243 127.359 32.4215Z" fill="#E3B223"/>
    <path d="M8.6 59.5124C8.96667 58.1957 9.42083 56.7832 9.9625 55.2749L12.85 47.2749H17.15V63.9999H14.0875V55.5249C14.0875 54.2832 14.1375 52.8416 14.2375 51.1999H14.125C13.9833 51.6749 13.8167 52.2082 13.625 52.7999C13.4333 53.3916 13.2333 53.9749 13.025 54.5499L9.5625 63.9999H7.5875L4.125 54.5499C3.91667 53.9749 3.71667 53.3916 3.525 52.7999C3.33333 52.2082 3.16667 51.6749 3.025 51.1999H2.9125C3.0125 52.7416 3.0625 54.1791 3.0625 55.5124V63.9999H0V47.2749H4.275L7.1625 55.2374C7.64583 56.5624 8.1 57.9874 8.525 59.5124H8.6Z" fill="#E3B223"/>
    <path d="M30.725 59.7374H24.425L22.7875 63.9999H19.525L26.1625 47.2749H28.9625L35.6 63.9999H32.3625L30.725 59.7374ZM27.55 51.2999C26.9667 53.0499 26.4458 54.5124 25.9875 55.6874L25.4125 57.1749H29.7375L29.1625 55.6874C28.7042 54.5041 28.1833 53.0416 27.6 51.2999H27.55Z" fill="#E3B223"/>
    <path d="M50.35 52.2999C50.35 53.4666 50.025 54.4582 49.375 55.2749C48.7333 56.0832 47.7375 56.6832 46.3875 57.0749V57.1249L51.3625 63.9999H47.6875L43.1375 57.5249H41.0375V63.9999H37.975V47.2749H43.0625C43.9042 47.2749 44.6875 47.3249 45.4125 47.4249C46.1375 47.5166 46.7583 47.6582 47.275 47.8499C48.2583 48.2249 49.0167 48.7832 49.55 49.5249C50.0833 50.2582 50.35 51.1832 50.35 52.2999ZM42.55 54.9624C43.25 54.9624 43.8417 54.9332 44.325 54.8749C44.8167 54.8082 45.2292 54.7124 45.5625 54.5874C46.1792 54.3541 46.6042 54.0374 46.8375 53.6374C47.0792 53.2291 47.2 52.7624 47.2 52.2374C47.2 51.7874 47.1042 51.3916 46.9125 51.0499C46.7292 50.6999 46.4125 50.4249 45.9625 50.2249C45.6708 50.0916 45.3042 49.9957 44.8625 49.9374C44.4208 49.8707 43.875 49.8374 43.225 49.8374H41.0375V54.9624H42.55Z" fill="#E3B223"/>
    <path d="M54.05 63.9999V47.2749H57.1125V54.8874H57.1625L63.475 47.2749H67.275L60.3 55.5624L67.85 63.9999H63.925L57.1625 56.4499H57.1125V63.9999H54.05Z" fill="#E3B223"/>
    <path d="M73.2875 61.4374H81.5125V63.9999H70.225V47.2749H81.0625V49.8374H73.2875V54.1624H79.9625V56.7249H73.2875V61.4374Z" fill="#E3B223"/>
    <path d="M91.6125 63.9999H88.55V49.8374H83.15V47.2749H97V49.8374H91.6125V63.9999Z" fill="#E3B223"/>
</svg>
