<svg width="149" height="64" viewBox="0 0 149 64" fill="none" xmlns="http://www.w3.org/2000/svg">
    <path fill-rule="evenodd" clip-rule="evenodd" d="M0.0339863 20.7441L0.0679727 41.4868H3.8965H7.72502L7.75955 32.5027L7.79407 23.5186L15.8196 23.4841L23.8451 23.4497L23.8811 20.2764L23.9171 17.1032H15.8547H7.79219V11.7589V6.41455H17.1956H26.599V3.20794V0.00133739H13.2995H0L0.0339863 20.7441ZM33.2145 20.7434L33.2485 41.4868H47.2864H61.3244L61.3604 38.2468L61.3964 35.0068H51.1174H40.8384V29.2616V23.5165H49.1671H57.4958V20.3099V17.1032H49.1671H40.8384V11.7589V6.41455H50.5801H60.3217L60.2857 3.24135L60.2497 0.0681417L46.7151 0.0340709L33.1805 0L33.2145 20.7434ZM69.3504 20.7441L69.3844 41.4868H83.4223H97.4603L97.4963 38.2468L97.5323 35.0068H87.3205H77.1086V29.2616V23.5165H85.3702H93.6317V20.3099V17.1032H85.3702H77.1086V11.7589V6.41455H86.7135H96.3184V3.20794V0.00133739H82.8174H69.3164L69.3504 20.7441ZM105.453 19.1962V38.391L107.032 36.8574C108.672 35.2637 110.603 33.675 112.272 32.5448L113.245 31.8866V19.1505V6.41455L115.226 6.41482C117.601 6.41522 120.388 6.60922 122.043 6.8894C123.622 7.15662 125.809 7.89106 127.043 8.56805C128.504 9.37037 129.825 10.4817 130.716 11.6572C132.684 14.2556 133.523 17.3938 133.359 21.5457C133.318 22.5562 133.32 23.3828 133.361 23.3828C133.403 23.3828 133.747 23.1453 134.125 22.855C135.021 22.1674 136.688 20.4491 137.41 19.4681C138.178 18.4244 138.957 16.9638 139.466 15.6132C139.808 14.7038 139.888 14.2881 139.898 13.3622C139.909 12.3099 139.873 12.152 139.409 11.2103C138.159 8.6728 136.163 6.26063 133.94 4.60054C132.451 3.48905 130.092 2.28992 128.088 1.62668C126.344 1.04909 125.242 0.798446 123.051 0.481526C120.389 0.0963324 118.165 0.00133739 111.815 0.00133739H105.453V19.1962ZM140.185 32.0606C139.727 32.5636 137.729 33.803 136.206 34.529C135.362 34.9313 134.127 35.4225 133.462 35.6206C132.404 35.9358 132.026 35.9804 130.439 35.9775C128.814 35.9745 128.417 35.9235 126.611 35.4846C125.503 35.2152 124.263 34.9257 123.857 34.8413C122.72 34.6049 119.431 34.6467 118.013 34.9157C115.02 35.4832 111.478 36.956 108.799 38.7474C107.525 39.5991 105.69 41.0317 105.77 41.1116C105.794 41.1354 106.564 40.7989 107.48 40.3638C110.499 38.9315 112.956 38.2304 115.989 37.9359C117.185 37.8197 117.979 37.8195 119.215 37.9351C121.246 38.125 122.454 38.407 125.536 39.4104C126.866 39.8433 128.333 40.2703 128.797 40.3592C130.056 40.6006 131.919 40.4594 133.027 40.0386C135.615 39.0563 138.057 36.6157 139.859 33.2115C140.235 32.5002 140.516 31.8912 140.483 31.8583C140.45 31.8254 140.316 31.9166 140.185 32.0606ZM139.376 33.5303C137.353 37.0916 134.861 39.3193 132.124 40.0142C131.133 40.2658 129.709 40.2715 128.559 40.0285C128.078 39.9271 126.597 39.4814 125.267 39.0379C123.938 38.5945 122.223 38.1048 121.457 37.9495C119.619 37.5774 117.427 37.4729 115.601 37.6706C113.773 37.8683 111.051 38.5556 109.286 39.265C108.55 39.561 107.922 39.7786 107.893 39.7488C107.772 39.6293 110.462 38.0083 112.103 37.2117C114.874 35.866 116.964 35.2641 119.789 34.998C121.655 34.8222 123.458 35.0135 126.332 35.6925C127.582 35.9879 129.136 36.2638 129.784 36.3056C131.144 36.3933 132.574 36.1982 134.058 35.7227C135.373 35.3013 137.792 34.1182 138.902 33.3529C139.383 33.0218 139.787 32.7475 139.802 32.7432C139.816 32.7389 139.625 33.0931 139.376 33.5303ZM115.192 39.3429C114.601 39.4353 113.607 39.6433 112.982 39.8052C111.762 40.1216 109.494 40.9294 108.946 41.2427C108.613 41.4328 108.614 41.4339 109.08 41.3672C109.339 41.3302 110.045 41.2101 110.65 41.1004C112.386 40.7856 114.503 40.6984 116.054 40.8777C118.88 41.2045 120.424 41.7737 123.554 43.6419C124.754 44.3586 126.033 45.0152 126.521 45.1649C127.536 45.4768 129.11 45.5103 130.125 45.2415C131.816 44.7938 133.397 43.8125 135.176 42.1068C135.824 41.4859 136.334 40.9585 136.31 40.9347C136.286 40.911 135.691 41.0961 134.988 41.3461C133.133 42.0055 131.805 42.2533 130.036 42.2699C128.769 42.2818 128.312 42.2287 127.492 41.9744C126.943 41.8039 125.855 41.3464 125.074 40.958C123.255 40.052 121.971 39.5965 120.536 39.3477C119.173 39.1113 116.69 39.109 115.192 39.3429ZM107.737 39.8835C107.737 39.9203 107.707 39.9503 107.67 39.9503C107.633 39.9503 107.603 39.9203 107.603 39.8835C107.603 39.8468 107.633 39.8167 107.67 39.8167C107.707 39.8167 107.737 39.8468 107.737 39.8835Z" fill="#0D9545"/>
    <path d="M145.676 14.8989C145.666 12.8522 144.94 11.0636 143.64 9.88155C143.24 9.518 142.957 9.22058 143.012 9.22058C143.066 9.22058 143.427 9.45747 143.812 9.74687C144.668 10.3898 145.499 11.5951 145.888 12.7577C146.183 13.6385 146.479 16.1756 146.468 17.7258C146.462 18.6747 146.109 19.5247 145.422 20.2497C145.103 20.5861 144.87 20.7109 144.561 20.7109C144.245 20.7109 144.1 20.63 143.992 20.3937C143.867 20.1214 143.942 19.8995 144.518 18.8238C145.474 17.0365 145.682 16.3312 145.676 14.8989Z" fill="#FF7A00"/>
    <path d="M143.216 15.7094C143.037 14.7488 142.498 13.7514 141.834 13.1548C141.552 12.9016 141.375 12.6944 141.442 12.6944C141.721 12.6944 142.977 13.9881 143.309 14.6173C143.641 15.2463 143.668 15.42 143.66 16.8363C143.646 19.4645 143.614 19.9559 143.404 20.7572C143.17 21.6525 142.521 22.6643 142.044 22.8807C141.78 23.0002 141.673 22.9876 141.502 22.8173C141.159 22.4764 141.376 21.6173 142.264 19.7942C143.199 17.8765 143.432 16.8743 143.216 15.7094Z" fill="#FF7A00"/>
    <path d="M147.313 17.4947C147.471 16.8817 147.515 16.3108 147.466 15.5002C147.424 14.7961 147.442 14.4795 147.513 14.6673C147.741 15.2638 147.801 16.6632 147.64 17.6123C147.454 18.7073 146.703 20.3451 145.974 21.2454C145.706 21.576 145.16 22.2679 144.76 22.7828C143.762 24.07 142.811 24.8023 141.836 25.0346C141.594 25.0921 141.406 25.0512 141.265 24.9101C141.004 24.6505 141.002 24.5381 141.25 24.0604C141.543 23.4977 142.13 23.0619 143.621 22.2999C144.75 21.7233 145.067 21.4861 145.62 20.8062C146.412 19.833 147.014 18.6558 147.313 17.4947Z" fill="#FF7A00"/>
    <path d="M140.462 18.2674C140.335 17.8104 140.04 17.1974 139.806 16.9031C139.419 16.4174 139.41 16.388 139.713 16.5815C139.896 16.6985 140.239 17.1108 140.475 17.4978C141.023 18.398 141.15 19.3283 140.889 20.5414C140.782 21.0388 140.721 21.7571 140.752 22.1377C140.786 22.5414 140.722 23.1292 140.599 23.549C140.351 24.3976 139.708 25.3331 139.221 25.5538C138.927 25.6872 138.847 25.6737 138.693 25.4636C138.311 24.9438 138.815 23.0793 139.705 21.7201C140.027 21.2287 140.335 20.5328 140.468 19.9966C140.677 19.1542 140.677 19.0447 140.462 18.2674Z" fill="#FF7A00"/>
    <path d="M146.128 22.9368C146.74 22.2715 147.705 20.857 147.845 20.4203C147.891 20.2751 147.958 20.1849 147.993 20.2196C148.097 20.3229 147.247 21.9161 146.616 22.8007C145.922 23.7743 145.065 24.5507 143.95 25.2167C143.502 25.4842 142.789 26.0183 142.366 26.4037C141.943 26.789 141.217 27.2903 140.753 27.5176C139.796 27.9863 138.694 28.1714 138.254 27.9371C137.866 27.7306 137.879 27.1959 138.283 26.7941C138.84 26.2409 140.211 25.6474 141.417 25.438C142.044 25.3291 142.883 25.1191 143.28 24.9713C144.141 24.6508 145.336 23.7974 146.128 22.9368Z" fill="#FF7A00"/>
    <path d="M135.558 26.3872C135.932 25.3926 137.032 23.7772 137.734 23.1922C138.285 22.7322 138.635 22.5933 138.635 22.8344C138.635 22.9001 138.455 23.665 138.234 24.5344C137.932 25.7242 137.712 26.2895 137.344 26.8208C136.819 27.5789 135.913 28.3266 135.519 28.3266C135.322 28.3266 135.277 28.2159 135.277 27.7305C135.277 27.4024 135.403 26.798 135.558 26.3872Z" fill="#FF7A00"/>
    <path d="M130.85 29.1565C131.375 28.0884 132.893 26.5053 134.19 25.6725C135.051 25.1196 135.411 24.9978 135.411 25.2596C135.411 25.5192 134.089 28.3493 133.72 28.8783C133.135 29.7182 131.604 30.7316 130.92 30.7316C130.668 30.7316 130.558 30.6438 130.495 30.3923C130.435 30.1534 130.54 29.7882 130.85 29.1565Z" fill="#FF7A00"/>
    <path d="M128.17 28.2273C129.135 27.4183 130.366 26.6709 131.093 26.4522C131.579 26.3063 132.023 26.2992 132.108 26.4362C132.147 26.4987 132.023 26.7542 131.834 27.004C131.644 27.2537 131.155 27.9692 130.748 28.5938C129.7 30.2009 129.17 30.8117 128.47 31.2199C128.004 31.4914 127.669 31.5786 127.062 31.5868C126.178 31.5988 125.954 31.4338 126.079 30.8652C126.21 30.2681 127.152 29.0803 128.17 28.2273Z" fill="#FF7A00"/>
    <path d="M134.415 29.5686C134.624 29.2397 136.091 28.4709 136.775 28.3325C137.096 28.2673 137.813 28.2545 138.367 28.3038C138.921 28.3531 139.677 28.3829 140.046 28.37L140.718 28.3465L140.068 28.9364C139.238 29.6902 137.989 30.282 136.809 30.4805C136.056 30.6073 135.758 30.6016 135.224 30.4499C134.479 30.238 134.19 29.9235 134.415 29.5686Z" fill="#FF7A00"/>
    <path d="M130.722 31.3176C130.951 31.0433 131.534 30.7543 132.149 30.6102C132.979 30.416 133.666 30.4499 134.874 30.7449C135.502 30.8982 136.318 31.0649 136.688 31.1152L137.359 31.2068L136.806 31.5766C135.804 32.2464 134.925 32.5009 133.373 32.571C132.093 32.6287 131.874 32.6042 131.33 32.3428C130.678 32.0284 130.45 31.6442 130.722 31.3176Z" fill="#FF7A00"/>
    <path d="M127.36 32.4213C127.512 32.2286 127.83 32.0133 128.065 31.9427C128.736 31.7416 129.626 31.9149 130.575 32.4317C132.399 33.4242 132.662 33.5455 133.162 33.625C133.451 33.671 133.654 33.7721 133.627 33.8559C133.534 34.1423 131.759 34.4908 130.307 34.5076C129.141 34.5211 128.788 34.4756 128.272 34.2445C127.103 33.7216 126.804 33.1241 127.36 32.4213Z" fill="#FF7A00"/>
    <path d="M8.59998 59.5125C8.96665 58.1958 9.42081 56.7833 9.96248 55.275L12.85 47.275H17.15V64H14.0875V55.525C14.0875 54.2833 14.1375 52.8417 14.2375 51.2H14.125C13.9833 51.675 13.8166 52.2083 13.625 52.8C13.4333 53.3917 13.2333 53.975 13.025 54.55L9.56248 64H7.58748L4.12499 54.55C3.91666 53.975 3.71666 53.3917 3.52499 52.8C3.33333 52.2083 3.16666 51.675 3.02499 51.2H2.91249C3.01249 52.7417 3.06249 54.1792 3.06249 55.5125V64H0V47.275H4.27499L7.16249 55.2375C7.64582 56.5625 8.09998 57.9875 8.52498 59.5125H8.59998Z" fill="#FF7A00"/>
    <path d="M30.7249 59.7375H24.4249L22.7875 64H19.525L26.1624 47.275H28.9624L35.5999 64H32.3624L30.7249 59.7375ZM27.5499 51.3C26.9666 53.05 26.4458 54.5125 25.9874 55.6875L25.4124 57.175H29.7374L29.1624 55.6875C28.7041 54.5042 28.1833 53.0417 27.5999 51.3H27.5499Z" fill="#FF7A00"/>
    <path d="M50.3499 52.3C50.3499 53.4667 50.0249 54.4583 49.3749 55.275C48.7332 56.0833 47.7374 56.6833 46.3874 57.075V57.125L51.3624 64H47.6874L43.1374 57.525H41.0374V64H37.9749V47.275H43.0624C43.9041 47.275 44.6874 47.325 45.4124 47.425C46.1374 47.5167 46.7582 47.6584 47.2749 47.85C48.2582 48.225 49.0166 48.7834 49.5499 49.525C50.0832 50.2584 50.3499 51.1833 50.3499 52.3ZM42.5499 54.9625C43.2499 54.9625 43.8416 54.9333 44.3249 54.875C44.8166 54.8083 45.2291 54.7125 45.5624 54.5875C46.1791 54.3542 46.6041 54.0375 46.8374 53.6375C47.0791 53.2292 47.1999 52.7625 47.1999 52.2375C47.1999 51.7875 47.1041 51.3917 46.9124 51.05C46.7291 50.7 46.4124 50.425 45.9624 50.225C45.6707 50.0917 45.3041 49.9959 44.8624 49.9375C44.4207 49.8709 43.8749 49.8375 43.2249 49.8375H41.0374V54.9625H42.5499Z" fill="#FF7A00"/>
    <path d="M54.0499 64V47.275H57.1124V54.8875H57.1624L63.4749 47.275H67.2749L60.2999 55.5625L67.8499 64H63.9249L57.1624 56.45H57.1124V64H54.0499Z" fill="#FF7A00"/>
    <path d="M73.2873 61.4375H81.5123V64H70.2249V47.275H81.0623V49.8375H73.2873V54.1625H79.9623V56.725H73.2873V61.4375Z" fill="#FF7A00"/>
    <path d="M91.6123 64H88.5498V49.8375H83.1498V47.275H96.9998V49.8375H91.6123V64Z" fill="#FF7A00"/>
</svg>
