<svg width="28" height="26" viewBox="0 0 28 26" fill="none" xmlns="http://www.w3.org/2000/svg">
    <path fill-rule="evenodd" clip-rule="evenodd" d="M14.0003 3.33317C11.423 3.33317 9.33366 5.42251 9.33366 7.99984C9.33366 10.5772 11.423 12.6665 14.0003 12.6665C16.5777 12.6665 18.667 10.5772 18.667 7.99984C18.667 5.42251 16.5777 3.33317 14.0003 3.33317ZM6.667 7.99984C6.667 3.94975 9.95024 0.666504 14.0003 0.666504C18.0504 0.666504 21.3337 3.94975 21.3337 7.99984C21.3337 12.0499 18.0504 15.3332 14.0003 15.3332C9.95024 15.3332 6.667 12.0499 6.667 7.99984ZM14.0003 20.6665C9.7454 20.6665 5.85809 22.5184 2.97046 25.5812C2.4653 26.117 1.62145 26.1418 1.08566 25.6366C0.54987 25.1315 0.525039 24.2876 1.0302 23.7518C4.37134 20.2081 8.94064 17.9998 14.0003 17.9998C19.06 17.9998 23.6293 20.2081 26.9705 23.7518C27.4756 24.2876 27.4508 25.1315 26.915 25.6366C26.3792 26.1418 25.5354 26.117 25.0302 25.5812C22.1426 22.5184 18.2553 20.6665 14.0003 20.6665Z" fill="black"/>
</svg>
