<svg width="32" height="32" viewBox="0 0 32 32" fill="none" xmlns="http://www.w3.org/2000/svg">
    <path fill-rule="evenodd" clip-rule="evenodd" d="M4.81422 1.34468C4.98797 1.35798 5.23011 1.39183 5.48947 1.51036C5.83048 1.6662 6.11947 1.91684 6.32198 2.23239C6.476 2.47238 6.54375 2.7073 6.58148 2.87742C6.61353 3.02189 6.63692 3.18608 6.65608 3.32054C6.65737 3.32959 6.65864 3.3385 6.65989 3.34727L7.1168 6.54563L27.4714 6.54562C27.6566 6.54556 27.8701 6.54548 28.0554 6.56163C28.2638 6.5798 28.5769 6.62697 28.8935 6.81151C29.2937 7.04476 29.5981 7.41255 29.7523 7.84932C29.8743 8.19487 29.8621 8.51126 29.8409 8.71939C29.8221 8.90441 29.7821 9.11421 29.7474 9.29608L28.0079 18.4285C27.9001 18.9944 27.8062 19.4877 27.6971 19.8932C27.5809 20.325 27.4261 20.7458 27.1537 21.1413C26.7424 21.7386 26.1731 22.2098 25.5093 22.502C25.0698 22.6956 24.6275 22.7689 24.1816 22.8023C23.7629 22.8335 23.2607 22.8335 22.6846 22.8335H11.4429C10.8371 22.8335 10.3106 22.8335 9.87294 22.7999C9.40798 22.7642 8.94645 22.6855 8.49169 22.4765C7.80707 22.162 7.22793 21.6563 6.82396 21.0204C6.55563 20.5979 6.41539 20.1512 6.31732 19.6953C6.22501 19.2662 6.15405 18.7445 6.07241 18.1442L4.69613 8.02862L4.11198 3.93957H2.63604C1.91639 3.93957 1.33301 3.35618 1.33301 2.63654C1.33301 1.9169 1.91639 1.33351 2.63604 1.33351H4.33801C4.34686 1.33351 4.35586 1.33351 4.365 1.3335C4.50082 1.33345 4.66667 1.33339 4.81422 1.34468ZM7.479 9.15169L8.64846 17.7472C8.73812 18.4062 8.79637 18.8277 8.8651 19.1473C8.93041 19.4509 8.98647 19.5643 9.02376 19.6231C9.15841 19.835 9.35146 20.0036 9.57967 20.1085C9.64287 20.1375 9.76288 20.1777 10.0725 20.2015C10.3984 20.2265 10.8239 20.2274 11.489 20.2274H22.6401C23.2735 20.2274 23.6775 20.2266 23.9875 20.2034C24.2812 20.1815 24.3968 20.1444 24.4591 20.117C24.6804 20.0195 24.8702 19.8625 25.0073 19.6634C25.0459 19.6073 25.104 19.5006 25.1805 19.2162C25.2612 18.916 25.3377 18.5194 25.4562 17.8972L27.122 9.15169H7.479ZM9.15119 27.3941C9.15119 25.9548 10.318 24.788 11.7572 24.788C13.1965 24.788 14.3633 25.9548 14.3633 27.3941C14.3633 28.8334 13.1965 30.0002 11.7572 30.0002C10.318 30.0002 9.15119 28.8334 9.15119 27.3941ZM19.5754 27.3941C19.5754 25.9548 20.7422 24.788 22.1815 24.788C23.6208 24.788 24.7875 25.9548 24.7875 27.3941C24.7875 28.8334 23.6208 30.0002 22.1815 30.0002C20.7422 30.0002 19.5754 28.8334 19.5754 27.3941Z" fill="black"/>
</svg>
