<svg width="30" height="30" viewBox="0 0 30 30" fill="none" xmlns="http://www.w3.org/2000/svg">
    <path fill-rule="evenodd" clip-rule="evenodd" d="M9.00033 2.6665C8.38149 2.6665 7.788 2.91234 7.35041 3.34992C6.91283 3.78751 6.66699 4.381 6.66699 4.99984C6.66699 5.61868 6.91283 6.21217 7.35041 6.64975C7.788 7.08734 8.38149 7.33317 9.00033 7.33317H13.6803C13.4958 6.79054 13.2321 6.13273 12.8741 5.48176C12.016 3.92151 10.7776 2.6665 9.00033 2.6665ZM14.0003 9.33317V16.6665H2.66699L2.66699 12.5998C2.66699 11.8366 2.66777 11.3243 2.7 10.9298C2.73128 10.547 2.78713 10.3639 2.84865 10.2432C3.00844 9.92958 3.26341 9.67462 3.57701 9.51483C3.69776 9.4533 3.8808 9.39746 4.26363 9.36618C4.65814 9.33395 5.17042 9.33317 5.93366 9.33317L14.0003 9.33317ZM5.3493 7.33391C4.9072 6.64234 4.66699 5.83347 4.66699 4.99984C4.66699 3.85057 5.12354 2.74837 5.9362 1.93571C6.74885 1.12305 7.85105 0.666504 9.00033 0.666504C11.8898 0.666504 13.6513 2.74483 14.6265 4.51792C14.7631 4.7662 14.8874 5.01379 15.0003 5.25611C15.1132 5.01379 15.2376 4.7662 15.3741 4.51792C16.3493 2.74483 18.1109 0.666504 21.0003 0.666504C22.1496 0.666504 23.2518 1.12305 24.0645 1.93571C24.8771 2.74837 25.3337 3.85057 25.3337 4.99984C25.3337 5.83347 25.0935 6.64234 24.6514 7.33391C25.1285 7.33596 25.5435 7.34371 25.8999 7.37283C26.4064 7.41421 26.8819 7.50369 27.3316 7.73282C28.0216 8.08435 28.5825 8.64528 28.934 9.33521C29.1631 9.78489 29.2526 10.2604 29.294 10.7669C29.3337 11.2526 29.3337 11.847 29.3337 12.5592V24.1071C29.3337 24.8193 29.3337 25.4138 29.294 25.8994C29.2526 26.4059 29.1631 26.8815 28.934 27.3311C28.5825 28.0211 28.0216 28.582 27.3316 28.9335C26.8819 29.1627 26.4064 29.2521 25.8999 29.2935C25.4142 29.3332 24.8198 29.3332 24.1076 29.3332H15.0019C15.0014 29.3332 15.0009 29.3332 15.0003 29.3332C14.9998 29.3332 14.9993 29.3332 14.9987 29.3332H5.89306C5.18086 29.3332 4.58641 29.3332 4.10077 29.2935C3.59425 29.2521 3.11871 29.1627 2.66903 28.9335C1.9791 28.582 1.41817 28.0211 1.06664 27.3311C0.837511 26.8815 0.748029 26.4059 0.706645 25.8994C0.666967 25.4137 0.666978 24.8193 0.666993 24.1071L0.666993 17.6672L0.666993 12.5593C0.666979 11.8471 0.666967 11.2526 0.706646 10.7669C0.74803 10.2604 0.837511 9.78489 1.06664 9.33521C1.41817 8.64528 1.9791 8.08435 2.66903 7.73281C3.11871 7.50369 3.59425 7.41421 4.10077 7.37282C4.45716 7.3437 4.87216 7.33596 5.3493 7.33391ZM2.66699 18.6665L2.66699 24.0665C2.66699 24.8297 2.66777 25.342 2.7 25.7365C2.73128 26.1194 2.78712 26.3024 2.84865 26.4232C3.00844 26.7368 3.26341 26.9917 3.57701 27.1515C3.69776 27.213 3.8808 27.2689 4.26363 27.3002C4.65814 27.3324 5.17042 27.3332 5.93366 27.3332H14.0003V18.6665H2.66699ZM16.0003 18.6665V27.3332H24.067C24.8302 27.3332 25.3425 27.3324 25.737 27.3002C26.1199 27.2689 26.3029 27.213 26.4236 27.1515C26.7372 26.9917 26.9922 26.7368 27.152 26.4232C27.2135 26.3024 27.2694 26.1194 27.3006 25.7365C27.3329 25.342 27.3337 24.8297 27.3337 24.0665V18.6665H16.0003ZM27.3337 16.6665V12.5998C27.3337 11.8366 27.3329 11.3243 27.3006 10.9298C27.2694 10.547 27.2135 10.3639 27.152 10.2432C26.9922 9.92959 26.7372 9.67462 26.4236 9.51483C26.3029 9.45331 26.1199 9.39746 25.737 9.36618C25.3425 9.33395 24.8302 9.33317 24.067 9.33317L16.0003 9.33317V16.6665H27.3337ZM16.3204 7.33317C16.5049 6.79054 16.7685 6.13273 17.1265 5.48176C17.9847 3.92151 19.2231 2.6665 21.0003 2.6665C21.6192 2.6665 22.2127 2.91234 22.6502 3.34992C23.0878 3.78751 23.3337 4.381 23.3337 4.99984C23.3337 5.61868 23.0878 6.21217 22.6502 6.64975C22.2127 7.08734 21.6192 7.33317 21.0003 7.33317H16.3204Z" fill="black"/>
</svg>
