<svg width="24" height="24" viewBox="0 0 24 24" fill="none" xmlns="http://www.w3.org/2000/svg">
<path fill-rule="evenodd" clip-rule="evenodd" d="M18.7213 16.6089C18.9374 16.2555 19.399 16.1442 19.7524 16.3602C20.5698 16.8599 21.25 17.5737 21.25 18.5001C21.25 19.4265 20.5698 20.1403 19.7524 20.64C18.9043 21.1584 17.7383 21.5603 16.3998 21.8331C15.0524 22.1076 13.5359 22.2501 12 22.2501C10.4641 22.2501 8.94763 22.1076 7.60025 21.8331C6.26166 21.5603 5.09566 21.1584 4.2476 20.64C3.4302 20.1403 2.75 19.4265 2.75 18.5001C2.75 17.5737 3.4302 16.8599 4.2476 16.3602C4.60101 16.1442 5.06264 16.2555 5.27869 16.6089C5.49473 16.9623 5.38337 17.424 5.02996 17.64C4.35531 18.0524 4.25 18.3733 4.25 18.5001C4.25 18.6269 4.35531 18.9478 5.02997 19.3602C5.67397 19.7539 6.65402 20.1094 7.89975 20.3633C9.13669 20.6153 10.5518 20.7501 12 20.7501C13.4482 20.7501 14.8633 20.6153 16.1003 20.3633C17.346 20.1094 18.326 19.7539 18.97 19.3602C19.6447 18.9478 19.75 18.6269 19.75 18.5001C19.75 18.3733 19.6447 18.0524 18.97 17.64C18.6166 17.424 18.5053 16.9623 18.7213 16.6089Z" fill="black"/>
<path fill-rule="evenodd" clip-rule="evenodd" d="M12 3.25C8.50619 3.25 5.25 5.95503 5.25 10C5.25 12.2254 6.46885 14.1463 7.97488 15.664C9.47378 17.1746 11.173 18.1988 11.9369 18.6194C11.9797 18.643 12.0203 18.643 12.0631 18.6194C12.827 18.1988 14.5262 17.1746 16.0251 15.664C17.5311 14.1463 18.75 12.2254 18.75 10C18.75 5.94671 15.619 3.25 12 3.25ZM3.75 10C3.75 5.04497 7.76183 1.75 12 1.75C16.381 1.75 20.25 5.05329 20.25 10C20.25 12.7926 18.7247 15.073 17.0899 16.7206C15.4479 18.3753 13.6096 19.4802 12.7866 19.9334C12.2934 20.205 11.7066 20.205 11.2134 19.9334C10.3904 19.4802 8.55208 18.3753 6.91012 16.7206C5.2753 15.073 3.75 12.7926 3.75 10Z" fill="black"/>
<path fill-rule="evenodd" clip-rule="evenodd" d="M12 12.5C13.3807 12.5 14.5 11.3807 14.5 10C14.5 8.61929 13.3807 7.5 12 7.5C10.6193 7.5 9.5 8.61929 9.5 10C9.5 11.3807 10.6193 12.5 12 12.5ZM12 14C14.2091 14 16 12.2091 16 10C16 7.79086 14.2091 6 12 6C9.79086 6 8 7.79086 8 10C8 12.2091 9.79086 14 12 14Z" fill="black"/>
</svg>
