<svg width="16" height="16" viewBox="0 0 16 16" fill="none" xmlns="http://www.w3.org/2000/svg">
<path fill-rule="evenodd" clip-rule="evenodd" d="M9.42271 2.22796L9.42402 2.24088L9.42637 2.26404C9.51169 3.04953 10.4314 3.43048 11.0471 2.93538L11.0652 2.92067L11.0752 2.91247C11.4713 2.59226 12.0447 2.62086 12.4069 2.97889L12.4161 2.98805L13.0118 3.5837L13.0209 3.59289C13.379 3.95511 13.4076 4.52854 13.0873 4.92459L13.0791 4.93465L13.0644 4.95271C12.5693 5.56846 12.9503 6.48814 13.7358 6.57346L13.7589 6.57582L13.7719 6.57713C14.2784 6.63076 14.6636 7.05646 14.6666 7.56574L14.6666 7.57875V8.42117L14.6666 8.43403C14.6636 8.94336 14.2783 9.36911 13.7718 9.42271L13.759 9.42401L13.7361 9.42633C12.9505 9.51157 12.5695 10.4314 13.0647 11.0472L13.0792 11.065L13.0873 11.0749C13.4076 11.471 13.379 12.0445 13.0209 12.4067L13.0119 12.4158L12.4161 13.0115L12.407 13.0207C12.0447 13.3787 11.4713 13.4073 11.0752 13.0871L11.0652 13.0789L11.0472 13.0642C10.4314 12.5691 9.51172 12.95 9.4264 13.7355L9.42403 13.7588L9.4227 13.772C9.36904 14.2784 8.9434 14.6636 8.43417 14.6666L8.42101 14.6666H7.57875L7.56574 14.6666C7.05646 14.6636 6.63076 14.2783 6.57713 13.7719L6.57582 13.759L6.57346 13.7357C6.48813 12.9503 5.56847 12.5693 4.95272 13.0644L4.93464 13.0792L4.92455 13.0874C4.52851 13.4076 3.95509 13.379 3.59287 13.021L3.58366 13.0118L2.98803 12.4162L2.97885 12.4069C2.62083 12.0447 2.59223 11.4713 2.91243 11.0753L2.92066 11.0652L2.93538 11.0471C3.43047 10.4314 3.04953 9.51169 2.26404 9.42637L2.24087 9.42401L2.22796 9.42271C1.72149 9.36908 1.33623 8.94338 1.33327 8.43408L1.33325 8.4211L1.33325 7.57882L1.33327 7.56569C1.33627 7.05644 1.72148 6.63079 2.22789 6.57714L2.24096 6.57581L2.26438 6.57343C3.04978 6.48804 3.43067 5.5685 2.93569 4.95276L2.92077 4.93446L2.91241 4.92421C2.59228 4.52819 2.62088 3.95486 2.97882 3.59266L2.98814 3.58331L3.58369 2.98776L3.5929 2.97858C3.95512 2.62056 4.52854 2.59196 4.92458 2.91216L4.93472 2.92043L4.95265 2.93506C5.56843 3.43027 6.48825 3.04927 6.57351 2.26368L6.57583 2.24079L6.57712 2.22803C6.63072 1.7215 7.05648 1.3362 7.56582 1.33327L7.57865 1.33325H8.4211L8.43409 1.33327C8.94338 1.33623 9.36908 1.72149 9.42271 2.22796ZM7.99992 10.6666C9.47268 10.6666 10.6666 9.47268 10.6666 7.99992C10.6666 6.52716 9.47268 5.33325 7.99992 5.33325C6.52716 5.33325 5.33325 6.52716 5.33325 7.99992C5.33325 9.47268 6.52716 10.6666 7.99992 10.6666Z" fill="white"/>
</svg>
