<svg width="20" height="19" viewBox="0 0 20 19" fill="none" xmlns="http://www.w3.org/2000/svg">
<path fill-rule="evenodd" clip-rule="evenodd" d="M10 2C8.06701 2 6.5 3.567 6.5 5.5C6.5 7.433 8.06701 9 10 9C11.933 9 13.5 7.433 13.5 5.5C13.5 3.567 11.933 2 10 2ZM4.5 5.5C4.5 2.46243 6.96244 0 10 0C13.0376 0 15.5 2.46243 15.5 5.5C15.5 8.53757 13.0376 11 10 11C6.96244 11 4.5 8.53757 4.5 5.5ZM10 15C6.8088 15 3.89333 16.389 1.7276 18.686C1.34873 19.0878 0.715842 19.1065 0.314 18.7276C-0.0878419 18.3487 -0.106465 17.7158 0.272404 17.314C2.77826 14.6562 6.20523 13 10 13C13.7948 13 17.2217 14.6562 19.7276 17.314C20.1065 17.7158 20.0878 18.3487 19.686 18.7276C19.2842 19.1065 18.6513 19.0878 18.2724 18.686C16.1067 16.389 13.1912 15 10 15Z" fill="black"/>
</svg>
